<svg width="60" height="60" viewBox="0 0 60 60" fill="none" xmlns="http://www.w3.org/2000/svg">
<g clip-path="url(#clip0_296_1334)">
<path fill-rule="evenodd" clip-rule="evenodd" d="M59.8517 5.3861V54.4639C59.8517 57.4351 57.4377 59.8505 54.4651 59.8505H5.3871C2.41449 59.8505 0.000488281 57.4351 0.000488281 54.4639V5.3861C0.000488281 2.41493 2.41449 -0.000488281 5.3871 -0.000488281H54.4651C57.4377 -0.000488281 59.8517 2.41493 59.8517 5.3861Z" fill="white" fill-opacity="0.5"/>
<path fill-rule="evenodd" clip-rule="evenodd" d="M59.8516 33.6957H51.9879V33.5846C52.48 31.7848 51.4425 29.9251 49.6404 29.4335C48.8191 29.2155 48.0011 29.271 47.2363 29.6515L47.3993 26.8086H59.8516V33.6957Z" fill="black"/>
<path fill-rule="evenodd" clip-rule="evenodd" d="M8.94809 20.52C8.74194 20.52 8.57568 20.6867 8.57568 20.892C8.57568 21.0972 8.74194 21.2682 8.94809 21.2682C9.15425 21.2682 9.3205 21.0972 9.3205 20.892C9.3205 20.6867 9.15425 20.52 8.94809 20.52Z" fill="black"/>
<path fill-rule="evenodd" clip-rule="evenodd" d="M0.000488281 33.6957V26.8086H28.0009L28.1638 29.6515C27.399 29.271 26.5811 29.2155 25.7598 29.4335C23.9576 29.9251 22.9202 31.8361 23.4123 33.5846V33.6957H0.000488281Z" fill="black"/>
<path fill-rule="evenodd" clip-rule="evenodd" d="M0.000488281 19.9043H21.6267V20.9944C21.6267 21.5331 21.1911 21.9692 20.6525 21.9692H10.6839L11.1827 25.9706H13.1212V26.2656H4.77861V25.9706H6.7138L7.21256 21.9692H0.000488281V19.9043Z" fill="black"/>
<path fill-rule="evenodd" clip-rule="evenodd" d="M0.00381311 5.20264H20.6525C21.1878 5.20264 21.6267 5.64297 21.6234 6.17735V19.8191H0.000488281V18.9555H20.6292C20.699 18.9555 20.7589 18.8957 20.7589 18.823H20.7556V6.12178C20.7556 6.0491 20.699 5.98925 20.6259 5.98925H0.000488281V5.38647C0.000488281 5.32661 0.00048804 5.26249 0.00381311 5.20264Z" fill="black"/>
<path fill-rule="evenodd" clip-rule="evenodd" d="M59.8513 21.9692H54.3317C53.793 21.9692 53.3574 21.5331 53.3574 20.9944V19.9043H59.8513V21.9692Z" fill="black"/>
<path fill-rule="evenodd" clip-rule="evenodd" d="M59.8517 19.8191H53.3545V6.17735C53.3545 5.63869 53.7901 5.20264 54.3287 5.20264H59.8484C59.8517 5.26249 59.8517 5.32661 59.8517 5.38647V5.98925H54.352C54.2822 5.98925 54.2223 6.0491 54.2223 6.12178V18.823C54.2223 18.8957 54.2789 18.9555 54.352 18.9555H59.8517V19.8191Z" fill="black"/>
<path fill-rule="evenodd" clip-rule="evenodd" d="M27.7812 39.7066C27.2891 39.7622 26.797 39.433 26.634 38.9969L25.0513 33.2042C24.7753 32.2765 25.324 31.4001 26.1984 31.1265C27.1261 30.8529 28.0006 31.4001 28.2733 32.2765C28.3298 32.3834 28.3298 32.4946 28.3298 32.6014L28.7654 38.5566C28.8186 39.1594 28.383 39.651 27.7812 39.7066Z" fill="black"/>
<path fill-rule="evenodd" clip-rule="evenodd" d="M47.1796 53.2027C47.8346 53.4763 48.217 54.1304 48.217 54.84C48.217 55.8233 47.399 56.6441 46.4148 56.6441C45.4306 56.6441 44.6126 55.8233 44.6126 54.84C44.6126 54.1304 44.995 53.5832 45.5403 53.2583C45.2145 51.7278 43.8479 50.5778 42.2086 50.5778H38.5477V53.2027C39.1462 53.4763 39.5286 54.0748 39.5286 54.7887C39.5286 55.772 38.7107 56.5885 37.7264 56.5885C36.7422 56.5885 35.9242 55.772 35.9242 54.7887C35.9242 54.1304 36.3066 53.5319 36.9085 53.2027V50.5778H33.2476C31.6083 50.5778 30.2417 51.7278 29.9125 53.2583C30.4578 53.5832 30.8435 54.1859 30.8435 54.84C30.8435 55.8233 30.0222 56.6441 29.038 56.6441C28.0538 56.6441 27.2358 55.8233 27.2358 54.84C27.2358 54.1304 27.6714 53.4763 28.2733 53.2027C28.6024 50.8001 30.7338 48.9404 33.2476 48.9404H42.2086C44.7224 48.9404 46.7972 50.8001 47.1796 53.2027Z" fill="black"/>
<path fill-rule="evenodd" clip-rule="evenodd" d="M28.3698 19.819H24.812V6.17723C24.812 5.63857 25.2476 5.20251 25.7863 5.20251H33.6035C34.3583 4.00977 35.6817 3.20605 37.2345 3.20605H37.9992C39.5554 3.20605 40.8787 4.00977 41.6302 5.20251H49.1947C49.7301 5.20251 50.169 5.64285 50.1657 6.17723V19.819H47.0301V19.9045H50.169V20.9946C50.169 21.5333 49.7334 21.9693 49.1947 21.9693H47.0501L47.07 24.0257C47.07 24.1325 46.9071 24.1881 46.8539 24.077C46.3585 23.1835 45.617 22.4439 44.7225 21.9693H30.6608C29.7531 22.4439 29.0116 23.1835 28.5461 24.077C28.4929 24.1881 28.3299 24.1325 28.3299 24.0257L28.3466 21.9693H25.7896C25.2509 21.9693 24.8153 21.5333 24.8153 20.9946V19.9045H28.3665L28.3698 19.819Z" fill="black"/>
<path fill-rule="evenodd" clip-rule="evenodd" d="M33.211 5.98926H25.8094C25.7395 5.98926 25.6797 6.04911 25.6797 6.12179V18.823C25.6797 18.8957 25.7362 18.9556 25.8094 18.9556H28.3763L28.383 18.2886C28.4362 17.9039 28.7654 17.5747 29.1477 17.4122L33.5202 15.8818H41.8794L46.2519 17.4122C46.6343 17.5234 46.9069 17.8483 47.0166 18.2886L47.0233 18.9556H49.1713C49.2411 18.9556 49.301 18.8957 49.301 18.823L49.2976 6.12179C49.2976 6.04911 49.2411 5.98926 49.168 5.98926H42.0224C42.2618 6.63052 42.3549 7.34018 42.2618 8.06694L41.66 11.2903C41.2776 13.2056 39.6383 14.5693 37.6732 14.5693C35.7613 14.5693 34.0655 13.2056 33.6831 11.2903L32.9716 8.06694C32.8785 7.34018 32.9716 6.63052 33.211 5.98926Z" fill="white" fill-opacity="0.5"/>
<path fill-rule="evenodd" clip-rule="evenodd" d="M47.399 41.562C48.8754 41.562 49.5304 43.3105 48.4364 44.2981C47.8911 44.7897 47.0166 45.2257 46.0856 45.5549C44.3932 46.209 42.5345 46.4826 40.7323 46.4826H34.6108C32.8086 46.4826 30.9499 46.1534 29.2575 45.5549C28.3298 45.2257 27.4553 44.7897 26.9066 44.2981C25.8692 43.3105 26.5808 41.562 28.0006 41.562H47.399Z" fill="black"/>
<path fill-rule="evenodd" clip-rule="evenodd" d="M49.1479 31.0708C50.0224 31.3444 50.5677 32.2764 50.2385 33.0929L48.6558 38.8856C48.5461 39.3773 48.054 39.7064 47.5619 39.6509C46.96 39.5953 46.5244 39.1037 46.5776 38.5052L47.0165 32.55C47.0165 32.4388 47.0165 32.3277 47.0698 32.2208C47.3424 31.3444 48.2734 30.8015 49.1479 31.0708Z" fill="black"/>
<path fill-rule="evenodd" clip-rule="evenodd" d="M32.9719 23.1489H42.425C44.2306 23.1489 45.7036 24.6238 45.7036 26.4279L44.9388 39.1591H30.4581L29.6934 26.4279C29.6934 24.6238 31.1697 23.1489 32.9719 23.1489Z" fill="black"/>
</g>
<defs>
<clipPath id="clip0_296_1334">
<rect width="60" height="60" fill="white"/>
</clipPath>
</defs>
</svg>
