<svg width="60" height="90" viewBox="0 0 60 90" fill="none" xmlns="http://www.w3.org/2000/svg">
<path fill-rule="evenodd" clip-rule="evenodd" d="M59.8515 5.38622V54.464C59.8515 57.4352 57.4375 59.8506 54.4649 59.8506H5.38685C2.41424 59.8506 0.000244141 57.4352 0.000244141 54.464V5.38622C0.000244141 2.41505 2.41424 -0.000366211 5.38685 -0.000366211H54.4649C57.4375 -0.000366211 59.8515 2.41505 59.8515 5.38622Z" fill="#BCFAF9"/>
<path fill-rule="evenodd" clip-rule="evenodd" d="M59.8516 33.6957H51.9879V33.5846C52.48 31.7848 51.4425 29.9251 49.6404 29.4335C48.8191 29.2155 48.0011 29.271 47.2363 29.6515L47.3993 26.8086H59.8516V33.6957Z" fill="black"/>
<path fill-rule="evenodd" clip-rule="evenodd" d="M8.94809 20.52C8.74194 20.52 8.57568 20.6867 8.57568 20.8919C8.57568 21.0971 8.74194 21.2681 8.94809 21.2681C9.15425 21.2681 9.3205 21.0971 9.3205 20.8919C9.3205 20.6867 9.15425 20.52 8.94809 20.52Z" fill="black"/>
<path fill-rule="evenodd" clip-rule="evenodd" d="M0.000244141 33.6957V26.8086H28.0006L28.1636 29.6515C27.3988 29.271 26.5808 29.2155 25.7595 29.4335C23.9574 29.9251 22.9199 31.8361 23.412 33.5846V33.6957H0.000244141Z" fill="black"/>
<path fill-rule="evenodd" clip-rule="evenodd" d="M0.000244141 19.9044H21.6265V20.9946C21.6265 21.5332 21.1909 21.9693 20.6522 21.9693H10.6837L11.1824 25.9707H13.121V26.2657H4.77837V25.9707H6.71356L7.21232 21.9693H0.000244141V19.9044Z" fill="black"/>
<path fill-rule="evenodd" clip-rule="evenodd" d="M0.00356897 5.20239H20.6522C21.1876 5.20239 21.6265 5.64273 21.6232 6.17711V19.8189H0.000244141V18.9553H20.629C20.6988 18.9553 20.7586 18.8954 20.7586 18.8228H20.7553V6.12153C20.7553 6.04886 20.6988 5.98901 20.6256 5.98901H0.000244141V5.38622C0.000244141 5.32637 0.000243899 5.26224 0.00356897 5.20239Z" fill="black"/>
<path fill-rule="evenodd" clip-rule="evenodd" d="M59.8515 21.9693H54.3319C53.7932 21.9693 53.3577 21.5332 53.3577 20.9946V19.9044H59.8515V21.9693Z" fill="black"/>
<path fill-rule="evenodd" clip-rule="evenodd" d="M59.8514 19.8189H53.3542V6.17711C53.3542 5.63845 53.7898 5.20239 54.3285 5.20239H59.8481C59.8514 5.26224 59.8514 5.32637 59.8514 5.38622V5.98901H54.3518C54.2819 5.98901 54.2221 6.04886 54.2221 6.12153V18.8228C54.2221 18.8954 54.2786 18.9553 54.3518 18.9553H59.8514V19.8189Z" fill="black"/>
<path fill-rule="evenodd" clip-rule="evenodd" d="M27.7812 39.7065C27.2891 39.7621 26.797 39.4329 26.634 38.9969L25.0513 33.2042C24.7753 32.2765 25.324 31.4001 26.1984 31.1265C27.1261 30.8529 28.0006 31.4001 28.2733 32.2765C28.3298 32.3833 28.3298 32.4945 28.3298 32.6014L28.7654 38.5565C28.8186 39.1593 28.383 39.651 27.7812 39.7065Z" fill="black"/>
<path fill-rule="evenodd" clip-rule="evenodd" d="M47.1798 53.2029C47.8349 53.4765 48.2173 54.1306 48.2173 54.8403C48.2173 55.8235 47.3993 56.6444 46.4151 56.6444C45.4309 56.6444 44.6129 55.8235 44.6129 54.8403C44.6129 54.1306 44.9953 53.5834 45.5406 53.2585C45.2147 51.728 43.8481 50.578 42.2089 50.578H38.548V53.2029C39.1465 53.4765 39.5289 54.075 39.5289 54.789C39.5289 55.7722 38.7109 56.5888 37.7267 56.5888C36.7425 56.5888 35.9245 55.7722 35.9245 54.789C35.9245 54.1306 36.3069 53.5321 36.9087 53.2029V50.578H33.2478C31.6085 50.578 30.2419 51.728 29.9128 53.2585C30.4581 53.5834 30.8438 54.1862 30.8438 54.8403C30.8438 55.8235 30.0225 56.6444 29.0383 56.6444C28.0541 56.6444 27.2361 55.8235 27.2361 54.8403C27.2361 54.1306 27.6717 53.4765 28.2735 53.2029C28.6027 50.8003 30.7341 48.9407 33.2478 48.9407H42.2089C44.7226 48.9407 46.7975 50.8003 47.1798 53.2029Z" fill="black"/>
<path fill-rule="evenodd" clip-rule="evenodd" d="M28.3698 19.8189H24.812V6.17711C24.812 5.63845 25.2476 5.20239 25.7863 5.20239H33.6035C34.3583 4.00965 35.6817 3.20593 37.2345 3.20593H37.9992C39.5554 3.20593 40.8787 4.00965 41.6302 5.20239H49.1947C49.7301 5.20239 50.169 5.64272 50.1657 6.17711V19.8189H47.0301V19.9044H50.169V20.9945C50.169 21.5332 49.7334 21.9692 49.1947 21.9692H47.0501L47.07 24.0255C47.07 24.1324 46.9071 24.188 46.8539 24.0768C46.3585 23.1833 45.617 22.4438 44.7225 21.9692H30.6608C29.7531 22.4438 29.0116 23.1833 28.5461 24.0768C28.4929 24.188 28.3299 24.1324 28.3299 24.0255L28.3466 21.9692H25.7896C25.2509 21.9692 24.8153 21.5332 24.8153 20.9945V19.9044H28.3665L28.3698 19.8189Z" fill="black"/>
<path fill-rule="evenodd" clip-rule="evenodd" d="M33.2112 5.98901H25.8096C25.7398 5.98901 25.6799 6.04887 25.6799 6.12154V18.8228C25.6799 18.8955 25.7365 18.9553 25.8096 18.9553H28.3766L28.3832 18.2884C28.4364 17.9036 28.7656 17.5745 29.148 17.412L33.5204 15.8815H41.8797L46.2521 17.412C46.6345 17.5232 46.9072 17.8481 47.0169 18.2884L47.0235 18.9553H49.1715C49.2414 18.9553 49.3012 18.8955 49.3012 18.8228L49.2979 6.12154C49.2979 6.04887 49.2414 5.98901 49.1682 5.98901H42.0226C42.262 6.63027 42.3551 7.33994 42.262 8.0667L41.6602 11.2901C41.2778 13.2053 39.6386 14.5691 37.6735 14.5691C35.7615 14.5691 34.0658 13.2053 33.6834 11.2901L32.9718 8.0667C32.8787 7.33994 32.9718 6.63027 33.2112 5.98901Z" fill="#BCFAF9"/>
<path fill-rule="evenodd" clip-rule="evenodd" d="M47.3993 41.5619C48.8756 41.5619 49.5306 43.3104 48.4367 44.2979C47.8914 44.7896 47.0169 45.2256 46.0859 45.5548C44.3934 46.2089 42.5347 46.4825 40.7325 46.4825H34.6111C32.8089 46.4825 30.9502 46.1533 29.2577 45.5548C28.33 45.2256 27.4555 44.7896 26.9069 44.2979C25.8695 43.3104 26.581 41.5619 28.0008 41.5619H47.3993Z" fill="black"/>
<path fill-rule="evenodd" clip-rule="evenodd" d="M49.1482 31.0709C50.0227 31.3445 50.568 32.2764 50.2388 33.093L48.6561 38.8857C48.5463 39.3773 48.0542 39.7065 47.5621 39.6509C46.9603 39.5954 46.5247 39.1037 46.5779 38.5052L47.0168 32.55C47.0168 32.4389 47.0168 32.3277 47.07 32.2209C47.3427 31.3445 48.2737 30.8015 49.1482 31.0709Z" fill="black"/>
<path fill-rule="evenodd" clip-rule="evenodd" d="M32.9719 23.1492H42.425C44.2306 23.1492 45.7036 24.6241 45.7036 26.4282L44.9388 39.1593H30.4581L29.6934 26.4282C29.6934 24.6241 31.1697 23.1492 32.9719 23.1492Z" fill="black"/>
<path d="M8.19531 71.1934H9.80664C9.76367 71.7637 9.60547 72.2695 9.33203 72.7109C9.05859 73.1484 8.67773 73.4922 8.18945 73.7422C7.70117 73.9922 7.10938 74.1172 6.41406 74.1172C5.87891 74.1172 5.39648 74.0234 4.9668 73.8359C4.54102 73.6445 4.17578 73.373 3.87109 73.0215C3.57031 72.666 3.33984 72.2402 3.17969 71.7441C3.01953 71.2441 2.93945 70.6836 2.93945 70.0625V69.4121C2.93945 68.791 3.02148 68.2305 3.18555 67.7305C3.34961 67.2305 3.58398 66.8047 3.88867 66.4531C4.19727 66.0977 4.56641 65.8242 4.99609 65.6328C5.42969 65.4414 5.91406 65.3457 6.44922 65.3457C7.14453 65.3457 7.73242 65.4746 8.21289 65.7324C8.69336 65.9863 9.06641 66.3359 9.33203 66.7812C9.59766 67.2266 9.75781 67.7383 9.8125 68.3164H8.20117C8.16992 67.957 8.0918 67.6523 7.9668 67.4023C7.8457 67.1523 7.66211 66.9629 7.41602 66.834C7.17383 66.7012 6.85156 66.6348 6.44922 66.6348C6.13672 66.6348 5.86133 66.6934 5.62305 66.8105C5.38867 66.9277 5.19336 67.1035 5.03711 67.3379C4.88086 67.5684 4.76367 67.8574 4.68555 68.2051C4.60742 68.5488 4.56836 68.9473 4.56836 69.4004V70.0625C4.56836 70.4961 4.60352 70.8848 4.67383 71.2285C4.74414 71.5723 4.85352 71.8633 5.00195 72.1016C5.15039 72.3398 5.3418 72.5215 5.57617 72.6465C5.81055 72.7715 6.08984 72.834 6.41406 72.834C6.80859 72.834 7.12891 72.7715 7.375 72.6465C7.625 72.5215 7.81445 72.3379 7.94336 72.0957C8.07617 71.8535 8.16016 71.5527 8.19531 71.1934ZM17.9629 69.5176V69.957C17.9629 70.6016 17.877 71.1816 17.7051 71.6973C17.5332 72.209 17.2891 72.6445 16.9727 73.0039C16.6562 73.3633 16.2793 73.6387 15.8418 73.8301C15.4043 74.0215 14.918 74.1172 14.3828 74.1172C13.8555 74.1172 13.3711 74.0215 12.9297 73.8301C12.4922 73.6387 12.1133 73.3633 11.793 73.0039C11.4727 72.6445 11.2246 72.209 11.0488 71.6973C10.873 71.1816 10.7852 70.6016 10.7852 69.957V69.5176C10.7852 68.8691 10.873 68.2891 11.0488 67.7773C11.2246 67.2656 11.4707 66.8301 11.7871 66.4707C12.1035 66.1074 12.4805 65.8301 12.918 65.6387C13.3594 65.4473 13.8438 65.3516 14.3711 65.3516C14.9062 65.3516 15.3926 65.4473 15.8301 65.6387C16.2676 65.8301 16.6445 66.1074 16.9609 66.4707C17.2812 66.8301 17.5273 67.2656 17.6992 67.7773C17.875 68.2891 17.9629 68.8691 17.9629 69.5176ZM16.334 69.957V69.5059C16.334 69.041 16.291 68.6328 16.2051 68.2812C16.1191 67.9258 15.9922 67.627 15.8242 67.3848C15.6562 67.1426 15.4492 66.9609 15.2031 66.8398C14.957 66.7148 14.6797 66.6523 14.3711 66.6523C14.0586 66.6523 13.7812 66.7148 13.5391 66.8398C13.3008 66.9609 13.0977 67.1426 12.9297 67.3848C12.7617 67.627 12.6328 67.9258 12.543 68.2812C12.457 68.6328 12.4141 69.041 12.4141 69.5059V69.957C12.4141 70.418 12.457 70.8262 12.543 71.1816C12.6328 71.5371 12.7617 71.8379 12.9297 72.084C13.1016 72.3262 13.3086 72.5098 13.5508 72.6348C13.793 72.7598 14.0703 72.8223 14.3828 72.8223C14.6953 72.8223 14.9727 72.7598 15.2148 72.6348C15.457 72.5098 15.6602 72.3262 15.8242 72.084C15.9922 71.8379 16.1191 71.5371 16.2051 71.1816C16.291 70.8262 16.334 70.418 16.334 69.957ZM26.1836 65.4688V74H24.5664L20.9395 68.082V74H19.3281V65.4688H20.9395L24.5781 71.3926V65.4688H26.1836ZM31.3105 65.4688V74H29.7051V65.4688H31.3105ZM33.959 65.4688V66.7402H27.0859V65.4688H33.959ZM35.0312 65.4688H38.1309C38.7793 65.4688 39.3359 65.5664 39.8008 65.7617C40.2656 65.957 40.623 66.2461 40.873 66.6289C41.123 67.0117 41.248 67.4824 41.248 68.041C41.248 68.4824 41.1699 68.8652 41.0137 69.1895C40.8574 69.5137 40.6367 69.7852 40.3516 70.0039C40.0703 70.2227 39.7383 70.3945 39.3555 70.5195L38.8516 70.7773H36.1152L36.1035 69.5059H38.1484C38.4805 69.5059 38.7559 69.4473 38.9746 69.3301C39.1934 69.2129 39.3574 69.0508 39.4668 68.8438C39.5801 68.6367 39.6367 68.4004 39.6367 68.1348C39.6367 67.8496 39.582 67.6035 39.4727 67.3965C39.3633 67.1855 39.1973 67.0234 38.9746 66.9102C38.752 66.7969 38.4707 66.7402 38.1309 66.7402H36.6426V74H35.0312V65.4688ZM39.8477 74L37.873 70.1797L39.5781 70.1738L41.5762 73.918V74H39.8477ZM49.5684 69.5176V69.957C49.5684 70.6016 49.4824 71.1816 49.3105 71.6973C49.1387 72.209 48.8945 72.6445 48.5781 73.0039C48.2617 73.3633 47.8848 73.6387 47.4473 73.8301C47.0098 74.0215 46.5234 74.1172 45.9883 74.1172C45.4609 74.1172 44.9766 74.0215 44.5352 73.8301C44.0977 73.6387 43.7188 73.3633 43.3984 73.0039C43.0781 72.6445 42.8301 72.209 42.6543 71.6973C42.4785 71.1816 42.3906 70.6016 42.3906 69.957V69.5176C42.3906 68.8691 42.4785 68.2891 42.6543 67.7773C42.8301 67.2656 43.0762 66.8301 43.3926 66.4707C43.709 66.1074 44.0859 65.8301 44.5234 65.6387C44.9648 65.4473 45.4492 65.3516 45.9766 65.3516C46.5117 65.3516 46.998 65.4473 47.4355 65.6387C47.873 65.8301 48.25 66.1074 48.5664 66.4707C48.8867 66.8301 49.1328 67.2656 49.3047 67.7773C49.4805 68.2891 49.5684 68.8691 49.5684 69.5176ZM47.9395 69.957V69.5059C47.9395 69.041 47.8965 68.6328 47.8105 68.2812C47.7246 67.9258 47.5977 67.627 47.4297 67.3848C47.2617 67.1426 47.0547 66.9609 46.8086 66.8398C46.5625 66.7148 46.2852 66.6523 45.9766 66.6523C45.6641 66.6523 45.3867 66.7148 45.1445 66.8398C44.9062 66.9609 44.7031 67.1426 44.5352 67.3848C44.3672 67.627 44.2383 67.9258 44.1484 68.2812C44.0625 68.6328 44.0195 69.041 44.0195 69.5059V69.957C44.0195 70.418 44.0625 70.8262 44.1484 71.1816C44.2383 71.5371 44.3672 71.8379 44.5352 72.084C44.707 72.3262 44.9141 72.5098 45.1562 72.6348C45.3984 72.7598 45.6758 72.8223 45.9883 72.8223C46.3008 72.8223 46.5781 72.7598 46.8203 72.6348C47.0625 72.5098 47.2656 72.3262 47.4297 72.084C47.5977 71.8379 47.7246 71.5371 47.8105 71.1816C47.8965 70.8262 47.9395 70.418 47.9395 69.957ZM56.3477 72.7344V74H52.0586V72.7344H56.3477ZM52.5449 65.4688V74H50.9336V65.4688H52.5449ZM12.9414 85.1934H14.5527C14.5098 85.7637 14.3516 86.2695 14.0781 86.7109C13.8047 87.1484 13.4238 87.4922 12.9355 87.7422C12.4473 87.9922 11.8555 88.1172 11.1602 88.1172C10.625 88.1172 10.1426 88.0234 9.71289 87.8359C9.28711 87.6445 8.92188 87.373 8.61719 87.0215C8.31641 86.666 8.08594 86.2402 7.92578 85.7441C7.76562 85.2441 7.68555 84.6836 7.68555 84.0625V83.4121C7.68555 82.791 7.76758 82.2305 7.93164 81.7305C8.0957 81.2305 8.33008 80.8047 8.63477 80.4531C8.94336 80.0977 9.3125 79.8242 9.74219 79.6328C10.1758 79.4414 10.6602 79.3457 11.1953 79.3457C11.8906 79.3457 12.4785 79.4746 12.959 79.7324C13.4395 79.9863 13.8125 80.3359 14.0781 80.7812C14.3438 81.2266 14.5039 81.7383 14.5586 82.3164H12.9473C12.916 81.957 12.8379 81.6523 12.7129 81.4023C12.5918 81.1523 12.4082 80.9629 12.1621 80.834C11.9199 80.7012 11.5977 80.6348 11.1953 80.6348C10.8828 80.6348 10.6074 80.6934 10.3691 80.8105C10.1348 80.9277 9.93945 81.1035 9.7832 81.3379C9.62695 81.5684 9.50977 81.8574 9.43164 82.2051C9.35352 82.5488 9.31445 82.9473 9.31445 83.4004V84.0625C9.31445 84.4961 9.34961 84.8848 9.41992 85.2285C9.49023 85.5723 9.59961 85.8633 9.74805 86.1016C9.89648 86.3398 10.0879 86.5215 10.3223 86.6465C10.5566 86.7715 10.8359 86.834 11.1602 86.834C11.5547 86.834 11.875 86.7715 12.1211 86.6465C12.3711 86.5215 12.5605 86.3379 12.6895 86.0957C12.8223 85.8535 12.9062 85.5527 12.9414 85.1934ZM21.4551 86.7344V88H16.9199V86.7344H21.4551ZM17.4121 79.4688V88H15.8008V79.4688H17.4121ZM20.8633 82.9902V84.2266H16.9199V82.9902H20.8633ZM21.4375 79.4688V80.7402H16.9199V79.4688H21.4375ZM29.4297 79.4688V88H27.8125L24.1855 82.082V88H22.5742V79.4688H24.1855L27.8242 85.3926V79.4688H29.4297ZM34.5566 79.4688V88H32.9512V79.4688H34.5566ZM37.2051 79.4688V80.7402H30.332V79.4688H37.2051ZM38.2773 79.4688H41.377C42.0254 79.4688 42.582 79.5664 43.0469 79.7617C43.5117 79.957 43.8691 80.2461 44.1191 80.6289C44.3691 81.0117 44.4941 81.4824 44.4941 82.041C44.4941 82.4824 44.416 82.8652 44.2598 83.1895C44.1035 83.5137 43.8828 83.7852 43.5977 84.0039C43.3164 84.2227 42.9844 84.3945 42.6016 84.5195L42.0977 84.7773H39.3613L39.3496 83.5059H41.3945C41.7266 83.5059 42.002 83.4473 42.2207 83.3301C42.4395 83.2129 42.6035 83.0508 42.7129 82.8438C42.8262 82.6367 42.8828 82.4004 42.8828 82.1348C42.8828 81.8496 42.8281 81.6035 42.7188 81.3965C42.6094 81.1855 42.4434 81.0234 42.2207 80.9102C41.998 80.7969 41.7168 80.7402 41.377 80.7402H39.8887V88H38.2773V79.4688ZM43.0938 88L41.1191 84.1797L42.8242 84.1738L44.8223 87.918V88H43.0938ZM51.5605 86.7344V88H47.0254V86.7344H51.5605ZM47.5176 79.4688V88H45.9062V79.4688H47.5176ZM50.9688 82.9902V84.2266H47.0254V82.9902H50.9688ZM51.543 79.4688V80.7402H47.0254V79.4688H51.543Z" fill="#BCFAF9"/>
</svg>
