<svg width="394" height="32" viewBox="0 0 394 32" fill="none" xmlns="http://www.w3.org/2000/svg">
<path d="M12.7105 18.2912C12.7804 17.6553 12.7005 17.1115 12.4807 16.6586C12.251 16.2057 11.9313 15.8148 11.5317 15.4869C11.1321 15.159 10.6726 14.8801 10.1531 14.6511C9.64365 14.4222 9.14415 14.2142 8.65465 14.0263C7.91539 13.7454 7.17618 13.4115 6.44692 13.0266C5.71766 12.6417 5.07824 12.1858 4.50882 11.6599C3.93939 11.134 3.48987 10.5242 3.16021 9.83238C2.82055 9.13956 2.68065 8.34078 2.74059 7.43401C2.80052 6.44527 3.07031 5.5545 3.54983 4.7627C4.02934 3.97191 4.63868 3.30007 5.37793 2.74821C6.12717 2.19635 6.95634 1.77946 7.87541 1.49853C8.78449 1.21761 9.70357 1.08665 10.6326 1.10764C11.6116 1.12864 12.5107 1.31659 13.3398 1.6705C14.159 2.02441 14.8584 2.50628 15.4478 3.11512C16.0372 3.72396 16.4968 4.44278 16.8164 5.27057C17.1361 6.09835 17.2859 7.00212 17.2559 7.98087H14.3788C14.3489 7.37702 14.2489 6.81216 14.0891 6.2863C13.9293 5.76043 13.6895 5.29956 13.3698 4.90366C13.0602 4.50776 12.6606 4.19284 12.1911 3.9589C11.7116 3.72396 11.1521 3.59699 10.4928 3.576C9.93332 3.566 9.37396 3.64599 8.82452 3.81794C8.27507 3.9899 7.77558 4.23983 7.32603 4.56775C6.87649 4.89566 6.50687 5.29656 6.20717 5.77044C5.90747 6.24432 5.73761 6.78318 5.66768 7.38703C5.60774 7.99187 5.69766 8.50673 5.92742 8.93362C6.15719 9.36051 6.47682 9.72841 6.87642 10.0353C7.286 10.3422 7.72553 10.6052 8.22503 10.8241C8.71453 11.0431 9.19411 11.235 9.66364 11.402C10.4329 11.6829 11.1921 12.0238 11.9414 12.4257C12.6806 12.8266 13.3399 13.3025 13.9093 13.8543C14.4888 14.4062 14.9383 15.044 15.268 15.7679C15.5876 16.4917 15.7275 17.3225 15.6576 18.2592C15.5876 19.2799 15.2979 20.1837 14.7985 20.9695C14.299 21.7563 13.6696 22.4121 12.9104 22.938C12.1511 23.4639 11.3019 23.8567 10.3729 24.1177C9.43383 24.3776 8.49483 24.4976 7.55578 24.4766C6.55679 24.4666 5.62768 24.2916 4.75856 23.9537C3.88944 23.6148 3.13018 23.1459 2.48084 22.5481C1.8315 21.9492 1.3221 21.2274 0.952478 20.3837C0.592842 19.5409 0.423004 18.6081 0.442984 17.5884H3.30008C3.33005 18.2442 3.44991 18.84 3.6597 19.3769C3.87948 19.9128 4.16919 20.3737 4.53882 20.7586C4.90844 21.1445 5.35795 21.4494 5.87743 21.6733C6.40689 21.8962 7.00632 22.0142 7.66566 22.0242C8.25506 22.0342 8.83447 21.9642 9.40389 21.8133C9.97331 21.6623 10.4927 21.4304 10.9622 21.1185C11.4318 20.8055 11.8214 20.4126 12.1311 19.9388C12.4408 19.4649 12.6406 18.916 12.7105 18.2912Z" fill="#DAE0E5" fill-opacity="0.7"/>
<path d="M19.5937 15.6668C19.6836 14.906 19.8534 14.1592 20.0832 13.4254C20.323 12.6906 20.6227 11.9978 20.9823 11.347C21.352 10.6961 21.7816 10.0973 22.2711 9.55141C22.7706 9.00455 23.32 8.53569 23.9294 8.14479C24.5388 7.75489 25.1981 7.45296 25.9274 7.23902C26.6467 7.02507 27.4258 6.9291 28.255 6.95009C29.4438 6.98108 30.4528 7.24402 31.292 7.73889C32.1311 8.23376 32.8103 8.87958 33.3198 9.67638C33.8293 10.4722 34.179 11.379 34.3688 12.3937C34.5586 13.4094 34.5986 14.4482 34.4887 15.5099L34.4587 15.8698C34.3088 17.0045 34.0092 18.0982 33.5397 19.1499C33.0802 20.2017 32.4807 21.1264 31.7415 21.9232C31.0022 22.719 30.1231 23.3518 29.1241 23.8207C28.1151 24.2896 27.0063 24.5076 25.7775 24.4766C24.5987 24.4456 23.5897 24.1876 22.7606 23.7038C21.9214 23.2189 21.2421 22.581 20.7326 21.7902C20.2231 20.9984 19.8735 20.1027 19.6737 19.103C19.4739 18.1032 19.434 17.0725 19.5438 16.0098L19.5937 15.6668ZM22.3709 16.0098C22.321 16.4476 22.3011 16.9005 22.3011 17.3694C22.3111 17.8383 22.351 18.2962 22.4309 18.744C22.5109 19.1919 22.6307 19.6188 22.7906 20.0247C22.9604 20.4306 23.1801 20.7875 23.4698 21.0944C23.7495 21.4024 24.0892 21.6493 24.4888 21.8372C24.8884 22.0242 25.3579 22.1282 25.8974 22.1492C26.7665 22.1802 27.5257 22.0082 28.195 21.6333C28.8643 21.2584 29.4338 20.7695 29.9034 20.1657C30.3829 19.5618 30.7525 18.882 31.0322 18.1272C31.3219 17.3714 31.5117 16.6196 31.6316 15.8698L31.6616 15.5259C31.7315 14.87 31.7514 14.1822 31.7015 13.4644C31.6515 12.7456 31.5017 12.0818 31.242 11.4719C30.9822 10.8631 30.6026 10.3582 30.1031 9.95731C29.6036 9.55641 28.9443 9.34048 28.1351 9.30849C27.256 9.2775 26.4867 9.45244 25.8274 9.83234C25.1581 10.2122 24.5887 10.7091 24.1192 11.324C23.6496 11.9388 23.28 12.6286 23.0003 13.3934C22.7206 14.1592 22.5208 14.917 22.4209 15.6668L22.3709 16.0098Z" fill="#DAE0E5" fill-opacity="0.7"/>
<path d="M44.9579 22.1474C45.4674 22.1574 45.9769 22.0874 46.4764 21.9364C46.9759 21.7855 47.4254 21.5665 47.835 21.2806C48.2546 20.9937 48.6043 20.6448 48.894 20.2339C49.1837 19.823 49.3835 19.3621 49.5034 18.8512L52.1706 18.8362C52.0807 19.7 51.801 20.4838 51.3315 21.1866C50.8619 21.8895 50.2825 22.4883 49.5932 22.9832C48.9039 23.478 48.1447 23.8579 47.3155 24.1239C46.4863 24.3888 45.6572 24.5118 44.838 24.4908C43.6492 24.4598 42.6402 24.2039 41.8111 23.725C40.9719 23.2461 40.3027 22.6183 39.7932 21.8425C39.2837 21.0667 38.934 20.1789 38.7442 19.1792C38.5644 18.1794 38.5145 17.1487 38.6243 16.0869L38.7042 15.4151C38.7941 14.6543 38.964 13.9155 39.2037 13.1967C39.4335 12.4779 39.7432 11.8011 40.1128 11.1662C40.4825 10.5304 40.9121 9.95053 41.4116 9.42467C41.9011 8.8978 42.4604 8.44793 43.0698 8.07303C43.6792 7.69813 44.3485 7.41119 45.0678 7.21424C45.7871 7.01629 46.5563 6.92733 47.3655 6.94832C48.2346 6.96931 49.0439 7.13527 49.7831 7.44819C50.5224 7.76011 51.1516 8.18501 51.6811 8.72087C52.2006 9.25773 52.6102 9.89756 52.8899 10.6424C53.1697 11.3872 53.2895 12.202 53.2496 13.0877L50.5922 13.0717C50.6122 12.5509 50.5523 12.067 50.4025 11.6191C50.2626 11.1712 50.0428 10.7783 49.7431 10.4394C49.4434 10.1015 49.0838 9.83258 48.6542 9.63464C48.2347 9.43769 47.7451 9.32771 47.2056 9.30672C46.3465 9.27573 45.5774 9.43467 44.918 9.78358C44.2587 10.1325 43.6992 10.5984 43.2297 11.1812C42.7601 11.7651 42.3805 12.4259 42.0908 13.1657C41.8111 13.9045 41.6113 14.6543 41.5114 15.4151L41.4314 16.071C41.3815 16.5188 41.3516 16.9767 41.3516 17.4456C41.3516 17.9145 41.3915 18.3694 41.4714 18.8123C41.5514 19.2551 41.6712 19.677 41.8411 20.0779C42.0009 20.4788 42.2307 20.8277 42.5104 21.1246C42.7901 21.4216 43.1298 21.6635 43.5294 21.8505C43.929 22.0384 44.4085 22.1374 44.9579 22.1474Z" fill="#DAE0E5" fill-opacity="0.7"/>
<path d="M59.773 7.26151H68.1744L65.677 21.6648H71.0315L70.572 24.1641H56.8359L57.2954 21.6648H62.8499L64.9077 9.77685H59.3334L59.773 7.26151ZM65.747 2.87263C65.757 2.37276 65.9268 1.95888 66.2365 1.63096C66.5461 1.30305 66.9557 1.12809 67.4552 1.1071C67.7049 1.0971 67.9248 1.13309 68.1346 1.21707C68.3344 1.30005 68.5141 1.41402 68.6639 1.55998C68.8138 1.70594 68.9238 1.8829 69.0037 2.09184C69.0836 2.29979 69.1236 2.52873 69.1236 2.77866C69.1236 3.27853 68.9636 3.68243 68.6539 3.98935C68.3442 4.29627 67.9347 4.46023 67.4352 4.48122C66.9457 4.50222 66.5461 4.36425 66.2265 4.06733C65.9068 3.77041 65.747 3.3725 65.747 2.87263Z" fill="#DAE0E5" fill-opacity="0.7"/>
<path d="M86.086 24.1629C86.0061 23.85 85.9662 23.543 85.9662 23.2411C85.9662 22.9392 85.9761 22.6313 86.0161 22.3194C85.2768 22.9752 84.4677 23.5011 83.5986 23.8969C82.7295 24.2928 81.7903 24.4798 80.7814 24.4598C80.0721 24.4488 79.4027 24.3288 78.7734 24.0999C78.144 23.871 77.6047 23.548 77.1351 23.1312C76.6756 22.7153 76.3159 22.2104 76.0562 21.6165C75.8064 21.0227 75.6966 20.3509 75.7365 19.6011C75.7865 18.8723 75.9263 18.2264 76.186 17.6646C76.4358 17.1017 76.7754 16.6098 77.175 16.1879C77.5846 15.7661 78.0542 15.4091 78.5836 15.1182C79.1131 14.8263 79.6725 14.5894 80.2719 14.4074C80.8713 14.2255 81.4907 14.0945 82.1301 14.0165C82.7694 13.9385 83.4087 13.8995 84.0281 13.8995L87.2449 13.9155L87.4447 12.5719C87.5146 12.041 87.4746 11.5721 87.3248 11.1662C87.1949 10.7593 86.9751 10.4164 86.6854 10.1345C86.3857 9.85359 86.0361 9.64064 85.6166 9.49467C85.197 9.34871 84.7274 9.27075 84.2179 9.25975C83.7684 9.24975 83.3288 9.29673 82.8992 9.4007C82.4696 9.50468 82.0701 9.66664 81.7105 9.88459C81.3508 10.1035 81.0411 10.3825 80.7814 10.7204C80.5216 11.0593 80.3419 11.4632 80.232 11.9311L77.4148 11.947C77.5047 11.0933 77.7845 10.3515 78.234 9.72063C78.6935 9.09079 79.2629 8.56792 79.9322 8.15103C80.6016 7.73413 81.3408 7.42522 82.14 7.22127C82.9392 7.01833 83.7285 6.92235 84.4977 6.93235C85.3468 6.95334 86.1459 7.08929 86.8852 7.33922C87.6244 7.58916 88.2538 7.95608 88.7833 8.43995C89.3027 8.92483 89.7024 9.51566 89.9721 10.2135C90.2518 10.9103 90.3318 11.7131 90.2419 12.6189L88.9331 20.4758C88.8332 21.0487 88.7833 21.6215 88.7833 22.1944C88.7733 22.7672 88.8433 23.3351 88.9731 23.8969L88.9431 24.1629H86.086ZM81.3308 21.9755C82.3298 21.9964 83.2589 21.7695 84.1181 21.2966C84.9872 20.8227 85.7064 20.1899 86.2958 19.3981L86.9052 15.962L84.4777 15.946C83.9083 15.946 83.2988 15.982 82.6495 16.055C82.0001 16.128 81.3808 16.2789 80.8114 16.5079C80.2419 16.7378 79.7525 17.0657 79.3429 17.4926C78.9433 17.9195 78.6935 18.4814 78.6136 19.1792C78.5637 19.6271 78.5936 20.0229 78.7035 20.3669C78.8234 20.7108 79.0032 20.9997 79.253 21.2336C79.5027 21.4676 79.8024 21.6475 80.162 21.7725C80.5116 21.8975 80.9013 21.9655 81.3308 21.9755Z" fill="#DAE0E5" fill-opacity="0.7"/>
<path d="M98.5336 0.169922H106.925L103.199 21.6643H108.554L108.094 24.1637H94.3579L94.8174 21.6643H100.372L103.668 2.68427H98.0741L98.5336 0.169922Z" fill="#DAE0E5" fill-opacity="0.7"/>
<path d="M138.424 1.41992L140.032 12.76L145.876 1.41992H149.432L145.496 24.164H142.749L144.348 14.9474L146.156 5.85577L140.082 17.8377H138.444L136.775 5.77779L135.357 15.2283L133.808 24.164H131.061L135.007 1.41992H138.424Z" fill="#DAE0E5" fill-opacity="0.7"/>
<path d="M157.644 24.4765C156.495 24.4555 155.486 24.2216 154.627 23.7737C153.758 23.3258 153.039 22.7319 152.479 21.9931C151.91 21.2533 151.51 20.3995 151.26 19.4308C151.021 18.463 150.951 17.4373 151.041 16.3536L151.121 15.6818C151.2 14.943 151.36 14.2111 151.6 13.4873C151.84 12.7635 152.15 12.0737 152.529 11.4179C152.909 10.761 153.348 10.1572 153.858 9.60534C154.357 9.05348 154.927 8.57759 155.546 8.17669C156.165 7.7748 156.835 7.46588 157.554 7.24694C158.283 7.028 159.042 6.92903 159.842 6.95002C161.01 6.98101 161.99 7.23394 162.789 7.70782C163.598 8.1817 164.227 8.80354 164.697 9.57434C165.166 10.3451 165.476 11.2219 165.636 12.2067C165.786 13.1904 165.796 14.2031 165.666 15.2449L165.466 16.5415H153.838C153.748 17.2284 153.778 17.9002 153.908 18.556C154.038 19.2129 154.267 19.8007 154.597 20.3216C154.937 20.8424 155.376 21.2643 155.926 21.5872C156.475 21.9091 157.134 22.0811 157.894 22.1021C158.873 22.1331 159.772 21.9411 160.601 21.5243C161.43 21.1074 162.179 20.5555 162.839 19.8687L164.467 21.2433C164.077 21.7842 163.628 22.261 163.118 22.6729C162.599 23.0838 162.039 23.4248 161.45 23.6957C160.861 23.9666 160.241 24.1666 159.592 24.2975C158.953 24.4275 158.293 24.4875 157.644 24.4765ZM159.702 9.32441C158.973 9.29341 158.313 9.41539 157.734 9.69132C157.154 9.96724 156.635 10.3341 156.185 10.793C155.726 11.2509 155.336 11.7768 155.007 12.3706C154.667 12.9645 154.397 13.5633 154.177 14.1671L162.979 14.1981L163.039 13.9172C163.138 13.3444 163.128 12.7865 163.029 12.2456C162.929 11.7038 162.729 11.2199 162.439 10.793C162.139 10.3661 161.77 10.0192 161.31 9.75429C160.851 9.48836 160.311 9.3454 159.702 9.32441Z" fill="#DAE0E5" fill-opacity="0.7"/>
<path d="M169.941 15.6809C170.021 14.9831 170.171 14.2803 170.361 13.5724C170.561 12.8646 170.82 12.1818 171.13 11.526C171.44 10.8701 171.809 10.2603 172.239 9.69845C172.679 9.13559 173.168 8.64672 173.707 8.22983C174.257 7.81394 174.866 7.49103 175.546 7.26109C176.225 7.03215 176.964 6.92816 177.763 6.94916C178.603 6.97015 179.392 7.13611 180.121 7.44903C180.85 7.76095 181.48 8.26082 182.009 8.94864L183.628 0.169922H186.455L182.289 24.1637H179.731L180.021 22.3822C179.372 23.08 178.643 23.6089 177.833 23.9678C177.024 24.3277 176.135 24.4966 175.176 24.4756C174.447 24.4546 173.797 24.3167 173.228 24.0617C172.659 23.8068 172.169 23.4659 171.76 23.039C171.35 22.6121 171.01 22.1192 170.741 21.5624C170.481 21.0055 170.271 20.4167 170.131 19.7978C169.981 19.178 169.891 18.5452 169.861 17.8993C169.831 17.2535 169.851 16.6237 169.911 16.0088L169.941 15.6809ZM172.719 16.0088C172.669 16.4257 172.639 16.8636 172.639 17.3215C172.639 17.7794 172.679 18.2302 172.739 18.6731C172.808 19.115 172.918 19.5339 173.068 19.9298C173.208 20.3257 173.418 20.6776 173.677 20.9845C173.937 21.2914 174.257 21.5394 174.637 21.7263C175.026 21.9143 175.486 22.0133 176.015 22.0233C176.944 22.0543 177.753 21.8413 178.443 21.3824C179.132 20.9246 179.741 20.3367 180.261 19.6179L181.62 11.7289C181.32 11.0101 180.89 10.4453 180.331 10.0344C179.771 9.62246 179.092 9.40653 178.293 9.38554C177.424 9.35455 176.665 9.52649 176.015 9.9014C175.366 10.2763 174.826 10.7682 174.377 11.378C173.927 11.9868 173.568 12.6687 173.308 13.4245C173.038 14.1793 172.858 14.9311 172.769 15.6809L172.719 16.0088Z" fill="#DAE0E5" fill-opacity="0.7"/>
<path d="M191.11 7.26151H199.501L197.004 21.6648H202.359L201.909 24.1641H188.173L188.622 21.6648H194.187L196.245 9.77685H190.67L191.11 7.26151ZM197.084 2.87263C197.094 2.37276 197.254 1.95888 197.573 1.63096C197.883 1.30305 198.293 1.12809 198.792 1.1071C199.042 1.0971 199.262 1.13309 199.461 1.21707C199.671 1.30005 199.851 1.41402 200.001 1.55998C200.151 1.70594 200.261 1.8829 200.341 2.09184C200.421 2.29979 200.46 2.52873 200.46 2.77866C200.46 3.27853 200.301 3.68243 199.991 3.98935C199.681 4.29627 199.272 4.46023 198.772 4.48122C198.283 4.50222 197.883 4.36425 197.563 4.06733C197.244 3.77041 197.084 3.3725 197.084 2.87263Z" fill="#DAE0E5" fill-opacity="0.7"/>
<path d="M217.423 24.1629C217.344 23.85 217.304 23.543 217.304 23.2411C217.304 22.9392 217.314 22.6313 217.344 22.3194C216.604 22.9752 215.805 23.5011 214.936 23.8969C214.067 24.2928 213.128 24.4798 212.119 24.4598C211.41 24.4488 210.74 24.3288 210.111 24.0999C209.482 23.871 208.932 23.548 208.473 23.1312C208.013 22.7153 207.653 22.2104 207.394 21.6165C207.144 21.0227 207.034 20.3509 207.074 19.6011C207.114 18.8723 207.264 18.2264 207.523 17.6646C207.773 17.1017 208.103 16.6098 208.512 16.1879C208.922 15.7661 209.392 15.4091 209.921 15.1182C210.45 14.8263 211.01 14.5894 211.609 14.4074C212.209 14.2255 212.828 14.0945 213.467 14.0165C214.107 13.9385 214.736 13.8995 215.366 13.8995L218.582 13.9155L218.782 12.5719C218.842 12.041 218.812 11.5721 218.662 11.1662C218.522 10.7593 218.313 10.4164 218.023 10.1345C217.723 9.85359 217.374 9.64064 216.944 9.49467C216.524 9.34871 216.065 9.27075 215.555 9.25975C215.106 9.24975 214.666 9.29673 214.237 9.4007C213.797 9.50468 213.408 9.66664 213.048 9.88459C212.688 10.1035 212.379 10.3825 212.119 10.7204C211.859 11.0593 211.679 11.4632 211.569 11.9311L208.742 11.947C208.842 11.0933 209.112 10.3515 209.571 9.72063C210.031 9.09079 210.6 8.56792 211.27 8.15103C211.939 7.73413 212.678 7.42522 213.477 7.22127C214.277 7.01833 215.066 6.92235 215.835 6.93235C216.684 6.95334 217.483 7.08929 218.223 7.33922C218.962 7.58916 219.591 7.95608 220.121 8.43995C220.64 8.92483 221.04 9.51566 221.31 10.2135C221.579 10.9103 221.669 11.7131 221.579 12.6189L220.271 20.4758C220.171 21.0487 220.121 21.6215 220.121 22.1944C220.111 22.7672 220.181 23.3351 220.311 23.8969L220.281 24.1629H217.423ZM212.668 21.9755C213.667 21.9964 214.596 21.7695 215.455 21.2966C216.325 20.8227 217.044 20.1899 217.633 19.3981L218.233 15.962L215.815 15.946C215.246 15.946 214.636 15.982 213.987 16.055C213.338 16.128 212.718 16.2789 212.149 16.5079C211.579 16.7378 211.09 17.0657 210.68 17.4926C210.281 17.9195 210.031 18.4814 209.951 19.1792C209.901 19.6271 209.931 20.0229 210.041 20.3669C210.161 20.7108 210.341 20.9997 210.59 21.2336C210.84 21.4676 211.14 21.6475 211.49 21.7725C211.849 21.8975 212.239 21.9655 212.668 21.9755Z" fill="#DAE0E5" fill-opacity="0.7"/>
<path d="M255.625 18.2746H248.302L245.495 24.164H242.558L253.627 1.41992H255.994L259.041 24.164H256.344L255.625 18.2746ZM249.471 15.7592H255.325L254.136 5.91874L249.471 15.7592Z" fill="#DAE0E5" fill-opacity="0.7"/>
<path d="M270.11 22.1474C270.619 22.1574 271.119 22.0874 271.618 21.9364C272.118 21.7855 272.578 21.5665 272.987 21.2806C273.397 20.9937 273.746 20.6448 274.036 20.2339C274.336 19.823 274.536 19.3621 274.645 18.8512L277.323 18.8362C277.223 19.7 276.943 20.4838 276.474 21.1866C276.004 21.8895 275.425 22.4883 274.745 22.9832C274.056 23.478 273.297 23.8579 272.468 24.1239C271.628 24.3888 270.799 24.5118 269.98 24.4908C268.791 24.4598 267.782 24.2039 266.953 23.725C266.124 23.2461 265.445 22.6183 264.935 21.8425C264.426 21.0667 264.086 20.1789 263.896 19.1792C263.707 18.1794 263.667 17.1487 263.766 16.0869L263.846 15.4151C263.936 14.6543 264.106 13.9155 264.346 13.1967C264.586 12.4779 264.885 11.8011 265.265 11.1662C265.625 10.5304 266.064 9.95053 266.554 9.42467C267.053 8.8978 267.603 8.44793 268.222 8.07303C268.831 7.69813 269.501 7.41119 270.22 7.21424C270.929 7.01629 271.698 6.92733 272.508 6.94832C273.387 6.96931 274.186 7.13527 274.925 7.44819C275.664 7.76011 276.304 8.18501 276.823 8.72087C277.353 9.25773 277.752 9.89756 278.032 10.6424C278.322 11.3872 278.432 12.202 278.392 13.0877L275.744 13.0717C275.764 12.5509 275.694 12.067 275.555 11.6191C275.405 11.1712 275.185 10.7783 274.885 10.4394C274.595 10.1015 274.236 9.83258 273.806 9.63464C273.377 9.43769 272.897 9.32771 272.358 9.30672C271.489 9.27573 270.729 9.43467 270.07 9.78358C269.411 10.1325 268.841 10.5984 268.372 11.1812C267.902 11.7651 267.533 12.4259 267.243 13.1657C266.953 13.9045 266.763 14.6543 266.654 15.4151L266.584 16.071C266.524 16.5188 266.504 16.9767 266.504 17.4456C266.504 17.9145 266.544 18.3694 266.614 18.8123C266.693 19.2551 266.823 19.677 266.983 20.0779C267.153 20.4788 267.373 20.8277 267.653 21.1246C267.932 21.4216 268.282 21.6635 268.682 21.8505C269.081 22.0384 269.551 22.1374 270.11 22.1474Z" fill="#DAE0E5" fill-opacity="0.7"/>
<path d="M291.848 3.16992L291.129 7.26187H297.373L296.983 9.49627H290.739L289.211 18.6969C289.161 19.1548 289.161 19.5817 289.221 19.9776C289.281 20.3735 289.391 20.7174 289.57 21.0083C289.75 21.3002 290 21.5342 290.33 21.7121C290.659 21.8891 291.069 21.982 291.568 21.993C292.138 22.014 292.707 21.972 293.277 21.8681C293.846 21.7641 294.406 21.6491 294.975 21.5242L295.235 23.6016C294.585 23.9665 293.856 24.2055 293.057 24.3204C292.248 24.4354 291.478 24.4814 290.739 24.4614C289.9 24.4504 289.181 24.2865 288.601 23.9685C288.022 23.6516 287.552 23.2297 287.203 22.7039C286.843 22.178 286.603 21.5681 286.474 20.8763C286.344 20.1835 286.314 19.4517 286.384 18.6809L287.912 9.49627H283.606L283.996 7.26187H288.292L289.011 3.16992H291.848Z" fill="#DAE0E5" fill-opacity="0.7"/>
<path d="M303.686 7.26151H312.078L309.58 21.6648H314.935L314.485 24.1641H300.749L301.199 21.6648H306.753L308.821 9.77685H303.246L303.686 7.26151ZM309.66 2.87263C309.67 2.37276 309.83 1.95888 310.14 1.63096C310.459 1.30305 310.859 1.12809 311.358 1.1071C311.608 1.0971 311.838 1.13309 312.038 1.21707C312.247 1.30005 312.417 1.41402 312.567 1.55998C312.727 1.70594 312.837 1.8829 312.917 2.09184C312.997 2.29979 313.037 2.52873 313.037 2.77866C313.037 3.27853 312.877 3.68243 312.567 3.98935C312.247 4.29627 311.848 4.46023 311.348 4.48122C310.859 4.50222 310.449 4.36425 310.14 4.06733C309.82 3.77041 309.66 3.3725 309.66 2.87263Z" fill="#DAE0E5" fill-opacity="0.7"/>
<path d="M326.253 20.0078L326.333 21.0705L326.783 19.9928L333.366 7.2611H336.363L327.032 24.1637H324.875L320.789 7.2611L323.506 7.24609L326.253 20.0078Z" fill="#DAE0E5" fill-opacity="0.7"/>
<path d="M341.208 7.26151H349.6L347.102 21.6648H352.457L352.007 24.1641H338.271L338.721 21.6648H344.285L346.343 9.77685H340.768L341.208 7.26151ZM347.182 2.87263C347.192 2.37276 347.352 1.95888 347.672 1.63096C347.981 1.30305 348.391 1.12809 348.89 1.1071C349.14 1.0971 349.36 1.13309 349.56 1.21707C349.769 1.30005 349.949 1.41402 350.099 1.55998C350.249 1.70594 350.359 1.8829 350.439 2.09184C350.519 2.29979 350.559 2.52873 350.559 2.77866C350.559 3.27853 350.399 3.68243 350.089 3.98935C349.779 4.29627 349.37 4.46023 348.87 4.48122C348.381 4.50222 347.981 4.36425 347.662 4.06733C347.342 3.77041 347.182 3.3725 347.182 2.87263Z" fill="#DAE0E5" fill-opacity="0.7"/>
<path d="M366.902 3.16992L366.183 7.26187H372.427L372.037 9.49627H365.793L364.265 18.6969C364.205 19.1548 364.215 19.5817 364.265 19.9776C364.325 20.3735 364.445 20.7174 364.625 21.0083C364.794 21.3002 365.044 21.5342 365.374 21.7121C365.703 21.8891 366.123 21.982 366.623 21.993C367.192 22.014 367.761 21.972 368.331 21.8681C368.89 21.7641 369.46 21.6491 370.019 21.5242L370.289 23.6016C369.63 23.9665 368.9 24.2055 368.101 24.3204C367.302 24.4354 366.533 24.4814 365.793 24.4614C364.944 24.4504 364.235 24.2865 363.656 23.9685C363.066 23.6516 362.597 23.2297 362.247 22.7039C361.897 22.178 361.648 21.5681 361.518 20.8763C361.388 20.1835 361.358 19.4517 361.438 18.6809L362.966 9.49627H358.661L359.05 7.26187H363.336L364.055 3.16992H366.902Z" fill="#DAE0E5" fill-opacity="0.7"/>
<path d="M382.417 18.3059L382.746 20.1804L389.989 7.26172H393.276L381.607 26.7886C381.288 27.3295 380.938 27.8554 380.539 28.3662C380.149 28.8761 379.709 29.332 379.22 29.7329C378.74 30.1338 378.211 30.4517 377.632 30.6856C377.052 30.9206 376.423 31.0375 375.753 31.0375C375.444 31.0375 375.144 31.0086 374.834 30.9516C374.535 30.8936 374.225 30.8396 373.925 30.7876L374.565 28.3972C374.794 28.4182 375.024 28.4442 375.254 28.4752C375.484 28.5062 375.703 28.5222 375.923 28.5222C376.323 28.5122 376.702 28.4132 377.042 28.2253C377.392 28.0383 377.701 27.8034 377.981 27.5225C378.261 27.2415 378.521 26.9316 378.75 26.5927C378.98 26.2548 379.19 25.9349 379.39 25.632L380.998 23.1956L376.762 7.26172H379.779L382.417 18.3059Z" fill="#DAE0E5" fill-opacity="0.7"/>
</svg>
