<svg width="317" height="25" viewBox="0 0 317 25" fill="none" xmlns="http://www.w3.org/2000/svg">
<path d="M7.81395 1.67773L9.41243 13.0178L15.2565 1.67773H18.8128L14.8769 24.4218H12.1297L13.728 15.2052L15.5362 6.11358L9.46231 18.0955H7.82395L6.15572 6.0356L4.73711 15.4862L3.18863 24.4218H0.441406L4.38749 1.67773H7.81395Z" fill="#DAE0E5" fill-opacity="0.7"/>
<path d="M27.0247 24.7343C25.8759 24.7133 24.8768 24.4794 24.0077 24.0315C23.1386 23.5836 22.4193 22.9897 21.8599 22.2509C21.3004 21.5111 20.8909 20.6574 20.6511 19.6886C20.4014 18.7209 20.3314 17.6951 20.4213 16.6114L20.5013 15.9396C20.5812 15.2008 20.741 14.469 20.9808 13.7451C21.2205 13.0213 21.5303 12.3315 21.9099 11.6757C22.2895 11.0188 22.739 10.415 23.2385 9.86315C23.748 9.3113 24.3073 8.8354 24.9267 8.43451C25.5461 8.03261 26.2154 7.7237 26.9347 7.50475C27.664 7.28581 28.4232 7.18684 29.2224 7.20783C30.3912 7.23883 31.3702 7.49176 32.1794 7.96563C32.9786 8.43951 33.608 9.06135 34.0775 9.83215C34.547 10.603 34.8568 11.4797 35.0166 12.4645C35.1764 13.4482 35.1863 14.461 35.0465 15.5027L34.8467 16.7993H23.2185C23.1286 17.4862 23.1586 18.158 23.2885 18.8138C23.4184 19.4707 23.6481 20.0585 23.9777 20.5794C24.3174 21.1002 24.7569 21.5221 25.3063 21.845C25.8558 22.167 26.5152 22.3389 27.2744 22.3599C28.2535 22.3909 29.1525 22.199 29.9817 21.7821C30.8108 21.3652 31.5601 20.8133 32.2194 20.1265L33.8477 21.5011C33.4581 22.042 33.0086 22.5189 32.4991 22.9308C31.9797 23.3416 31.4302 23.6826 30.8308 23.9535C30.2414 24.2244 29.622 24.4244 28.9727 24.5553C28.3333 24.6853 27.684 24.7453 27.0247 24.7343ZM29.0825 9.58222C28.3533 9.55123 27.704 9.6732 27.1146 9.94913C26.5352 10.2251 26.0156 10.592 25.5661 11.0508C25.1066 11.5087 24.717 12.0346 24.3873 12.6284C24.0577 13.2223 23.7779 13.8211 23.5581 14.425L32.3593 14.456L32.4291 14.175C32.519 13.6022 32.509 13.0443 32.4091 12.5035C32.3092 11.9616 32.1095 11.4777 31.8198 11.0508C31.5301 10.6239 31.1504 10.277 30.6909 10.0121C30.2314 9.74617 29.7019 9.60321 29.0825 9.58222Z" fill="#DAE0E5" fill-opacity="0.7"/>
<path d="M39.3222 15.9387C39.4021 15.2409 39.552 14.5381 39.7418 13.8303C39.9416 13.1224 40.2014 12.4396 40.511 11.7838C40.8207 11.128 41.1903 10.5181 41.6299 9.95626C42.0595 9.3934 42.5489 8.90454 43.0884 8.48764C43.6378 8.07175 44.2472 7.74884 44.9265 7.5189C45.6058 7.28996 46.345 7.18598 47.1442 7.20697C47.9834 7.22796 48.7727 7.39392 49.5019 7.70684C50.2312 8.01876 50.8605 8.51863 51.3899 9.20645L53.0183 0.427734H55.8355L51.6697 24.4215H49.1123L49.4119 22.64C48.7526 23.3378 48.0234 23.8667 47.2142 24.2256C46.405 24.5855 45.5259 24.7544 44.5569 24.7334C43.8276 24.7124 43.1783 24.5745 42.6089 24.3195C42.0395 24.0646 41.55 23.7237 41.1404 23.2968C40.7308 22.8699 40.3912 22.377 40.1314 21.8202C39.8617 21.2633 39.6519 20.6745 39.512 20.0556C39.3622 19.4358 39.2823 18.803 39.2423 18.1571C39.2123 17.5113 39.2322 16.8815 39.2922 16.2666L39.3222 15.9387ZM42.0994 16.2666C42.0494 16.6835 42.0294 17.1214 42.0294 17.5793C42.0294 18.0372 42.0595 18.488 42.1294 18.9309C42.1893 19.3728 42.2992 19.7917 42.449 20.1876C42.5889 20.5835 42.7986 20.9354 43.0584 21.2423C43.3181 21.5493 43.6378 21.7972 44.0274 21.9841C44.407 22.1721 44.8665 22.2711 45.396 22.2811C46.325 22.3121 47.1343 22.0991 47.8236 21.6402C48.5129 21.1824 49.1222 20.5945 49.6417 19.8757L51.0004 11.9867C50.7007 11.2679 50.2711 10.7031 49.7117 10.2922C49.1523 9.88028 48.4729 9.66435 47.6737 9.64335C46.8046 9.61236 46.0453 9.78431 45.396 10.1592C44.7466 10.5341 44.2073 11.026 43.7578 11.6358C43.3082 12.2447 42.9585 12.9265 42.6888 13.6823C42.419 14.4371 42.2392 15.1889 42.1493 15.9387L42.0994 16.2666Z" fill="#DAE0E5" fill-opacity="0.7"/>
<path d="M60.4908 7.51932H68.8922L66.3947 21.9226H71.7493L71.2898 24.4219H57.5537L58.0132 21.9226H63.5676L65.6255 10.0347H60.0512L60.4908 7.51932ZM66.4647 3.13044C66.4747 2.63057 66.6445 2.21669 66.9542 1.88878C67.2639 1.56086 67.6735 1.3859 68.173 1.36491C68.4227 1.35491 68.6426 1.3909 68.8523 1.47488C69.0521 1.55786 69.2319 1.67183 69.3817 1.81779C69.5316 1.96376 69.6415 2.14071 69.7215 2.34965C69.8014 2.5576 69.8413 2.78654 69.8413 3.03647C69.8413 3.53634 69.6814 3.94024 69.3717 4.24716C69.062 4.55408 68.6525 4.71804 68.153 4.73904C67.6635 4.76003 67.2639 4.62206 66.9442 4.32514C66.6246 4.02822 66.4647 3.63031 66.4647 3.13044Z" fill="#DAE0E5" fill-opacity="0.7"/>
<path d="M86.8038 24.4207C86.7239 24.1078 86.6839 23.8008 86.6839 23.4989C86.6839 23.197 86.6939 22.8891 86.7338 22.5772C85.9946 23.233 85.1855 23.7589 84.3163 24.1548C83.4472 24.5507 82.5081 24.7376 81.4991 24.7176C80.7898 24.7066 80.1205 24.5867 79.4912 24.3577C78.8618 24.1288 78.3224 23.8059 77.8529 23.389C77.3934 22.9731 77.0337 22.4682 76.7739 21.8743C76.5242 21.2805 76.4143 20.6087 76.4543 19.8589C76.5043 19.1301 76.6441 18.4842 76.9038 17.9224C77.1536 17.3595 77.4932 16.8677 77.8928 16.4458C78.3024 16.0239 78.7719 15.667 79.3014 15.376C79.8309 15.0841 80.3902 14.8472 80.9896 14.6652C81.589 14.4833 82.2085 14.3523 82.8479 14.2743C83.4872 14.1963 84.1265 14.1574 84.7458 14.1574L87.9627 14.1733L88.1624 12.8297C88.2324 12.2988 88.1924 11.8299 88.0426 11.424C87.9127 11.0172 87.6929 10.6743 87.4032 10.3923C87.1035 10.1114 86.7539 9.89845 86.3343 9.75249C85.9148 9.60652 85.4452 9.52856 84.9357 9.51756C84.4862 9.50756 84.0465 9.55454 83.617 9.65852C83.1874 9.76249 82.7879 9.92446 82.4282 10.1424C82.0686 10.3613 81.7589 10.6403 81.4991 10.9782C81.2394 11.3171 81.0596 11.721 80.9498 12.1889L78.1325 12.2049C78.2225 11.3511 78.5022 10.6093 78.9518 9.97844C79.4113 9.3486 79.9807 8.82573 80.65 8.40884C81.3193 7.99195 82.0585 7.68303 82.8577 7.47909C83.6569 7.27614 84.4462 7.18016 85.2155 7.19016C86.0646 7.21115 86.8637 7.3471 87.6029 7.59704C88.3422 7.84697 88.9716 8.21389 89.501 8.69777C90.0205 9.18264 90.4202 9.77347 90.6899 10.4713C90.9696 11.1681 91.0496 11.9709 90.9597 12.8767L89.6509 20.7337C89.551 21.3065 89.501 21.8793 89.501 22.4522C89.4911 23.0251 89.561 23.5929 89.6909 24.1548L89.6609 24.4207H86.8038ZM82.0486 22.2333C83.0476 22.2543 83.9767 22.0273 84.8358 21.5544C85.705 21.0805 86.4242 20.4477 87.0136 19.6559L87.6229 16.2198L85.1955 16.2038C84.626 16.2038 84.0166 16.2398 83.3672 16.3128C82.7179 16.3858 82.0986 16.5367 81.5291 16.7657C80.9597 16.9956 80.4702 17.3235 80.0606 17.7504C79.661 18.1773 79.4113 18.7392 79.3314 19.437C79.2815 19.8849 79.3114 20.2808 79.4213 20.6247C79.5412 20.9686 79.721 21.2575 79.9708 21.4915C80.2205 21.7254 80.5201 21.9053 80.8798 22.0303C81.2294 22.1553 81.6191 22.2233 82.0486 22.2333Z" fill="#DAE0E5" fill-opacity="0.7"/>
<path d="M122.398 15.1423H117.933L116.324 24.4218H113.517L117.463 1.67773L123.757 1.69273C124.746 1.72472 125.655 1.89567 126.484 2.20859C127.313 2.52051 128.022 2.9614 128.612 3.52825C129.191 4.09611 129.631 4.78893 129.931 5.60572C130.22 6.42351 130.33 7.34825 130.25 8.37899C130.19 9.15979 130.01 9.8676 129.721 10.5034C129.431 11.1383 129.051 11.7111 128.582 12.222C128.122 12.7319 127.593 13.1798 126.993 13.5647C126.394 13.9506 125.755 14.2835 125.065 14.5644L128.112 24.2189L128.082 24.4218H125.095L122.398 15.1423ZM118.342 12.7679L121.929 12.7998C122.598 12.7998 123.237 12.6979 123.867 12.4949C124.486 12.292 125.045 12.0001 125.545 11.6202C126.034 11.2403 126.454 10.7744 126.784 10.2225C127.113 9.66965 127.323 9.04481 127.403 8.34799C127.483 7.71215 127.443 7.13731 127.303 6.62145C127.163 6.10558 126.933 5.66369 126.604 5.29379C126.274 4.92388 125.865 4.63495 125.375 4.42701C124.876 4.21806 124.316 4.09911 123.697 4.06712L119.851 4.0521L118.342 12.7679Z" fill="#DAE0E5" fill-opacity="0.7"/>
<path d="M135.535 7.51932H143.936L141.439 21.9226H146.794L146.344 24.4219H132.608L133.057 21.9226H138.612L140.68 10.0347H135.105L135.535 7.51932ZM141.519 3.13044C141.529 2.63057 141.689 2.21669 141.998 1.88878C142.318 1.56086 142.718 1.3859 143.217 1.36491C143.467 1.35491 143.697 1.3909 143.897 1.47488C144.106 1.55786 144.276 1.67183 144.426 1.81779C144.576 1.96376 144.696 2.14071 144.776 2.34965C144.856 2.5576 144.886 2.78654 144.886 3.03647C144.886 3.53634 144.736 3.94024 144.426 4.24716C144.106 4.55408 143.707 4.71804 143.207 4.73904C142.718 4.76003 142.308 4.62206 141.988 4.32514C141.679 4.02822 141.519 3.63031 141.519 3.13044Z" fill="#DAE0E5" fill-opacity="0.7"/>
<path d="M158.252 22.4052C158.761 22.4152 159.261 22.3452 159.76 22.1943C160.26 22.0433 160.719 21.8243 161.129 21.5384C161.538 21.2515 161.898 20.9026 162.188 20.4917C162.477 20.0808 162.677 19.6199 162.797 19.1091L165.464 19.094C165.364 19.9578 165.085 20.7416 164.615 21.4444C164.156 22.1473 163.576 22.7461 162.887 23.241C162.198 23.7359 161.438 24.1157 160.609 24.3817C159.77 24.6466 158.951 24.7696 158.122 24.7486C156.943 24.7176 155.934 24.4617 155.095 23.9828C154.266 23.5039 153.596 22.8761 153.087 22.1003C152.577 21.3245 152.228 20.4367 152.038 19.437C151.848 18.4372 151.808 17.4065 151.918 16.3448L151.988 15.6729C152.088 14.9121 152.248 14.1733 152.487 13.4545C152.727 12.7357 153.037 12.0589 153.406 11.424C153.776 10.7882 154.206 10.2083 154.695 9.68248C155.195 9.15562 155.744 8.70574 156.363 8.33084C156.973 7.95594 157.642 7.669 158.361 7.47205C159.081 7.27411 159.84 7.18514 160.659 7.20613C161.528 7.22713 162.337 7.39308 163.077 7.706C163.816 8.01792 164.445 8.44282 164.965 8.97868C165.494 9.51554 165.904 10.1554 166.183 10.9002C166.463 11.645 166.583 12.4598 166.543 13.3455L163.886 13.3295C163.906 12.8087 163.846 12.3248 163.696 11.8769C163.556 11.429 163.336 11.0361 163.037 10.6972C162.737 10.3593 162.377 10.0904 161.948 9.89245C161.518 9.6955 161.039 9.58552 160.499 9.56453C159.63 9.53354 158.871 9.69249 158.212 10.0414C157.552 10.3903 156.983 10.8562 156.513 11.439C156.054 12.0229 155.674 12.6837 155.384 13.4235C155.105 14.1623 154.905 14.9121 154.805 15.6729L154.725 16.3288C154.675 16.7767 154.645 17.2345 154.645 17.7034C154.645 18.1723 154.685 18.6272 154.765 19.0701C154.845 19.5129 154.965 19.9348 155.125 20.3357C155.295 20.7366 155.514 21.0855 155.804 21.3825C156.084 21.6794 156.423 21.9213 156.823 22.1083C157.223 22.2962 157.702 22.3952 158.252 22.4052Z" fill="#DAE0E5" fill-opacity="0.7"/>
<path d="M174.875 10.0502C175.215 9.63334 175.595 9.24845 175.994 8.89355C176.394 8.53964 176.823 8.23771 177.273 7.98777C177.722 7.73784 178.202 7.54289 178.701 7.40193C179.211 7.26196 179.74 7.19697 180.31 7.20697C181.259 7.22796 182.068 7.41992 182.707 7.78482C183.357 8.14973 183.866 8.63361 184.236 9.23745C184.615 9.84129 184.865 10.5371 184.985 11.3229C185.115 12.1097 185.135 12.9295 185.035 13.7833L183.257 24.4215H180.43L182.228 13.7363C182.288 13.1844 182.288 12.6665 182.228 12.1827C182.168 11.6978 182.018 11.2709 181.788 10.901C181.558 10.5311 181.249 10.2402 180.849 10.0262C180.45 9.8133 179.94 9.69632 179.321 9.67533C178.841 9.66433 178.392 9.71932 177.952 9.83928C177.523 9.95925 177.113 10.1302 176.723 10.3542C176.334 10.5781 175.964 10.841 175.614 11.143C175.265 11.4459 174.945 11.7738 174.655 12.1277L172.518 24.4215H169.69L173.856 0.427734H176.683L174.875 10.0502Z" fill="#DAE0E5" fill-opacity="0.7"/>
<path d="M219.81 18.549C219.89 17.9132 219.81 17.3693 219.58 16.9164C219.35 16.4635 219.04 16.0726 218.631 15.7447C218.231 15.4168 217.782 15.1379 217.262 14.9089C216.743 14.68 216.243 14.4721 215.754 14.2841C215.015 14.0032 214.285 13.6693 213.556 13.2844C212.827 12.8995 212.177 12.4436 211.608 11.9177C211.049 11.3919 210.599 10.782 210.259 10.0902C209.93 9.39737 209.79 8.59859 209.84 7.69182C209.9 6.70308 210.169 5.81231 210.649 5.02052C211.128 4.22972 211.738 3.55788 212.487 3.00602C213.226 2.45417 214.055 2.03727 214.975 1.75635C215.894 1.47542 216.813 1.34446 217.742 1.36546C218.711 1.38645 219.62 1.57441 220.439 1.92832C221.258 2.28222 221.968 2.76409 222.557 3.37293C223.136 3.98178 223.596 4.7006 223.916 5.52838C224.245 6.35617 224.385 7.25993 224.355 8.23868H221.488C221.448 7.63483 221.358 7.06997 221.198 6.54411C221.038 6.01825 220.799 5.55737 220.479 5.16147C220.159 4.76557 219.76 4.45065 219.29 4.21671C218.821 3.98177 218.251 3.85481 217.602 3.83381C217.032 3.82382 216.473 3.9038 215.924 4.07575C215.374 4.24771 214.875 4.49765 214.425 4.82556C213.976 5.15348 213.606 5.55437 213.316 6.02825C213.017 6.50213 212.837 7.04099 212.777 7.64484C212.707 8.24968 212.797 8.76454 213.037 9.19143C213.266 9.61832 213.586 9.98622 213.986 10.2931C214.385 10.6001 214.835 10.863 215.324 11.0819C215.824 11.3009 216.303 11.4928 216.773 11.6598C217.542 11.9407 218.301 12.2816 219.04 12.6835C219.79 13.0844 220.439 13.5603 221.018 14.1122C221.588 14.664 222.037 15.3019 222.367 16.0257C222.697 16.7495 222.827 17.5803 222.767 18.517C222.687 19.5378 222.407 20.4415 221.908 21.2273C221.408 22.0141 220.779 22.6699 220.019 23.1958C219.26 23.7217 218.411 24.1146 217.472 24.3755C216.533 24.6354 215.604 24.7554 214.665 24.7344C213.666 24.7244 212.727 24.5494 211.858 24.2115C210.989 23.8726 210.229 23.4037 209.58 22.8059C208.931 22.207 208.421 21.4853 208.062 20.6415C207.692 19.7987 207.522 18.8659 207.542 17.8462H210.399C210.429 18.502 210.559 19.0979 210.769 19.6347C210.979 20.1706 211.268 20.6315 211.638 21.0164C212.008 21.4023 212.457 21.7072 212.987 21.9311C213.506 22.1541 214.105 22.272 214.775 22.282C215.354 22.292 215.934 22.2221 216.503 22.0711C217.072 21.9201 217.602 21.6882 218.061 21.3763C218.531 21.0633 218.921 20.6705 219.24 20.1966C219.55 19.7227 219.74 19.1738 219.81 18.549Z" fill="#DAE0E5" fill-opacity="0.7"/>
<path d="M233.406 24.7343C232.267 24.7133 231.258 24.4794 230.389 24.0315C229.52 23.5836 228.8 22.9897 228.241 22.2509C227.682 21.5111 227.282 20.6574 227.032 19.6886C226.792 18.7209 226.713 17.6951 226.802 16.6114L226.882 15.9396C226.962 15.2008 227.132 14.469 227.372 13.7451C227.612 13.0213 227.921 12.3315 228.301 11.6757C228.681 11.0188 229.12 10.415 229.62 9.86315C230.129 9.3113 230.689 8.8354 231.308 8.43451C231.927 8.03261 232.597 7.7237 233.326 7.50475C234.045 7.28581 234.804 7.18684 235.614 7.20783C236.772 7.23883 237.761 7.49176 238.561 7.96563C239.36 8.43951 239.999 9.06135 240.469 9.83215C240.928 10.603 241.248 11.4797 241.398 12.4645C241.558 13.4482 241.568 14.461 241.428 15.5027L241.228 16.7993H229.6C229.52 17.4862 229.54 18.158 229.67 18.8138C229.799 19.4707 230.029 20.0585 230.369 20.5794C230.698 21.1002 231.138 21.5221 231.688 21.845C232.247 22.167 232.896 22.3389 233.656 22.3599C234.635 22.3909 235.544 22.199 236.363 21.7821C237.192 21.3652 237.941 20.8133 238.61 20.1265L240.229 21.5011C239.849 22.042 239.39 22.5189 238.88 22.9308C238.361 23.3416 237.811 23.6826 237.222 23.9535C236.622 24.2244 236.003 24.4244 235.364 24.5553C234.714 24.6853 234.065 24.7453 233.406 24.7343ZM235.474 9.58222C234.744 9.55123 234.085 9.6732 233.506 9.94913C232.916 10.2251 232.397 10.592 231.947 11.0508C231.498 11.5087 231.108 12.0346 230.768 12.6284C230.439 13.2223 230.159 13.8211 229.939 14.425L238.75 14.456L238.81 14.175C238.9 13.6022 238.9 13.0443 238.79 12.5035C238.69 11.9616 238.491 11.4777 238.201 11.0508C237.911 10.6239 237.532 10.277 237.082 10.0121C236.622 9.74617 236.083 9.60321 235.474 9.58222Z" fill="#DAE0E5" fill-opacity="0.7"/>
<path d="M255.663 24.4207C255.584 24.1078 255.544 23.8008 255.544 23.4989C255.544 23.197 255.563 22.8891 255.593 22.5772C254.854 23.233 254.045 23.7589 253.176 24.1548C252.307 24.5507 251.368 24.7376 250.359 24.7176C249.649 24.7066 248.98 24.5867 248.351 24.3577C247.721 24.1288 247.182 23.8059 246.712 23.389C246.253 22.9731 245.893 22.4682 245.634 21.8743C245.384 21.2805 245.274 20.6087 245.324 19.8589C245.364 19.1301 245.514 18.4842 245.763 17.9224C246.023 17.3595 246.353 16.8677 246.752 16.4458C247.162 16.0239 247.632 15.667 248.161 15.376C248.69 15.0841 249.26 14.8472 249.849 14.6652C250.449 14.4833 251.068 14.3523 251.707 14.2743C252.347 14.1963 252.986 14.1574 253.605 14.1574L256.822 14.1733L257.022 12.8297C257.092 12.2988 257.052 11.8299 256.912 11.424C256.772 11.0172 256.553 10.6743 256.263 10.3923C255.973 10.1114 255.613 9.89845 255.194 9.75249C254.774 9.60652 254.305 9.52856 253.795 9.51756C253.346 9.50756 252.906 9.55454 252.477 9.65852C252.047 9.76249 251.647 9.92446 251.288 10.1424C250.928 10.3613 250.618 10.6403 250.359 10.9782C250.099 11.3171 249.919 11.721 249.819 12.1889L246.992 12.2049C247.082 11.3511 247.362 10.6093 247.821 9.97844C248.271 9.3486 248.84 8.82573 249.51 8.40884C250.179 7.99195 250.918 7.68303 251.717 7.47909C252.517 7.27614 253.306 7.18016 254.075 7.19016C254.924 7.21115 255.723 7.3471 256.463 7.59704C257.202 7.84697 257.831 8.21389 258.361 8.69777C258.89 9.18264 259.28 9.77347 259.559 10.4713C259.829 11.1681 259.909 11.9709 259.819 12.8767L258.511 20.7337C258.411 21.3065 258.371 21.8793 258.361 22.4522C258.351 23.0251 258.421 23.5929 258.56 24.1548L258.521 24.4207H255.663ZM250.908 22.2333C251.907 22.2543 252.836 22.0273 253.705 21.5544C254.564 21.0805 255.284 20.4477 255.873 19.6559L256.483 16.2198L254.065 16.2038C253.486 16.2038 252.876 16.2398 252.227 16.3128C251.577 16.3858 250.968 16.5367 250.389 16.7657C249.819 16.9956 249.33 17.3235 248.92 17.7504C248.521 18.1773 248.271 18.7392 248.191 19.437C248.141 19.8849 248.171 20.2808 248.281 20.6247C248.401 20.9686 248.581 21.2575 248.83 21.4915C249.08 21.7254 249.38 21.9053 249.739 22.0303C250.089 22.1553 250.479 22.2233 250.908 22.2333Z" fill="#DAE0E5" fill-opacity="0.7"/>
<path d="M277.041 7.17578C277.541 7.18578 278.04 7.21978 278.54 7.27677C279.039 7.33475 279.529 7.45171 279.999 7.62867L279.289 10.44C278.79 10.326 278.29 10.232 277.791 10.159C277.291 10.086 276.782 10.044 276.272 10.0341C274.964 10.0241 273.835 10.326 272.896 10.9398C271.967 11.5547 271.187 12.4294 270.558 13.5641L268.69 24.4213H265.863L268.78 7.51871H271.467L270.998 10.206C271.387 9.74812 271.817 9.33123 272.256 8.95633C272.706 8.58142 273.185 8.26151 273.685 7.99558C274.184 7.72965 274.704 7.52669 275.263 7.38673C275.823 7.24576 276.412 7.17578 277.041 7.17578Z" fill="#DAE0E5" fill-opacity="0.7"/>
<path d="M289.589 22.4052C290.098 22.4152 290.598 22.3452 291.097 22.1943C291.597 22.0433 292.057 21.8243 292.466 21.5384C292.876 21.2515 293.225 20.9026 293.525 20.4917C293.815 20.0808 294.015 19.6199 294.124 19.1091L296.802 19.094C296.702 19.9578 296.422 20.7416 295.953 21.4444C295.483 22.1473 294.914 22.7461 294.224 23.241C293.535 23.7359 292.776 24.1157 291.947 24.3817C291.107 24.6466 290.288 24.7696 289.459 24.7486C288.28 24.7176 287.271 24.4617 286.432 23.9828C285.603 23.5039 284.934 22.8761 284.424 22.1003C283.905 21.3245 283.565 20.4367 283.375 19.437C283.186 18.4372 283.146 17.4065 283.245 16.3448L283.325 15.6729C283.425 14.9121 283.585 14.1733 283.825 13.4545C284.065 12.7357 284.374 12.0589 284.744 11.424C285.114 10.7882 285.543 10.2083 286.033 9.68248C286.532 9.15562 287.082 8.70574 287.701 8.33084C288.31 7.95594 288.98 7.669 289.699 7.47205C290.418 7.27411 291.177 7.18514 291.987 7.20613C292.866 7.22713 293.675 7.39308 294.414 7.706C295.143 8.01792 295.783 8.44282 296.302 8.97868C296.832 9.51554 297.231 10.1554 297.521 10.9002C297.801 11.645 297.921 12.4598 297.871 13.3455L295.223 13.3295C295.243 12.8087 295.183 12.3248 295.033 11.8769C294.884 11.429 294.664 11.0361 294.374 10.6972C294.075 10.3593 293.715 10.0904 293.285 9.89245C292.856 9.6955 292.376 9.58552 291.837 9.56453C290.968 9.53354 290.208 9.69249 289.549 10.0414C288.89 10.3903 288.32 10.8562 287.851 11.439C287.381 12.0229 287.012 12.6837 286.722 13.4235C286.432 14.1623 286.242 14.9121 286.133 15.6729L286.063 16.3288C286.003 16.7767 285.983 17.2345 285.983 17.7034C285.983 18.1723 286.023 18.6272 286.093 19.0701C286.172 19.5129 286.302 19.9348 286.462 20.3357C286.632 20.7366 286.852 21.0855 287.132 21.3825C287.421 21.6794 287.761 21.9213 288.16 22.1083C288.56 22.2962 289.04 22.3952 289.589 22.4052Z" fill="#DAE0E5" fill-opacity="0.7"/>
<path d="M306.212 10.0502C306.552 9.63334 306.921 9.24845 307.321 8.89355C307.731 8.53964 308.15 8.23771 308.61 7.98777C309.059 7.73784 309.539 7.54289 310.038 7.40193C310.548 7.26196 311.077 7.19697 311.647 7.20697C312.596 7.22796 313.405 7.41992 314.044 7.78482C314.694 8.14973 315.203 8.63361 315.573 9.23745C315.952 9.84129 316.202 10.5371 316.322 11.3229C316.452 12.1097 316.462 12.9295 316.372 13.7833L314.594 24.4215H311.766L313.565 13.7363C313.625 13.1844 313.625 12.6665 313.565 12.1827C313.505 11.6978 313.355 11.2709 313.125 10.901C312.895 10.5311 312.586 10.2402 312.186 10.0262C311.777 9.8133 311.277 9.69632 310.658 9.67533C310.178 9.66433 309.729 9.71932 309.289 9.83928C308.859 9.95925 308.45 10.1302 308.06 10.3542C307.671 10.5781 307.301 10.841 306.951 11.143C306.602 11.4459 306.282 11.7738 305.992 12.1277L303.855 24.4215H301.027L305.193 0.427734H308.02L306.212 10.0502Z" fill="#DAE0E5" fill-opacity="0.7"/>
</svg>
