<svg width="147" height="25" viewBox="0 0 147 25" fill="none" xmlns="http://www.w3.org/2000/svg">
<path d="M3.68812 21.5281H14.4673L14.0376 23.9804H0.441406L4.36749 1.23633H7.19458L3.68812 21.5281Z" fill="#DAE0E5" fill-opacity="0.7"/>
<path d="M19.542 15.4832C19.6319 14.7224 19.8017 13.9756 20.0315 13.2418C20.2712 12.507 20.5709 11.8142 20.9306 11.1634C21.3002 10.5125 21.7298 9.91367 22.2193 9.36781C22.7188 8.82096 23.2683 8.35209 23.8777 7.9612C24.487 7.5713 25.1464 7.26937 25.8756 7.05542C26.5949 6.84148 27.3741 6.7455 28.2032 6.7665C29.392 6.79749 30.4011 7.06042 31.2402 7.55529C32.0794 8.05017 32.7586 8.69599 33.2681 9.49278C33.7775 10.2886 34.1272 11.1954 34.3171 12.2101C34.5069 13.2258 34.5468 14.2646 34.4369 15.3263L34.4069 15.6862C34.2571 16.8209 33.9575 17.9146 33.4879 18.9663C33.0284 20.0181 32.429 20.9428 31.6897 21.7396C30.9505 22.5354 30.0713 23.1683 29.0724 23.6371C28.0634 24.106 26.9545 24.324 25.7258 24.293C24.547 24.262 23.538 24.004 22.7088 23.5202C21.8696 23.0353 21.1903 22.3974 20.6808 21.6067C20.1713 20.8149 19.8218 19.9191 19.622 18.9194C19.4222 17.9196 19.3822 16.8889 19.4921 15.8262L19.542 15.4832ZM22.3192 15.8262C22.2692 16.2641 22.2493 16.7169 22.2493 17.1858C22.2593 17.6547 22.2993 18.1126 22.3792 18.5604C22.4591 19.0083 22.579 19.4352 22.7388 19.8411C22.9086 20.247 23.1283 20.6039 23.418 20.9108C23.6978 21.2188 24.0374 21.4657 24.437 21.6536C24.8366 21.8406 25.3062 21.9446 25.8456 21.9656C26.7148 21.9966 27.4739 21.8246 28.1432 21.4497C28.8126 21.0748 29.3821 20.5859 29.8516 19.9821C30.3311 19.3782 30.7007 18.6984 30.9805 17.9436C31.2702 17.1878 31.46 16.436 31.5798 15.6862L31.6098 15.3423C31.6798 14.6865 31.6997 13.9986 31.6497 13.2808C31.5998 12.562 31.4499 11.8982 31.1902 11.2883C30.9305 10.6795 30.5508 10.1746 30.0513 9.77371C29.5519 9.37282 28.8925 9.15689 28.0834 9.1249C27.2043 9.0939 26.435 9.26885 25.7756 9.64875C25.1063 10.0286 24.5369 10.5255 24.0674 11.1404C23.5979 11.7552 23.2283 12.445 22.9485 13.2098C22.6688 13.9756 22.4691 14.7334 22.3692 15.4832L22.3192 15.8262Z" fill="#DAE0E5" fill-opacity="0.7"/>
<path d="M44.9066 21.9657C45.4161 21.9757 45.9256 21.9058 46.4251 21.7548C46.9246 21.6038 47.3741 21.3849 47.7837 21.099C48.2033 20.812 48.553 20.4631 48.8427 20.0522C49.1324 19.6413 49.3322 19.1805 49.4521 18.6696L52.1193 18.6546C52.0294 19.5184 51.7497 20.3022 51.2802 21.005C50.8107 21.7078 50.2313 22.3067 49.542 22.8015C48.8527 23.2964 48.0934 23.6763 47.2642 23.9422C46.4351 24.2072 45.6059 24.3301 44.7868 24.3091C43.598 24.2781 42.589 24.0222 41.7598 23.5433C40.9206 23.0645 40.2514 22.4366 39.7419 21.6608C39.2325 20.885 38.8828 19.9973 38.693 18.9975C38.5131 17.9978 38.4632 16.967 38.5731 15.9053L38.653 15.2335C38.7429 14.4727 38.9127 13.7339 39.1524 13.0151C39.3822 12.2962 39.6919 11.6194 40.0616 10.9846C40.4312 10.3487 40.8608 9.76889 41.3603 9.24303C41.8498 8.71616 42.4091 8.26629 43.0185 7.89139C43.6279 7.51648 44.2972 7.22955 45.0165 7.0326C45.7358 6.83465 46.5051 6.74568 47.3142 6.76668C48.1834 6.78767 48.9926 6.95363 49.7318 7.26655C50.4711 7.57847 51.1004 8.00337 51.6298 8.53923C52.1493 9.07609 52.559 9.71592 52.8387 10.4607C53.1184 11.2055 53.2383 12.0203 53.1983 12.9061L50.541 12.8901C50.5609 12.3692 50.5011 11.8854 50.3512 11.4375C50.2113 10.9896 49.9915 10.5967 49.6918 10.2578C49.3921 9.91987 49.0325 9.65094 48.603 9.453C48.1834 9.25605 47.6938 9.14607 47.1544 9.12508C46.2952 9.09409 45.5261 9.25303 44.8668 9.60194C44.2074 9.95085 43.6479 10.4167 43.1784 10.9996C42.7089 11.5834 42.3293 12.2443 42.0395 12.9841C41.7598 13.7229 41.5601 14.4727 41.4602 15.2335L41.3802 15.8893C41.3302 16.3372 41.3003 16.7951 41.3003 17.264C41.3003 17.7328 41.3403 18.1877 41.4202 18.6306C41.5001 19.0735 41.62 19.4954 41.7898 19.8963C41.9496 20.2972 42.1794 20.6461 42.4592 20.943C42.7389 21.2399 43.0786 21.4819 43.4782 21.6688C43.8777 21.8568 44.3572 21.9557 44.9066 21.9657Z" fill="#DAE0E5" fill-opacity="0.7"/>
<path d="M67.2735 23.9812C67.1936 23.6683 67.1537 23.3614 67.1537 23.0595C67.1537 22.7576 67.1637 22.4496 67.1937 22.1377C66.4544 22.7935 65.6552 23.3194 64.7861 23.7153C63.917 24.1112 62.978 24.2981 61.969 24.2782C61.2597 24.2672 60.5904 24.1472 59.961 23.9183C59.3316 23.6893 58.7822 23.3664 58.3226 22.9495C57.8631 22.5336 57.5034 22.0287 57.2437 21.4349C56.9939 20.841 56.8841 20.1692 56.924 19.4194C56.964 18.6906 57.1138 18.0448 57.3735 17.4829C57.6233 16.9201 57.9529 16.4282 58.3625 16.0063C58.7721 15.5844 59.2417 15.2275 59.7711 14.9366C60.3006 14.6447 60.8601 14.4077 61.4595 14.2258C62.0589 14.0438 62.6782 13.9129 63.3176 13.8349C63.9569 13.7569 64.5863 13.7179 65.2157 13.7179L68.4324 13.7339L68.6322 12.3902C68.6921 11.8594 68.6621 11.3905 68.5123 10.9846C68.3724 10.5777 68.1626 10.2348 67.8729 9.95288C67.5732 9.67195 67.2236 9.45899 66.7941 9.31303C66.3745 9.16707 65.9149 9.0891 65.4054 9.07811C64.9559 9.06811 64.5164 9.11509 64.0868 9.21906C63.6473 9.32304 63.2576 9.485 62.898 9.70295C62.5383 9.92189 62.2287 10.2008 61.969 10.5387C61.7092 10.8776 61.5294 11.2815 61.4195 11.7494L58.5924 11.7654C58.6923 10.9116 58.962 10.1698 59.4215 9.53899C59.881 8.90915 60.4504 8.38628 61.1197 7.96939C61.7891 7.55249 62.5284 7.24358 63.3276 7.03963C64.1268 6.83669 64.916 6.74071 65.6852 6.75071C66.5343 6.7717 67.3335 6.90765 68.0728 7.15758C68.812 7.40752 69.4414 7.77444 69.9709 8.25831C70.4904 8.74319 70.8899 9.33402 71.1596 10.0318C71.4294 10.7287 71.5193 11.5315 71.4294 12.4372L70.1206 20.2942C70.0207 20.8671 69.9709 21.4399 69.9709 22.0127C69.9609 22.5856 70.0308 23.1535 70.1606 23.7153L70.1306 23.9812H67.2735ZM62.5183 21.7938C63.5173 21.8148 64.4464 21.5878 65.3056 21.115C66.1747 20.6411 66.8939 20.0083 67.4833 19.2165L68.0828 15.7804L65.6652 15.7644C65.0958 15.7644 64.4864 15.8004 63.8371 15.8733C63.1877 15.9463 62.5683 16.0973 61.9989 16.3262C61.4294 16.5562 60.94 16.8841 60.5304 17.311C60.1308 17.7379 59.881 18.2997 59.8011 18.9975C59.7512 19.4454 59.7811 19.8413 59.891 20.1852C60.0109 20.5291 60.1907 20.8181 60.4405 21.052C60.6902 21.2859 60.99 21.4659 61.3396 21.5909C61.6992 21.7158 62.0888 21.7838 62.5183 21.7938Z" fill="#DAE0E5" fill-opacity="0.7"/>
<path d="M85.4155 2.98633L84.6962 7.07827H90.9399L90.5503 9.31268H84.3066L82.7781 18.5133C82.7282 18.9712 82.7282 19.3981 82.7781 19.794C82.8381 20.1899 82.9579 20.5338 83.1378 20.8247C83.3076 21.1166 83.5673 21.3506 83.897 21.5285C84.2167 21.7055 84.6362 21.7984 85.1357 21.8094C85.7052 21.8304 86.2746 21.7885 86.844 21.6845C87.4134 21.5805 87.9729 21.4655 88.5323 21.3406L88.8021 23.418C88.1427 23.7829 87.4134 24.0219 86.6142 24.1368C85.815 24.2518 85.0459 24.2978 84.3066 24.2778C83.4675 24.2668 82.7482 24.1029 82.1688 23.7849C81.5794 23.468 81.1198 23.0461 80.7602 22.5203C80.4105 21.9944 80.1708 21.3846 80.0309 20.6927C79.911 19.9999 79.8811 19.2681 79.951 18.4973L81.4794 9.31268H77.1738L77.5634 7.07827H81.859L82.5684 2.98633H85.4155Z" fill="#DAE0E5" fill-opacity="0.7"/>
<path d="M97.2436 7.07792H105.645L103.148 21.4812H108.502L108.043 23.9805H94.3066L94.7661 21.4812H100.32L102.378 9.59326H96.8041L97.2436 7.07792ZM103.228 2.68904C103.238 2.18917 103.397 1.77528 103.707 1.44737C104.017 1.11945 104.426 0.944497 104.926 0.923502C105.176 0.913505 105.405 0.949496 105.605 1.03347C105.805 1.11645 105.985 1.23043 106.135 1.37639C106.284 1.52235 106.404 1.6993 106.474 1.90825C106.554 2.11619 106.594 2.34513 106.594 2.59507C106.594 3.09494 106.444 3.49883 106.125 3.80575C105.815 4.11267 105.405 4.27663 104.906 4.29763C104.416 4.31862 104.017 4.18066 103.697 3.88373C103.387 3.58681 103.228 3.18891 103.228 2.68904Z" fill="#DAE0E5" fill-opacity="0.7"/>
<path d="M113.357 15.4832C113.447 14.7224 113.617 13.9756 113.847 13.2418C114.076 12.507 114.376 11.8142 114.746 11.1634C115.105 10.5125 115.535 9.91367 116.034 9.36781C116.524 8.82096 117.073 8.35209 117.683 7.9612C118.292 7.5713 118.961 7.26937 119.681 7.05542C120.41 6.84148 121.189 6.7455 122.018 6.7665C123.207 6.79749 124.216 7.06042 125.055 7.55529C125.894 8.05017 126.564 8.69599 127.073 9.49278C127.583 10.2886 127.932 11.1954 128.132 12.2101C128.322 13.2258 128.362 14.2646 128.242 15.3263L128.212 15.6862C128.072 16.8209 127.762 17.9146 127.303 18.9663C126.833 20.0181 126.234 20.9428 125.495 21.7396C124.756 22.5354 123.886 23.1683 122.887 23.6371C121.878 24.106 120.76 24.324 119.531 24.293C118.362 24.262 117.353 24.004 116.514 23.5202C115.675 23.0353 115.005 22.3974 114.496 21.6067C113.986 20.8149 113.627 19.9191 113.437 18.9194C113.237 17.9196 113.197 16.8889 113.307 15.8262L113.357 15.4832ZM116.134 15.8262C116.084 16.2641 116.054 16.7169 116.064 17.1858C116.064 17.6547 116.114 18.1126 116.184 18.5604C116.264 19.0083 116.384 19.4352 116.554 19.8411C116.724 20.247 116.943 20.6039 117.223 20.9108C117.503 21.2188 117.842 21.4657 118.242 21.6536C118.652 21.8406 119.121 21.9446 119.661 21.9656C120.52 21.9966 121.289 21.8246 121.958 21.4497C122.618 21.0748 123.187 20.5859 123.667 19.9821C124.136 19.3782 124.516 18.6984 124.795 17.9436C125.075 17.1878 125.275 16.436 125.385 15.6862L125.425 15.3423C125.495 14.6865 125.505 13.9986 125.455 13.2808C125.415 12.562 125.255 11.8982 124.995 11.2883C124.736 10.6795 124.356 10.1746 123.856 9.77371C123.357 9.37282 122.708 9.15689 121.888 9.1249C121.019 9.0939 120.25 9.26885 119.581 9.64875C118.921 10.0286 118.352 10.5255 117.882 11.1404C117.413 11.7552 117.033 12.445 116.754 13.2098C116.474 13.9756 116.284 14.7334 116.184 15.4832L116.134 15.8262Z" fill="#DAE0E5" fill-opacity="0.7"/>
<path d="M136.843 7.06363L136.484 9.57799C136.833 9.1621 137.203 8.7762 137.613 8.42229C138.012 8.06838 138.452 7.76645 138.911 7.51652C139.361 7.26658 139.85 7.07662 140.36 6.94666C140.869 6.81569 141.409 6.75671 141.968 6.76671C142.917 6.78771 143.706 6.97467 144.356 7.32858C144.995 7.68349 145.515 8.15434 145.894 8.74319C146.274 9.33104 146.524 10.0159 146.653 10.7967C146.783 11.5775 146.803 12.3953 146.713 13.249L144.915 23.9812H142.088L143.886 13.296C143.946 12.7232 143.946 12.1923 143.896 11.7024C143.836 11.2136 143.696 10.7867 143.467 10.4218C143.247 10.0579 142.937 9.76894 142.528 9.55499C142.118 9.34105 141.609 9.22908 140.979 9.21908C140.49 9.20908 140.03 9.26906 139.591 9.39902C139.141 9.52899 138.731 9.71094 138.342 9.94588C137.962 10.1798 137.603 10.4608 137.263 10.7887C136.923 11.1176 136.614 11.4685 136.334 11.8434L134.226 23.9812H131.399L134.336 7.07864L136.843 7.06363Z" fill="#DAE0E5" fill-opacity="0.7"/>
</svg>
