<svg width="240" height="24" viewBox="0 0 240 24" fill="none" xmlns="http://www.w3.org/2000/svg">
<path d="M17.5145 0.726562L14.9072 16.1126C14.7473 17.1543 14.4376 18.144 13.9581 19.0808C13.4786 20.0186 12.8692 20.8384 12.14 21.5412C11.4207 22.244 10.5815 22.7988 9.63249 23.2047C8.68345 23.6106 7.65441 23.8036 6.55552 23.7826C5.51657 23.7616 4.5976 23.5356 3.78842 23.1038C2.98923 22.6709 2.32991 22.104 1.80044 21.4002C1.28097 20.6974 0.901349 19.8906 0.671581 18.9798C0.441814 18.0681 0.381831 17.1233 0.501709 16.1446L3.14906 0.726562H5.83628L3.25893 16.1446C3.189 16.7584 3.19902 17.3682 3.28893 17.9721C3.38883 18.5759 3.57858 19.1228 3.8583 19.6117C4.13802 20.1015 4.51764 20.5054 4.98716 20.8224C5.45669 21.1403 6.0461 21.3092 6.74539 21.3302C7.48464 21.3512 8.15399 21.2182 8.76337 20.9323C9.37275 20.6454 9.90219 20.2575 10.3617 19.7686C10.8113 19.2787 11.1809 18.7159 11.4706 18.0811C11.7603 17.4462 11.9701 16.7954 12.1 16.1286L14.7773 0.726562H17.5145Z" fill="#DAE0E5"/>
<path d="M30.2314 18.8772C30.3013 18.3983 30.2214 18.0024 30.0016 17.6895C29.7818 17.3776 29.4921 17.1226 29.1325 16.9247C28.7729 16.7267 28.3832 16.5678 27.9536 16.4478C27.5241 16.3278 27.1444 16.2268 26.8048 16.1439C26.1754 15.9869 25.5261 15.795 24.8468 15.565C24.1775 15.3361 23.5581 15.0392 22.9887 14.6753C22.4293 14.3103 21.9797 13.8555 21.6301 13.3086C21.2804 12.7617 21.1206 12.0979 21.1506 11.3161C21.1706 10.7443 21.2904 10.2204 21.5002 9.74654C21.71 9.27266 21.9897 8.84576 22.3393 8.46586C22.679 8.08596 23.0786 7.75504 23.5282 7.47412C23.9777 7.19219 24.4572 6.96126 24.9667 6.77831C25.4762 6.59636 25.9857 6.46139 26.5152 6.37241C27.0346 6.28443 27.554 6.24544 28.0635 6.25544C28.8527 6.27643 29.622 6.4014 30.3512 6.63034C31.0905 6.85928 31.7298 7.19519 32.2792 7.63807C32.8287 8.07996 33.2683 8.62683 33.588 9.27766C33.9176 9.9285 34.0674 10.6863 34.0575 11.5511L31.2604 11.5351C31.2604 11.0662 31.1804 10.6553 31.0006 10.3014C30.8208 9.94748 30.5811 9.64757 30.2714 9.40263C29.9717 9.1587 29.612 8.97373 29.2124 8.84876C28.8128 8.72379 28.3932 8.65581 27.9536 8.64581C27.5341 8.63481 27.1145 8.6768 26.6649 8.77078C26.2254 8.86375 25.8158 9.01272 25.4262 9.21567C25.0366 9.41862 24.7169 9.68454 24.4472 10.0125C24.1775 10.3404 24.0076 10.7383 23.9477 11.2072C23.8778 11.676 23.9577 12.0589 24.1674 12.3558C24.3872 12.6518 24.667 12.8887 25.0067 13.0657C25.3463 13.2436 25.726 13.3836 26.1355 13.4876C26.5451 13.5915 26.9247 13.6805 27.2644 13.7535C27.694 13.8575 28.1335 13.9774 28.593 14.1124C29.0526 14.2484 29.5021 14.4093 29.9416 14.5973C30.3712 14.7842 30.7908 15.0002 31.1804 15.2451C31.57 15.4901 31.9096 15.776 32.1894 16.1049C32.4691 16.4328 32.6889 16.8097 32.8387 17.2366C32.9986 17.6635 33.0684 18.1434 33.0485 18.6742C32.9985 19.58 32.7488 20.3608 32.2992 21.0176C31.8397 21.6734 31.2603 22.2073 30.581 22.6182C29.8917 23.0301 29.1324 23.332 28.3033 23.524C27.4641 23.7169 26.655 23.8029 25.8658 23.7819C25.0266 23.7719 24.2274 23.6469 23.4482 23.407C22.679 23.1681 21.9897 22.8161 21.3803 22.3533C20.781 21.8894 20.3014 21.3165 19.9417 20.6347C19.5821 19.9519 19.4123 19.1581 19.4322 18.2523L22.2395 18.2683C22.2494 18.8092 22.3593 19.2781 22.5591 19.674C22.7489 20.0699 23.0187 20.3948 23.3483 20.6497C23.688 20.9057 24.0776 21.0976 24.5172 21.2286C24.9667 21.3585 25.4462 21.4235 25.9557 21.4235C26.3752 21.4335 26.8148 21.3975 27.2843 21.3136C27.7538 21.2306 28.1934 21.0926 28.613 20.8997C29.0226 20.7077 29.3822 20.4448 29.6819 20.1109C29.9716 19.7779 30.1614 19.367 30.2314 18.8772Z" fill="#DAE0E5"/>
<path d="M44.6574 23.7831C43.5086 23.7621 42.5097 23.5282 41.6406 23.0803C40.7714 22.6324 40.0521 22.0386 39.4927 21.2998C38.9333 20.56 38.5236 19.7062 38.2839 18.7374C38.0341 17.7697 37.9642 16.744 38.0541 15.6602L38.1341 14.9884C38.214 14.2496 38.3738 13.5178 38.6136 12.794C38.8534 12.0702 39.163 11.3803 39.5426 10.7245C39.9222 10.0677 40.3718 9.46384 40.8713 8.91198C41.3808 8.36012 41.9402 7.88423 42.5596 7.48333C43.1789 7.08144 43.8483 6.77253 44.5775 6.55358C45.2968 6.33464 46.0561 6.23567 46.8553 6.25666C48.0241 6.28765 49.003 6.54058 49.8122 7.01446C50.6114 7.48834 51.2408 8.11018 51.7103 8.88098C52.1799 9.65178 52.4895 10.5286 52.6493 11.5133C52.8092 12.497 52.8192 13.5098 52.6793 14.5515L52.4796 15.8482H40.8513C40.7614 16.535 40.7913 17.2068 40.9212 17.8627C41.0511 18.5195 41.2809 19.1073 41.6106 19.6282C41.9502 20.1491 42.3897 20.5709 42.9392 20.8939C43.4886 21.2158 44.1479 21.3878 44.9072 21.4087C45.8862 21.4397 46.7853 21.2478 47.6145 20.8309C48.4437 20.414 49.1929 19.8621 49.8522 19.1753L51.4806 20.55C51.091 21.0908 50.6415 21.5677 50.132 21.9796C49.6125 22.3905 49.063 22.7314 48.4636 23.0023C47.8742 23.2733 47.2549 23.4732 46.6055 23.6042C45.9662 23.7341 45.3167 23.7941 44.6574 23.7831ZM46.7154 8.63105C45.9861 8.60006 45.3368 8.72203 44.7474 8.99796C44.168 9.27389 43.6485 9.64078 43.1989 10.0997C42.7494 10.5575 42.3497 11.0834 42.0201 11.6773C41.6904 12.2711 41.4107 12.8699 41.1909 13.4738L49.9921 13.5048L50.062 13.2239C50.1519 12.651 50.1519 12.0931 50.042 11.5523C49.9421 11.0104 49.7423 10.5266 49.4526 10.0997C49.1629 9.67277 48.7833 9.32586 48.3237 9.06093C47.8642 8.795 47.3348 8.65204 46.7154 8.63105Z" fill="#DAE0E5"/>
<path d="M69.5214 6.22461C70.0209 6.23461 70.5204 6.26861 71.0199 6.3256C71.5194 6.38358 72.0089 6.50054 72.4884 6.6775L71.7691 9.48878C71.2696 9.37481 70.7701 9.28083 70.2706 9.20785C69.7712 9.13487 69.2716 9.09288 68.7622 9.08288C67.4435 9.07288 66.3246 9.37481 65.3856 9.98865C64.4465 10.6035 63.6673 11.4783 63.048 12.613L61.1699 23.4701H58.3428L61.2697 6.56754H63.9471L63.4776 9.25483C63.8772 8.79695 64.2967 8.38006 64.7462 8.00515C65.1958 7.63025 65.6653 7.31034 66.1648 7.0444C66.6643 6.77847 67.1937 6.57552 67.7532 6.43555C68.3126 6.29459 68.902 6.22461 69.5214 6.22461Z" fill="#DAE0E5"/>
<path d="M80.2014 6.55191L79.8418 9.06628C80.1814 8.65038 80.561 8.26448 80.9606 7.91057C81.3702 7.55666 81.7997 7.25473 82.2593 7.0048C82.7188 6.75486 83.1984 6.5649 83.7079 6.43494C84.2173 6.30397 84.7568 6.24499 85.3162 6.25499C86.2653 6.27599 87.0645 6.46295 87.7038 6.81686C88.3532 7.17177 88.8626 7.64262 89.2422 8.23147C89.6218 8.81932 89.8816 9.50416 90.0114 10.285C90.1413 11.0658 90.1613 11.8835 90.0614 12.7373L88.2732 23.4695H85.4461L87.2442 12.7843C87.3041 12.2115 87.3041 11.6806 87.2442 11.1907C87.1943 10.7019 87.0545 10.275 86.8247 9.91005C86.6049 9.54615 86.2852 9.25722 85.8856 9.04327C85.476 8.82933 84.9566 8.71736 84.3372 8.70736C83.8477 8.69736 83.3782 8.75734 82.9386 8.88731C82.4991 9.01727 82.0795 9.19922 81.6999 9.43416C81.3103 9.6681 80.9506 9.94905 80.6109 10.277C80.2712 10.6059 79.9616 10.9568 79.6819 11.3317L77.5741 23.4695H74.7568L77.6839 6.56692L80.2014 6.55191Z" fill="#DAE0E5"/>
<path d="M104.436 23.4695C104.356 23.1566 104.317 22.8497 104.317 22.5478C104.317 22.2458 104.336 21.9379 104.366 21.626C103.627 22.2818 102.818 22.8077 101.949 23.2036C101.08 23.5995 100.141 23.7864 99.1317 23.7664C98.4224 23.7554 97.7531 23.6355 97.1237 23.4065C96.4943 23.1776 95.9549 22.8547 95.4854 22.4378C95.0258 22.0219 94.6662 21.517 94.4065 20.9232C94.1567 20.3293 94.0468 19.6575 94.0967 18.9077C94.1367 18.1789 94.2866 17.5331 94.5364 16.9712C94.7961 16.4083 95.1258 15.9165 95.5253 15.4946C95.9349 15.0727 96.4045 14.7158 96.934 14.4249C97.4634 14.1329 98.0328 13.896 98.6222 13.714C99.2216 13.5321 99.8409 13.4011 100.48 13.3232C101.12 13.2452 101.759 13.2062 102.378 13.2062L105.595 13.2222L105.795 11.8785C105.865 11.3477 105.825 10.8788 105.685 10.4729C105.545 10.066 105.325 9.72309 105.036 9.44116C104.746 9.16024 104.386 8.94728 103.967 8.80131C103.547 8.65535 103.078 8.57739 102.568 8.56639C102.119 8.55639 101.679 8.60337 101.25 8.70734C100.82 8.81132 100.42 8.97328 100.061 9.19123C99.7012 9.41017 99.3914 9.6891 99.1317 10.027C98.8719 10.3659 98.6921 10.7698 98.5922 11.2377L95.7651 11.2537C95.855 10.3999 96.1347 9.6581 96.5942 9.02727C97.0438 8.39743 97.6132 7.87456 98.2826 7.45767C98.9519 7.04078 99.6911 6.73186 100.49 6.52792C101.289 6.32497 102.079 6.22899 102.848 6.23899C103.697 6.25998 104.496 6.39593 105.235 6.64587C105.975 6.8958 106.604 7.26272 107.134 7.74659C107.663 8.23147 108.053 8.8223 108.332 9.52012C108.602 10.2169 108.682 11.0197 108.592 11.9255L107.283 19.7825C107.184 20.3553 107.134 20.9282 107.134 21.501C107.124 22.0739 107.193 22.6417 107.333 23.2036L107.293 23.4695H104.436ZM99.6812 21.2821C100.68 21.3031 101.609 21.0761 102.478 20.6033C103.337 20.1294 104.057 19.4966 104.646 18.7048L105.255 15.2686L102.838 15.2526C102.258 15.2526 101.649 15.2886 101 15.3616C100.35 15.4346 99.7411 15.5856 99.1617 15.8145C98.5923 16.0445 98.1028 16.3724 97.6932 16.7992C97.2936 17.2261 97.0438 17.788 96.9638 18.4858C96.9139 18.9337 96.9439 19.3296 97.0538 19.6735C97.1737 20.0174 97.3535 20.3063 97.6032 20.5403C97.853 20.7742 98.1527 20.9542 98.5123 21.0791C98.862 21.2041 99.2516 21.2721 99.6812 21.2821Z" fill="#DAE0E5"/>
<path d="M116.494 6.55321L116.174 8.1618C116.614 7.56795 117.113 7.10007 117.673 6.75616C118.242 6.41225 118.892 6.24629 119.641 6.25629C119.971 6.25629 120.27 6.29027 120.57 6.35825C120.86 6.42523 121.119 6.53221 121.369 6.67817C121.609 6.82414 121.829 7.0111 122.008 7.24004C122.188 7.46898 122.328 7.7399 122.418 8.05282C122.858 7.51096 123.357 7.07608 123.907 6.74816C124.456 6.42025 125.095 6.25629 125.825 6.25629C126.484 6.26628 127.023 6.40225 127.463 6.66219C127.902 6.92312 128.242 7.26903 128.492 7.70092C128.732 8.13381 128.891 8.62267 128.971 9.16953C129.051 9.71639 129.061 10.2762 129.011 10.8491L126.904 23.4708H124.216L126.344 10.8021C126.374 10.5102 126.374 10.2372 126.344 9.98231C126.314 9.72638 126.244 9.50244 126.124 9.31049C126.024 9.11754 125.855 8.96657 125.645 8.8576C125.435 8.74763 125.165 8.69267 124.846 8.69267C124.276 8.69267 123.787 8.84962 123.377 9.16154C122.957 9.47446 122.678 9.90135 122.528 10.4422L120.32 23.4708H117.633L119.771 10.7861C119.801 10.5052 119.801 10.2423 119.781 9.99732C119.751 9.75238 119.681 9.53643 119.571 9.34948C119.461 9.16153 119.311 9.01056 119.111 8.89659C118.912 8.78162 118.662 8.71865 118.352 8.70865C117.833 8.69866 117.383 8.80464 117.024 9.02858C116.654 9.25252 116.344 9.57843 116.074 10.0053L113.747 23.4708H111.06L113.977 6.56822L116.494 6.55321Z" fill="#DAE0E5"/>
<path d="M138.473 23.7831C137.324 23.7621 136.315 23.5282 135.446 23.0803C134.576 22.6324 133.867 22.0386 133.308 21.2998C132.738 20.56 132.339 19.7062 132.089 18.7374C131.849 17.7697 131.769 16.744 131.869 15.6602L131.949 14.9884C132.029 14.2496 132.189 13.5178 132.429 12.794C132.668 12.0702 132.978 11.3803 133.358 10.7245C133.737 10.0677 134.177 9.46384 134.686 8.91198C135.186 8.36012 135.755 7.88423 136.365 7.48333C136.994 7.08144 137.663 6.77253 138.383 6.55358C139.102 6.33464 139.871 6.23567 140.67 6.25666C141.839 6.28765 142.818 6.54058 143.617 7.01446C144.417 7.48834 145.056 8.11018 145.525 8.88098C145.995 9.65178 146.305 10.5286 146.464 11.5133C146.614 12.497 146.624 13.5098 146.494 14.5515L146.295 15.8482H134.656C134.577 16.535 134.596 17.2068 134.736 17.8627C134.866 18.5195 135.096 19.1073 135.426 19.6282C135.755 20.1491 136.205 20.5709 136.754 20.8939C137.304 21.2158 137.963 21.3878 138.722 21.4087C139.701 21.4397 140.6 21.2478 141.429 20.8309C142.259 20.414 142.998 19.8621 143.667 19.1753L145.296 20.55C144.906 21.0908 144.456 21.5677 143.937 21.9796C143.427 22.3905 142.868 22.7314 142.279 23.0023C141.689 23.2733 141.07 23.4732 140.421 23.6042C139.771 23.7341 139.122 23.7941 138.473 23.7831ZM140.53 8.63105C139.801 8.60006 139.142 8.72203 138.562 8.99796C137.983 9.27389 137.464 9.64078 137.014 10.0997C136.555 10.5575 136.165 11.0834 135.835 11.6773C135.496 12.2711 135.226 12.8699 135.006 13.4738L143.807 13.5048L143.867 13.2239C143.967 12.651 143.957 12.0931 143.857 11.5523C143.747 11.0104 143.557 10.5266 143.258 10.0997C142.968 9.67277 142.598 9.32586 142.139 9.06093C141.679 8.795 141.14 8.65204 140.53 8.63105Z" fill="#DAE0E5"/>
<path d="M168.282 23.4707L172.218 0.726562L177.153 0.741558C178.652 0.77355 179.95 1.07747 181.039 1.65532C182.138 2.23417 183.027 2.99897 183.717 3.95173C184.396 4.90448 184.866 6.01118 185.115 7.27185C185.375 8.53152 185.415 9.86418 185.235 11.2708L185.005 12.9414C184.776 14.441 184.346 15.8317 183.717 17.1123C183.087 18.394 182.278 19.5057 181.299 20.4475C180.32 21.3902 179.181 22.13 177.882 22.6659C176.584 23.2017 175.145 23.4707 173.577 23.4707H168.282ZM174.686 3.10093L171.559 21.1113L173.637 21.1273C174.856 21.1173 175.944 20.8983 176.914 20.4714C177.883 20.0445 178.722 19.4637 179.441 18.7299C180.16 17.9951 180.75 17.1313 181.209 16.1366C181.669 15.1418 181.988 14.0771 182.178 12.9414L182.428 11.2238C182.558 10.2241 182.568 9.24735 182.468 8.2946C182.358 7.34184 182.088 6.48805 181.679 5.73325C181.259 4.97744 180.68 4.36361 179.94 3.88973C179.191 3.41585 178.252 3.15793 177.103 3.11594L174.686 3.10093Z" fill="#DAE0E5"/>
<path d="M198.252 23.4695C198.172 23.1566 198.132 22.8497 198.132 22.5478C198.132 22.2458 198.142 21.9379 198.172 21.626C197.433 22.2818 196.634 22.8077 195.765 23.2036C194.895 23.5995 193.956 23.7864 192.947 23.7664C192.238 23.7554 191.569 23.6355 190.94 23.4065C190.31 23.1776 189.761 22.8547 189.301 22.4378C188.842 22.0219 188.482 21.517 188.222 20.9232C187.973 20.3293 187.863 19.6575 187.903 18.9077C187.943 18.1789 188.092 17.5331 188.352 16.9712C188.602 16.4083 188.932 15.9165 189.341 15.4946C189.751 15.0727 190.21 14.7158 190.75 14.4249C191.279 14.1329 191.839 13.896 192.438 13.714C193.037 13.5321 193.657 13.4011 194.296 13.3232C194.935 13.2452 195.565 13.2062 196.194 13.2062L199.411 13.2222L199.611 11.8785C199.671 11.3477 199.631 10.8788 199.491 10.4729C199.351 10.066 199.141 9.72309 198.842 9.44116C198.552 9.16024 198.202 8.94728 197.773 8.80131C197.353 8.65535 196.893 8.57739 196.384 8.56639C195.934 8.55639 195.495 8.60337 195.055 8.70734C194.626 8.81132 194.236 8.97328 193.876 9.19123C193.517 9.41017 193.207 9.6891 192.947 10.027C192.688 10.3659 192.508 10.7698 192.398 11.2377L189.571 11.2537C189.671 10.3999 189.94 9.6581 190.4 9.02727C190.86 8.39743 191.429 7.87456 192.098 7.45767C192.768 7.04078 193.507 6.73186 194.306 6.52792C195.105 6.32497 195.894 6.22899 196.664 6.23899C197.513 6.25998 198.312 6.39593 199.051 6.64587C199.791 6.8958 200.42 7.26272 200.949 7.74659C201.469 8.23147 201.868 8.8223 202.138 9.52012C202.408 10.2169 202.498 11.0197 202.408 11.9255L201.089 19.7825C200.999 20.3553 200.949 20.9282 200.949 21.501C200.939 22.0739 201.009 22.6417 201.139 23.2036L201.109 23.4695H198.252ZM193.497 21.2821C194.496 21.3031 195.425 21.0761 196.284 20.6033C197.153 20.1294 197.873 19.4966 198.452 18.7048L199.061 15.2686L196.644 15.2526C196.074 15.2526 195.465 15.2886 194.806 15.3616C194.156 15.4346 193.547 15.5856 192.977 15.8145C192.408 16.0445 191.918 16.3724 191.509 16.7992C191.099 17.2261 190.86 17.788 190.78 18.4858C190.72 18.9337 190.76 19.3296 190.87 19.6735C190.989 20.0174 191.169 20.3063 191.419 20.5403C191.669 20.7742 191.968 20.9542 192.318 21.0791C192.678 21.2041 193.067 21.2721 193.497 21.2821Z" fill="#DAE0E5"/>
<path d="M216.393 2.47656L215.674 6.56851H221.917L221.528 8.80291H215.284L213.756 18.0035C213.696 18.4614 213.706 18.8883 213.756 19.2842C213.816 19.6801 213.935 20.024 214.115 20.3149C214.285 20.6069 214.535 20.8408 214.865 21.0187C215.194 21.1957 215.614 21.2887 216.113 21.2997C216.683 21.3207 217.252 21.2787 217.822 21.1747C218.381 21.0707 218.95 20.9558 219.51 20.8308L219.78 22.9083C219.12 23.2732 218.391 23.5121 217.592 23.6271C216.793 23.7421 216.023 23.788 215.284 23.768C214.435 23.757 213.726 23.5931 213.146 23.2752C212.557 22.9583 212.087 22.5364 211.738 22.0105C211.388 21.4846 211.138 20.8748 211.008 20.183C210.879 19.4901 210.849 18.7583 210.929 17.9875L212.457 8.80291H208.151L208.541 6.56851H212.827L213.546 2.47656H216.393Z" fill="#DAE0E5"/>
<path d="M235.774 23.4695C235.694 23.1566 235.654 22.8497 235.654 22.5478C235.654 22.2458 235.664 21.9379 235.704 21.626C234.964 22.2818 234.155 22.8077 233.286 23.2036C232.417 23.5995 231.478 23.7864 230.469 23.7664C229.76 23.7554 229.09 23.6355 228.461 23.4065C227.832 23.1776 227.292 22.8547 226.823 22.4378C226.363 22.0219 226.003 21.517 225.744 20.9232C225.494 20.3293 225.384 19.6575 225.424 18.9077C225.474 18.1789 225.614 17.5331 225.874 16.9712C226.123 16.4083 226.463 15.9165 226.863 15.4946C227.272 15.0727 227.742 14.7158 228.271 14.4249C228.801 14.1329 229.36 13.896 229.959 13.714C230.559 13.5321 231.178 13.4011 231.818 13.3232C232.457 13.2452 233.096 13.2062 233.716 13.2062L236.932 13.2222L237.132 11.8785C237.202 11.3477 237.162 10.8788 237.012 10.4729C236.882 10.066 236.663 9.72309 236.373 9.44116C236.073 9.16024 235.724 8.94728 235.304 8.80131C234.884 8.65535 234.415 8.57739 233.905 8.56639C233.456 8.55639 233.016 8.60337 232.587 8.70734C232.157 8.81132 231.758 8.97328 231.398 9.19123C231.038 9.41017 230.729 9.6891 230.469 10.027C230.209 10.3659 230.029 10.7698 229.919 11.2377L227.102 11.2537C227.192 10.3999 227.472 9.6581 227.922 9.02727C228.381 8.39743 228.95 7.87456 229.62 7.45767C230.289 7.04078 231.028 6.73186 231.827 6.52792C232.627 6.32497 233.416 6.22899 234.185 6.23899C235.034 6.25998 235.833 6.39593 236.573 6.64587C237.312 6.8958 237.941 7.26272 238.471 7.74659C238.99 8.23147 239.39 8.8223 239.66 9.52012C239.939 10.2169 240.019 11.0197 239.929 11.9255L238.621 19.7825C238.521 20.3553 238.471 20.9282 238.471 21.501C238.461 22.0739 238.531 22.6417 238.661 23.2036L238.631 23.4695H235.774ZM231.018 21.2821C232.017 21.3031 232.946 21.0761 233.806 20.6033C234.675 20.1294 235.394 19.4966 235.983 18.7048L236.593 15.2686L234.165 15.2526C233.596 15.2526 232.986 15.2886 232.337 15.3616C231.688 15.4346 231.068 15.5856 230.499 15.8145C229.929 16.0445 229.44 16.3724 229.03 16.7992C228.631 17.2261 228.381 17.788 228.301 18.4858C228.251 18.9337 228.281 19.3296 228.391 19.6735C228.511 20.0174 228.691 20.3063 228.94 20.5403C229.19 20.7742 229.49 20.9542 229.849 21.0791C230.199 21.2041 230.589 21.2721 231.018 21.2821Z" fill="#DAE0E5"/>
</svg>
