<svg width="78" height="39" viewBox="0 0 78 39" fill="none" xmlns="http://www.w3.org/2000/svg">
<circle cx="22.5" cy="28.5" r="8.5" fill="#BCFAF9"/>
<circle cx="40.5" cy="25.5" r="8.5" fill="#BCFAF9"/>
<circle cx="58.5" cy="30.5" r="8.5" fill="#BCFAF9"/>
<path d="M3.81445 9.33008L5.94141 2.46875H7.72852L4.7168 11H3.52734L3.81445 9.33008ZM1.85156 2.46875L3.9668 9.33008L4.27148 11H3.07031L0.0703125 2.46875H1.85156ZM10.3242 2.46875V11H8.71289V2.46875H10.3242ZM16.5293 8.78516C16.5293 8.62109 16.5039 8.47461 16.4531 8.3457C16.4062 8.21289 16.3184 8.09375 16.1895 7.98828C16.0645 7.87891 15.8867 7.77344 15.6562 7.67188C15.4297 7.56641 15.1367 7.45703 14.7773 7.34375C14.3789 7.21875 14.0078 7.07812 13.6641 6.92188C13.3203 6.76562 13.0176 6.58398 12.7559 6.37695C12.498 6.16992 12.2969 5.93164 12.1523 5.66211C12.0078 5.38867 11.9355 5.07227 11.9355 4.71289C11.9355 4.36133 12.0098 4.04102 12.1582 3.75195C12.3105 3.46289 12.5254 3.21484 12.8027 3.00781C13.0801 2.79688 13.4062 2.63477 13.7812 2.52148C14.1602 2.4082 14.5781 2.35156 15.0352 2.35156C15.668 2.35156 16.2148 2.4668 16.6758 2.69727C17.1406 2.92773 17.5 3.24023 17.7539 3.63477C18.0078 4.0293 18.1348 4.47266 18.1348 4.96484H16.5293C16.5293 4.69922 16.4727 4.46484 16.3594 4.26172C16.25 4.05859 16.082 3.89844 15.8555 3.78125C15.6328 3.66406 15.3516 3.60547 15.0117 3.60547C14.6836 3.60547 14.4102 3.6543 14.1914 3.75195C13.9766 3.84961 13.8145 3.98242 13.7051 4.15039C13.5996 4.31836 13.5469 4.50586 13.5469 4.71289C13.5469 4.86914 13.584 5.00977 13.6582 5.13477C13.7324 5.25586 13.8438 5.37109 13.9922 5.48047C14.1406 5.58594 14.3242 5.68555 14.543 5.7793C14.7656 5.86914 15.0234 5.95898 15.3164 6.04883C15.7852 6.18945 16.1953 6.3457 16.5469 6.51758C16.9023 6.68945 17.1973 6.88477 17.4316 7.10352C17.6699 7.32227 17.8477 7.56836 17.9648 7.8418C18.0859 8.11523 18.1465 8.42578 18.1465 8.77344C18.1465 9.14062 18.0742 9.46875 17.9297 9.75781C17.7852 10.0469 17.5781 10.293 17.3086 10.4961C17.0391 10.6992 16.7148 10.8535 16.3359 10.959C15.9609 11.0645 15.541 11.1172 15.0762 11.1172C14.6621 11.1172 14.252 11.0625 13.8457 10.9531C13.4434 10.8398 13.0781 10.6719 12.75 10.4492C12.4219 10.2227 12.1602 9.9375 11.9648 9.59375C11.7695 9.24609 11.6719 8.83984 11.6719 8.375H13.2891C13.2891 8.64453 13.332 8.875 13.418 9.06641C13.5078 9.25391 13.6328 9.4082 13.793 9.5293C13.957 9.64648 14.1484 9.73242 14.3672 9.78711C14.5859 9.8418 14.8223 9.86914 15.0762 9.86914C15.4043 9.86914 15.6738 9.82422 15.8848 9.73438C16.0996 9.64062 16.2598 9.51172 16.3652 9.34766C16.4746 9.18359 16.5293 8.99609 16.5293 8.78516ZM24.1348 2.46875H25.7461V8.13477C25.7461 8.78711 25.6055 9.33594 25.3242 9.78125C25.043 10.2227 24.6602 10.5566 24.1758 10.7832C23.6914 11.0059 23.1406 11.1172 22.5234 11.1172C21.8984 11.1172 21.3418 11.0059 20.8535 10.7832C20.3652 10.5566 19.9824 10.2227 19.7051 9.78125C19.4277 9.33594 19.2891 8.78711 19.2891 8.13477V2.46875H20.9004V8.13477C20.9004 8.5332 20.9668 8.85938 21.0996 9.11328C21.2324 9.36328 21.4199 9.54883 21.6621 9.66992C21.9043 9.79102 22.1914 9.85156 22.5234 9.85156C22.8594 9.85156 23.1465 9.79102 23.3848 9.66992C23.627 9.54883 23.8125 9.36328 23.9414 9.11328C24.0703 8.85938 24.1348 8.5332 24.1348 8.13477V2.46875ZM30.5391 3.76367L28.1074 11H26.4023L29.5898 2.46875H30.6797L30.5391 3.76367ZM32.5723 11L30.1289 3.76367L29.9824 2.46875H31.0781L34.2832 11H32.5723ZM32.4609 7.83008V9.10156H27.8848V7.83008H32.4609ZM40.5762 9.73438V11H36.2871V9.73438H40.5762ZM36.7734 2.46875V11H35.1621V2.46875H36.7734ZM45.3457 2.46875H46.7402L49.0723 8.89062L51.3984 2.46875H52.7988L49.6289 11H48.5098L45.3457 2.46875ZM44.6426 2.46875H46.0078L46.2539 8.36914V11H44.6426V2.46875ZM52.1309 2.46875H53.502V11H51.8906V8.36914L52.1309 2.46875ZM62.0508 6.51758V6.95703C62.0508 7.60156 61.9648 8.18164 61.793 8.69727C61.6211 9.20898 61.377 9.64453 61.0605 10.0039C60.7441 10.3633 60.3672 10.6387 59.9297 10.8301C59.4922 11.0215 59.0059 11.1172 58.4707 11.1172C57.9434 11.1172 57.459 11.0215 57.0176 10.8301C56.5801 10.6387 56.2012 10.3633 55.8809 10.0039C55.5605 9.64453 55.3125 9.20898 55.1367 8.69727C54.9609 8.18164 54.873 7.60156 54.873 6.95703V6.51758C54.873 5.86914 54.9609 5.28906 55.1367 4.77734C55.3125 4.26562 55.5586 3.83008 55.875 3.4707C56.1914 3.10742 56.5684 2.83008 57.0059 2.63867C57.4473 2.44727 57.9316 2.35156 58.459 2.35156C58.9941 2.35156 59.4805 2.44727 59.918 2.63867C60.3555 2.83008 60.7324 3.10742 61.0488 3.4707C61.3691 3.83008 61.6152 4.26562 61.7871 4.77734C61.9629 5.28906 62.0508 5.86914 62.0508 6.51758ZM60.4219 6.95703V6.50586C60.4219 6.04102 60.3789 5.63281 60.293 5.28125C60.207 4.92578 60.0801 4.62695 59.9121 4.38477C59.7441 4.14258 59.5371 3.96094 59.291 3.83984C59.0449 3.71484 58.7676 3.65234 58.459 3.65234C58.1465 3.65234 57.8691 3.71484 57.627 3.83984C57.3887 3.96094 57.1855 4.14258 57.0176 4.38477C56.8496 4.62695 56.7207 4.92578 56.6309 5.28125C56.5449 5.63281 56.502 6.04102 56.502 6.50586V6.95703C56.502 7.41797 56.5449 7.82617 56.6309 8.18164C56.7207 8.53711 56.8496 8.83789 57.0176 9.08398C57.1895 9.32617 57.3965 9.50977 57.6387 9.63477C57.8809 9.75977 58.1582 9.82227 58.4707 9.82227C58.7832 9.82227 59.0605 9.75977 59.3027 9.63477C59.5449 9.50977 59.748 9.32617 59.9121 9.08398C60.0801 8.83789 60.207 8.53711 60.293 8.18164C60.3789 7.82617 60.4219 7.41797 60.4219 6.95703ZM65.9648 11H64.125L64.1367 9.73438H65.9648C66.4609 9.73438 66.877 9.625 67.2129 9.40625C67.5488 9.18359 67.8027 8.86523 67.9746 8.45117C68.1465 8.0332 68.2324 7.5332 68.2324 6.95117V6.51172C68.2324 6.0625 68.1836 5.66602 68.0859 5.32227C67.9883 4.97852 67.8438 4.68945 67.6523 4.45508C67.4648 4.2207 67.2324 4.04297 66.9551 3.92188C66.6777 3.80078 66.3594 3.74023 66 3.74023H64.0898V2.46875H66C66.5703 2.46875 67.0898 2.56445 67.5586 2.75586C68.0312 2.94727 68.4395 3.22266 68.7832 3.58203C69.1309 3.9375 69.3965 4.36328 69.5801 4.85938C69.7676 5.35547 69.8613 5.91016 69.8613 6.52344V6.95117C69.8613 7.56055 69.7676 8.11523 69.5801 8.61523C69.3965 9.11133 69.1309 9.53711 68.7832 9.89258C68.4395 10.248 68.0293 10.5215 67.5527 10.7129C67.0762 10.9043 66.5469 11 65.9648 11ZM65.0273 2.46875V11H63.416V2.46875H65.0273ZM76.8867 9.73438V11H72.3516V9.73438H76.8867ZM72.8438 2.46875V11H71.2324V2.46875H72.8438ZM76.2949 5.99023V7.22656H72.3516V5.99023H76.2949ZM76.8691 2.46875V3.74023H72.3516V2.46875H76.8691Z" fill="#BCFAF9"/>
</svg>
