<svg width="18" height="18" viewBox="0 0 18 18" fill="none" xmlns="http://www.w3.org/2000/svg">
<path fill-rule="evenodd" clip-rule="evenodd" d="M15.4227 17.4713H2.03542C0.911249 17.4713 0 16.5593 0 15.4343V2.03695C0 0.911935 0.911249 0 2.03542 0H15.4225C16.5467 0 17.4579 0.911935 17.4579 2.03695V15.4341C17.4581 16.5593 16.5469 17.4713 15.4227 17.4713ZM2.68194 3.04382L7.37423 9.32266L2.65237 14.4275H3.71516L7.84923 9.95804L11.1893 14.4275H14.8058L9.84937 7.79556L14.2445 3.04382H13.1817L9.37457 7.15998L6.29839 3.04382H2.68194ZM4.24481 3.82737H5.90619L13.2427 13.6442H11.5813L4.24481 3.82737Z" fill="#BCFAF9"/>
</svg>
