<svg width="129" height="130" viewBox="0 0 129 130" fill="none" xmlns="http://www.w3.org/2000/svg">
<g filter="url(#filter0_b_1_2349)">
<path d="M64.351 129.873C99.8912 129.873 128.702 101.019 128.702 65.4248C128.702 29.831 99.8912 0.976562 64.351 0.976562C28.8107 0.976562 0 29.831 0 65.4248C0 101.019 28.8107 129.873 64.351 129.873Z" fill="#DAE0E5" fill-opacity="0.2"/>
</g>
<mask id="mask0_1_2349" style="mask-type:luminance" maskUnits="userSpaceOnUse" x="9" y="10" width="110" height="110">
<path d="M64.3694 119.916C94.4081 119.916 118.759 95.5284 118.759 65.4445C118.759 35.3605 94.4081 10.9727 64.3694 10.9727C34.3307 10.9727 9.97949 35.3605 9.97949 65.4445C9.97949 95.5284 34.3307 119.916 64.3694 119.916Z" fill="white"/>
</mask>
<g mask="url(#mask0_1_2349)">
<path d="M64.3717 119.914C94.4097 119.914 118.76 95.5264 118.76 65.4432C118.76 35.3599 94.4097 10.9727 64.3717 10.9727C34.3337 10.9727 9.9834 35.3599 9.9834 65.4432C9.9834 95.5264 34.3337 119.914 64.3717 119.914Z" fill="#9FA3A7"/>
<path d="M85.1009 95.416C84.9694 95.3793 84.879 95.2556 84.8836 95.1181V90.857C87.3599 87.6255 89.2105 83.9577 90.3394 80.0436C93.1416 77.2601 94.3883 72.8614 95.0631 70.4903C96.2068 66.6414 97.2477 61.0629 94.2396 57.0652L94.1023 56.8819C95.5549 49.883 97.3621 33.3422 84.815 24.9573C86.2859 23.4544 87.0842 21.4143 87.0224 19.31C87.011 19.1062 86.9161 18.9149 86.7594 18.7831C86.6015 18.656 86.4002 18.5941 86.1989 18.6113C86.0388 18.6113 70.3464 20.3983 62.7861 18.8289C55.0314 17.2138 46.499 23.1131 44.749 29.1383C41.8233 29.5255 39.1572 31.0329 37.3146 33.3422C33.8833 37.5691 32.8425 44.316 34.1921 53.3538C34.2836 54.4993 34.4209 55.6448 34.6267 56.7903L34.4895 56.9621C31.4814 60.9484 32.5794 66.5269 33.666 70.3872C34.3408 72.7583 35.5761 77.157 38.3783 79.929C39.5003 83.8695 41.3509 87.5648 43.834 90.8226V95.0151C43.8432 95.1537 43.7517 95.2797 43.6167 95.3129C32.8882 97.8902 7.91992 105.817 7.91992 125.611C7.91992 127.754 9.68017 129.517 11.8201 129.517H116.909C119.049 129.517 120.809 127.754 120.809 125.611C120.809 105.817 95.8408 97.8902 85.1009 95.416ZM64.3645 110.594C57.717 110.688 51.4195 107.551 47.4826 102.186C49.2006 101.228 50.509 99.6703 51.1541 97.81C52.9132 98.9739 54.8061 99.92 56.7928 100.628C61.6904 102.363 67.0387 102.363 71.9362 100.628C73.9138 99.9063 75.7987 98.9521 77.5521 97.7871C78.1915 99.6726 79.5091 101.253 81.2465 102.22C77.3028 107.573 71.0064 110.696 64.3645 110.594ZM40.4027 68.5773C39.0188 63.6861 39.6021 61.9106 40.0711 61.292C40.4005 60.8774 40.9163 60.654 41.4436 60.6964H41.7753C42.1756 60.7158 42.5221 60.4089 42.553 60.0091C42.553 59.906 43.4223 49.3675 49.6558 45.576C52.7668 43.6745 56.77 43.7547 61.5394 45.7936C71.3072 50.009 78.5815 49.7112 83.0079 48.7261C88.0518 52.4603 86.5993 58.4169 86.2561 59.5853V59.7342C86.1703 59.9747 86.2138 60.2428 86.3705 60.4444C86.5249 60.6448 86.7708 60.7525 87.0224 60.7307C87.6424 60.6162 88.2783 60.8384 88.6923 61.3149C89.1613 61.9335 89.7446 63.709 88.3607 68.6002C86.5878 74.866 85.1467 75.4731 84.7464 75.4731C84.4021 75.4972 84.1196 75.7606 84.0715 76.1031C83.0422 82.7813 77.7351 91.0746 69.5915 94.0185C66.2151 95.2201 62.5254 95.2201 59.149 94.0185C50.6394 91.0288 45.6984 82.6324 44.6918 76.0917C44.6438 75.7492 44.3613 75.4857 44.017 75.4617C43.6167 75.4273 42.1756 74.8431 40.4027 68.5773Z" fill="black"/>
</g>
<defs>
<filter id="filter0_b_1_2349" x="-4" y="-3.02344" width="136.702" height="136.898" filterUnits="userSpaceOnUse" color-interpolation-filters="sRGB">
<feFlood flood-opacity="0" result="BackgroundImageFix"/>
<feGaussianBlur in="BackgroundImageFix" stdDeviation="2"/>
<feComposite in2="SourceAlpha" operator="in" result="effect1_backgroundBlur_1_2349"/>
<feBlend mode="normal" in="SourceGraphic" in2="effect1_backgroundBlur_1_2349" result="shape"/>
</filter>
</defs>
</svg>
