<svg width="58" height="65" viewBox="0 0 58 65" fill="none" xmlns="http://www.w3.org/2000/svg">
<path fill-rule="evenodd" clip-rule="evenodd" d="M11.9159 18.5941L18.4143 25.7582C19.0894 26.5018 20.2919 25.8759 20.1046 24.8799L16.9655 8.22319L22.0397 11.2651C22.5456 11.568 23.1977 11.3728 23.4639 10.8361L28.5545 0.53418L33.6468 10.8361C33.9112 11.3728 34.5634 11.568 35.0693 11.2651L40.1435 8.22319L37.0044 24.8799C36.8171 25.8759 38.0212 26.5018 38.6947 25.7582L45.1931 18.5941L46.839 22.5816C47.0082 22.9904 47.4386 23.2193 47.8624 23.125L56.3008 21.2625L53.4195 30.2874C53.252 30.809 53.4902 31.376 53.9731 31.6132L57.109 33.151L42.7619 45.1052C42.3792 45.4231 42.2379 45.9548 42.4087 46.4276L44.2107 51.4027L30.9035 48.9951C30.0197 48.8352 29.2214 49.557 29.2658 50.474L29.9343 64.1948H27.1746L27.8432 50.474C27.8876 49.557 27.0892 48.8352 26.2055 48.9951L12.8982 51.4027L14.7002 46.4276C14.8711 45.9548 14.7298 45.4231 14.3471 45.1052L0 33.151L3.13585 31.6132C3.62044 31.376 3.85699 30.809 3.68943 30.2874L0.809835 21.2625L9.24658 23.125C9.67203 23.2193 10.1008 22.9904 10.27 22.5816L11.9159 18.5941Z" fill="#950000"/>
</svg>
