<svg width="24" height="23" viewBox="0 0 24 23" fill="none" xmlns="http://www.w3.org/2000/svg">
<path fill-rule="evenodd" clip-rule="evenodd" d="M3.78947 1.26376C3.78947 0.566086 4.39191 0 5.13598 0H22.6522C23.3963 0 24 0.566086 24 1.26376C24 1.96144 23.3963 2.52632 22.6522 2.52632H5.13598C4.39191 2.52632 3.78947 1.96144 3.78947 1.26376Z" fill="#898989"/>
<path fill-rule="evenodd" clip-rule="evenodd" d="M3.78947 6.31579C3.78947 5.61845 4.39191 5.05263 5.13598 5.05263H22.6522C23.3963 5.05263 24 5.61845 24 6.31579C24 7.01313 23.3963 7.57895 22.6522 7.57895H5.13598C4.39191 7.57895 3.78947 7.01313 3.78947 6.31579Z" fill="#898989"/>
<path fill-rule="evenodd" clip-rule="evenodd" d="M3.78947 11.3678C3.78947 10.6701 4.39191 10.1053 5.13598 10.1053H22.6522C23.3963 10.1053 24 10.6701 24 11.3678C24 12.0655 23.3963 12.6316 22.6522 12.6316H5.13598C4.39191 12.6316 3.78947 12.0655 3.78947 11.3678Z" fill="#898989"/>
<path fill-rule="evenodd" clip-rule="evenodd" d="M3.78947 16.4204C3.78947 15.7228 4.39191 15.1579 5.13598 15.1579H22.6522C23.3963 15.1579 24 15.7228 24 16.4204C24 17.1181 23.3963 17.6842 22.6522 17.6842H5.13598C4.39191 17.6842 3.78947 17.1181 3.78947 16.4204Z" fill="#898989"/>
<path fill-rule="evenodd" clip-rule="evenodd" d="M3.78947 21.4731C3.78947 20.7754 4.39191 20.2105 5.13598 20.2105H22.6522C23.3963 20.2105 24 20.7754 24 21.4731C24 22.1708 23.3963 22.7368 22.6522 22.7368H5.13598C4.39191 22.7368 3.78947 22.1708 3.78947 21.4731Z" fill="#898989"/>
<path d="M2.52632 1.26376C2.52632 1.96144 1.9605 2.52632 1.26316 2.52632C0.565815 2.52632 0 1.96144 0 1.26376C0 0.566086 0.565815 0 1.26316 0C1.9605 0 2.52632 0.566086 2.52632 1.26376Z" fill="#898989"/>
<path d="M2.52632 6.31579C2.52632 7.01313 1.9605 7.57895 1.26316 7.57895C0.565815 7.57895 0 7.01313 0 6.31579C0 5.61845 0.565815 5.05263 1.26316 5.05263C1.9605 5.05263 2.52632 5.61845 2.52632 6.31579Z" fill="#898989"/>
<path d="M2.52632 11.3672C2.52632 12.0646 1.9605 12.6304 1.26316 12.6304C0.565815 12.6304 0 12.0646 0 11.3672C0 10.6699 0.565815 10.1053 1.26316 10.1053C1.9605 10.1053 2.52632 10.6699 2.52632 11.3672Z" fill="#898989"/>
<path d="M2.52632 16.4198C2.52632 17.1172 1.9605 17.683 1.26316 17.683C0.565815 17.683 0 17.1172 0 16.4198C0 15.7225 0.565815 15.1579 1.26316 15.1579C1.9605 15.1579 2.52632 15.7225 2.52632 16.4198Z" fill="#898989"/>
<path d="M2.52632 21.4725C2.52632 22.1698 1.9605 22.7356 1.26316 22.7356C0.565815 22.7356 0 22.1698 0 21.4725C0 20.7751 0.565815 20.2105 1.26316 20.2105C1.9605 20.2105 2.52632 20.7751 2.52632 21.4725Z" fill="#898989"/>
</svg>
