<svg width="35" height="28" viewBox="0 0 35 28" fill="none" xmlns="http://www.w3.org/2000/svg">
<path d="M32.6633 27.9998C33.943 27.9998 34.9965 26.9463 34.9965 25.6665V23.3333C34.9965 15.6535 28.677 9.33403 20.9972 9.33403H6.79957L12.1485 3.98513C12.5859 3.54766 12.8321 2.95327 12.8321 2.33438C12.8321 1.05345 11.7787 0 10.4977 0C9.87883 0 9.28445 0.246155 8.84697 0.683633L1.50901 8.02743C0.543056 8.9928 0 10.3041 0 11.6702C0 13.0363 0.543056 14.3475 1.50901 15.3129L9.43027 23.2342C9.86775 23.6716 10.4621 23.9178 11.081 23.9178C12.362 23.9178 13.4154 22.8643 13.4154 21.5834C13.4154 20.9645 13.1693 20.3701 12.7318 19.9327L6.79957 14.0005H20.9972C26.1169 14.0005 30.3301 18.2137 30.3301 23.3333V25.6665C30.3301 26.9463 31.3835 27.9998 32.6633 27.9998Z" fill="#9FA3A7"/>
</svg>
