<svg width="167" height="45" viewBox="0 0 167 45" fill="none" xmlns="http://www.w3.org/2000/svg">
<mask id="mask0_388_318" style="mask-type:luminance" maskUnits="userSpaceOnUse" x="122" y="0" width="45" height="45">
<path d="M144.5 45C156.926 45 167 34.9264 167 22.5C167 10.0736 156.926 0 144.5 0C132.074 0 122 10.0736 122 22.5C122 34.9264 132.074 45 144.5 45Z" fill="white"/>
</mask>
<g mask="url(#mask0_388_318)">
<path d="M144.501 44.9995C156.927 44.9995 167.001 34.9261 167.001 22.5C167.001 10.0738 156.927 0.000488281 144.501 0.000488281C132.075 0.000488281 122.002 10.0738 122.002 22.5C122.002 34.9261 132.075 44.9995 144.501 44.9995Z" fill="#DAE0E5"/>
<path d="M153.076 34.8808C153.021 34.8657 152.984 34.8146 152.986 34.7578V32.9977C154.01 31.6629 154.776 30.1479 155.243 28.5311C156.402 27.3814 156.918 25.5645 157.197 24.5851C157.67 22.9953 158.101 20.691 156.856 19.0397L156.799 18.964C157.4 16.0731 158.148 9.24077 152.957 5.77731C153.566 5.15653 153.896 4.31385 153.871 3.44467C153.866 3.36045 153.827 3.28143 153.762 3.22702C153.696 3.1745 153.613 3.14895 153.53 3.15605C153.464 3.15605 146.972 3.89416 143.845 3.24595C140.637 2.57881 137.107 5.01553 136.383 7.50431C135.173 7.66423 134.07 8.2869 133.307 9.24077C131.888 10.9867 131.457 13.7736 132.016 17.5067C132.054 17.9799 132.11 18.453 132.196 18.9262L132.139 18.9971C130.894 20.6437 131.349 22.948 131.798 24.5425C132.077 25.5219 132.588 27.3388 133.747 28.4838C134.212 30.1115 134.977 31.6378 136.004 32.9835V34.7152C136.008 34.7725 135.97 34.8245 135.915 34.8382C131.476 35.9028 121.147 39.177 121.147 47.3531C121.147 48.2383 121.876 48.9665 122.761 48.9665H166.234C167.119 48.9665 167.847 48.2383 167.847 47.3531C167.847 39.177 157.519 35.9028 153.076 34.8808ZM144.497 41.1501C141.748 41.1889 139.142 39.8934 137.514 37.6771C138.224 37.2816 138.766 36.6381 139.033 35.8697C139.76 36.3504 140.543 36.7413 141.365 37.0337C143.391 37.7505 145.604 37.7505 147.63 37.0337C148.448 36.7356 149.228 36.3414 149.953 35.8602C150.217 36.639 150.762 37.292 151.481 37.6913C149.85 39.9024 147.245 41.1922 144.497 41.1501ZM134.585 23.7949C134.012 21.7745 134.254 21.0412 134.448 20.7857C134.584 20.6144 134.797 20.5221 135.016 20.5396H135.153C135.318 20.5477 135.462 20.4209 135.474 20.2557C135.474 20.2131 135.834 15.8602 138.413 14.294C139.7 13.5086 141.356 13.5417 143.329 14.3839C147.369 16.1251 150.379 16.0021 152.21 15.5952C154.296 17.1377 153.696 19.598 153.554 20.0807V20.1422C153.518 20.2415 153.536 20.3522 153.601 20.4355C153.665 20.5183 153.766 20.5628 153.871 20.5538C154.127 20.5065 154.39 20.5983 154.561 20.7951C154.755 21.0506 154.997 21.784 154.424 23.8044C153.691 26.3925 153.095 26.6433 152.929 26.6433C152.787 26.6532 152.67 26.762 152.65 26.9035C152.224 29.662 150.029 33.0876 146.66 34.3036C145.263 34.7999 143.737 34.7999 142.34 34.3036C138.82 33.0687 136.776 29.6005 136.359 26.8988C136.339 26.7573 136.223 26.6485 136.08 26.6385C135.915 26.6243 135.318 26.383 134.585 23.7949Z" fill="black"/>
</g>
<path d="M3.54102 13.0938H6.79492L12.2363 28.0781L17.6641 13.0938H20.9316L13.5352 33H10.9238L3.54102 13.0938ZM1.90039 13.0938H5.08594L5.66016 26.8613V33H1.90039V13.0938ZM19.373 13.0938H22.5723V33H18.8125V26.8613L19.373 13.0938ZM34.2754 29.8555V23.0332C34.2754 22.5319 34.1888 22.099 34.0156 21.7344C33.8424 21.3698 33.5781 21.0872 33.2227 20.8867C32.8672 20.6862 32.416 20.5859 31.8691 20.5859C31.3861 20.5859 30.9622 20.668 30.5977 20.832C30.2422 20.9961 29.9688 21.2285 29.7773 21.5293C29.5859 21.821 29.4902 22.1582 29.4902 22.541H25.8672C25.8672 21.9303 26.013 21.3516 26.3047 20.8047C26.5964 20.2487 27.0111 19.7565 27.5488 19.3281C28.0957 18.8906 28.7474 18.5488 29.5039 18.3027C30.2695 18.0566 31.1263 17.9336 32.0742 17.9336C33.1953 17.9336 34.1934 18.125 35.0684 18.5078C35.9525 18.8815 36.6452 19.4466 37.1465 20.2031C37.6569 20.9596 37.9121 21.9121 37.9121 23.0605V29.5137C37.9121 30.252 37.9577 30.8854 38.0488 31.4141C38.1491 31.9336 38.2949 32.3848 38.4863 32.7676V33H34.8086C34.6354 32.6263 34.5033 32.1523 34.4121 31.5781C34.321 30.9948 34.2754 30.4206 34.2754 29.8555ZM34.7812 23.9902L34.8086 26.1367H32.5254C31.9603 26.1367 31.4635 26.196 31.0352 26.3145C30.6068 26.4238 30.2559 26.5879 29.9824 26.8066C29.709 27.0163 29.5039 27.2715 29.3672 27.5723C29.2305 27.8639 29.1621 28.1966 29.1621 28.5703C29.1621 28.9349 29.2441 29.263 29.4082 29.5547C29.5814 29.8464 29.8275 30.0788 30.1465 30.252C30.4746 30.416 30.8574 30.498 31.2949 30.498C31.9329 30.498 32.4889 30.3704 32.9629 30.1152C33.4368 29.8509 33.806 29.5319 34.0703 29.1582C34.3346 28.7845 34.4759 28.429 34.4941 28.0918L35.5332 29.6504C35.4056 30.0241 35.2142 30.4206 34.959 30.8398C34.7038 31.2591 34.3757 31.651 33.9746 32.0156C33.5736 32.3802 33.0905 32.681 32.5254 32.918C31.9603 33.1549 31.304 33.2734 30.5566 33.2734C29.5996 33.2734 28.7428 33.082 27.9863 32.6992C27.2298 32.3164 26.6328 31.7923 26.1953 31.127C25.7578 30.4616 25.5391 29.7051 25.5391 28.8574C25.5391 28.0736 25.6849 27.3809 25.9766 26.7793C26.2682 26.1777 26.7012 25.6719 27.2754 25.2617C27.8496 24.8424 28.5605 24.528 29.4082 24.3184C30.265 24.0996 31.2448 23.9902 32.3477 23.9902H34.7812ZM45.8555 30.2656L49.3008 18.207H53.0742L48.002 33H45.7051L45.8555 30.2656ZM43.3398 18.207L46.8262 30.293L46.9492 33H44.6387L39.5527 18.207H43.3398ZM61.4277 33.2734C60.3066 33.2734 59.2995 33.0911 58.4062 32.7266C57.513 32.362 56.752 31.8561 56.123 31.209C55.5033 30.5527 55.0247 29.7917 54.6875 28.9258C54.3594 28.0508 54.1953 27.112 54.1953 26.1094V25.5625C54.1953 24.4232 54.3594 23.3887 54.6875 22.459C55.0156 21.5202 55.4805 20.7135 56.082 20.0391C56.6836 19.3646 57.4036 18.8451 58.2422 18.4805C59.0807 18.1159 60.0059 17.9336 61.0176 17.9336C62.0658 17.9336 62.9909 18.1113 63.793 18.4668C64.5951 18.8132 65.265 19.3053 65.8027 19.9434C66.3405 20.5814 66.7461 21.347 67.0195 22.2402C67.293 23.1243 67.4297 24.1042 67.4297 25.1797V26.6973H55.8359V24.209H63.875V23.9355C63.8568 23.3613 63.7474 22.8372 63.5469 22.3633C63.3464 21.8802 63.0365 21.4974 62.6172 21.2148C62.1979 20.9232 61.6556 20.7773 60.9902 20.7773C60.4525 20.7773 59.9831 20.8958 59.582 21.1328C59.1901 21.3607 58.862 21.6888 58.5977 22.1172C58.3424 22.5365 58.151 23.0378 58.0234 23.6211C57.8958 24.2044 57.832 24.8516 57.832 25.5625V26.1094C57.832 26.7292 57.9141 27.3034 58.0781 27.832C58.2513 28.3607 58.502 28.821 58.8301 29.2129C59.1673 29.5957 59.5684 29.8965 60.0332 30.1152C60.5072 30.3249 61.0449 30.4297 61.6465 30.4297C62.403 30.4297 63.0866 30.2839 63.6973 29.9922C64.3171 29.6914 64.8548 29.2493 65.3105 28.666L67.1289 30.5527C66.819 31.0085 66.3997 31.446 65.8711 31.8652C65.3516 32.2845 64.7227 32.6263 63.9844 32.8906C63.2461 33.1458 62.3939 33.2734 61.4277 33.2734ZM73.459 21.2285V33H69.8496V18.207H73.2676L73.459 21.2285ZM77.957 18.1113L77.9023 21.4746C77.7018 21.4382 77.474 21.4108 77.2188 21.3926C76.9727 21.3743 76.7402 21.3652 76.5215 21.3652C75.9655 21.3652 75.4779 21.4427 75.0586 21.5977C74.6393 21.7435 74.2884 21.9577 74.0059 22.2402C73.7324 22.5228 73.5228 22.8691 73.377 23.2793C73.2311 23.6803 73.1491 24.1361 73.1309 24.6465L72.3516 24.5508C72.3516 23.612 72.4473 22.7415 72.6387 21.9395C72.8301 21.1374 73.1081 20.4355 73.4727 19.834C73.8372 19.2324 74.293 18.7676 74.8398 18.4395C75.3958 18.1022 76.0339 17.9336 76.7539 17.9336C76.9544 17.9336 77.1686 17.9518 77.3965 17.9883C77.6335 18.0156 77.8203 18.0566 77.957 18.1113ZM83.7676 18.207V33H80.1445V18.207H83.7676ZM79.8984 14.3379C79.8984 13.8001 80.0807 13.3535 80.4453 12.998C80.819 12.6426 81.3203 12.4648 81.9492 12.4648C82.5781 12.4648 83.0749 12.6426 83.4395 12.998C83.8132 13.3535 84 13.8001 84 14.3379C84 14.8665 83.8132 15.3086 83.4395 15.6641C83.0749 16.0195 82.5781 16.1973 81.9492 16.1973C81.3203 16.1973 80.819 16.0195 80.4453 15.6641C80.0807 15.3086 79.8984 14.8665 79.8984 14.3379ZM93.2832 30.4297C93.7936 30.4297 94.2493 30.3294 94.6504 30.1289C95.0514 29.9284 95.3704 29.6458 95.6074 29.2812C95.8535 28.9167 95.9857 28.4928 96.0039 28.0098H99.4082C99.39 29.0124 99.1074 29.9102 98.5605 30.7031C98.0137 31.4961 97.2845 32.125 96.373 32.5898C95.4707 33.0456 94.459 33.2734 93.3379 33.2734C92.1986 33.2734 91.2051 33.082 90.3574 32.6992C89.5098 32.3164 88.8034 31.7832 88.2383 31.0996C87.6823 30.416 87.263 29.623 86.9805 28.7207C86.707 27.8184 86.5703 26.8522 86.5703 25.8223V25.3848C86.5703 24.3548 86.707 23.3887 86.9805 22.4863C87.263 21.584 87.6823 20.791 88.2383 20.1074C88.8034 19.4238 89.5098 18.8906 90.3574 18.5078C91.2051 18.125 92.194 17.9336 93.3242 17.9336C94.5182 17.9336 95.5664 18.166 96.4688 18.6309C97.3802 19.0957 98.0911 19.752 98.6016 20.5996C99.1211 21.4473 99.39 22.4453 99.4082 23.5938H96.0039C95.9857 23.0651 95.8672 22.5911 95.6484 22.1719C95.4297 21.7526 95.1198 21.4154 94.7188 21.1602C94.3177 20.9049 93.8301 20.7773 93.2559 20.7773C92.6452 20.7773 92.1348 20.9049 91.7246 21.1602C91.3236 21.4154 91.0091 21.7663 90.7812 22.2129C90.5625 22.6504 90.4076 23.1426 90.3164 23.6895C90.2344 24.2272 90.1934 24.7923 90.1934 25.3848V25.8223C90.1934 26.4238 90.2344 26.998 90.3164 27.5449C90.4076 28.0918 90.5625 28.584 90.7812 29.0215C91.0091 29.4499 91.3236 29.7917 91.7246 30.0469C92.1348 30.3021 92.6543 30.4297 93.2832 30.4297ZM105.424 11.9863V33H101.814V11.9863H105.424ZM114.693 18.207L108.254 25.4395L104.768 28.9805L103.619 26.1777L106.312 22.7871L110.332 18.207H114.693ZM111.002 33L106.422 26.1094L108.828 23.7715L115.186 33H111.002Z" fill="#DAE0E5"/>
</svg>
