<svg width="181" height="50" viewBox="0 0 181 50" fill="none" xmlns="http://www.w3.org/2000/svg">
<rect width="50" height="50" rx="7" fill="#DAE0E5" fill-opacity="0.7"/>
<circle cx="25" cy="25" r="20" fill="#1A1A1B"/>
<circle cx="25" cy="25" r="15" fill="white"/>
<circle cx="25" cy="25" r="12.5" fill="#950000" fill-opacity="1"/>
<path d="M80.4455 20.181C80.4455 22.1283 80.0085 23.631 79.1345 24.689C78.2758 25.7317 77.0108 26.253 75.3395 26.253C73.5608 26.253 72.2038 25.448 71.2685 23.838C70.4252 22.3967 70.0035 20.4417 70.0035 17.973C70.0035 15.5043 70.4328 13.534 71.2915 12.062C72.2268 10.452 73.5915 9.647 75.3855 9.647C77.9768 9.647 79.6098 11.004 80.2845 13.718L77.5935 14.592C77.2102 13.212 76.4588 12.522 75.3395 12.522C73.7448 12.522 72.9475 14.3237 72.9475 17.927C72.9475 21.561 73.7602 23.378 75.3855 23.378C76.2442 23.378 76.8345 23.1403 77.1565 22.665C77.4938 22.1743 77.6625 21.3233 77.6625 20.112H75.3625V17.421H80.4455V20.181ZM93.0745 17.927C93.0745 20.3957 92.6451 22.366 91.7865 23.838C90.8511 25.448 89.4941 26.253 87.7155 26.253C85.9368 26.253 84.5798 25.448 83.6445 23.838C82.8011 22.3967 82.3795 20.4417 82.3795 17.973C82.3795 15.5043 82.8088 13.534 83.6675 12.062C84.6028 10.452 85.9675 9.647 87.7615 9.647C89.5401 9.647 90.8895 10.452 91.8095 12.062C92.6528 13.5033 93.0745 15.4583 93.0745 17.927ZM90.1305 17.973C90.1305 14.339 89.3255 12.522 87.7155 12.522C86.1208 12.522 85.3235 14.3237 85.3235 17.927C85.3235 21.561 86.1361 23.378 87.7615 23.378C89.3408 23.378 90.1305 21.5763 90.1305 17.973ZM110.31 26H107.55L104.583 18.824C104.062 17.5513 103.656 16.4627 103.364 15.558C103.395 16.8767 103.41 18.0957 103.41 19.215V26H100.788V9.9H103.686L106.515 16.961C107.098 18.4023 107.52 19.5217 107.78 20.319C107.719 17.6817 107.688 16.432 107.688 16.57V9.9H110.31V26ZM122.798 19.56C122.798 21.7527 122.446 23.3933 121.74 24.482C120.958 25.6627 119.716 26.253 118.014 26.253C114.825 26.253 113.23 24.0373 113.23 19.606V9.9H116.105V19.606C116.105 20.9707 116.259 21.9443 116.565 22.527C116.872 23.1097 117.363 23.401 118.037 23.401C118.712 23.401 119.195 23.1173 119.486 22.55C119.778 21.9673 119.923 20.986 119.923 19.606V9.9H122.798V19.56ZM134.989 22.136C134.207 24.8807 132.666 26.253 130.366 26.253C128.664 26.253 127.345 25.448 126.41 23.838C125.567 22.366 125.145 20.411 125.145 17.973C125.145 15.5197 125.574 13.5493 126.433 12.062C127.368 10.452 128.695 9.647 130.412 9.647C132.727 9.647 134.245 11.004 134.966 13.718L132.275 14.592C132.06 13.8253 131.815 13.2887 131.539 12.982C131.278 12.6753 130.887 12.522 130.366 12.522C128.848 12.522 128.089 14.3237 128.089 17.927C128.089 21.561 128.863 23.378 130.412 23.378C130.903 23.378 131.301 23.217 131.608 22.895C131.915 22.5577 132.214 21.952 132.505 21.078L134.989 22.136ZM145.132 26H137.22V9.9H140.095V23.194H145.132V26ZM155.881 26H147.417V9.9H155.674V12.66H150.292V16.064H153.903V18.778H150.292V23.24H155.881V26ZM168.545 26H165.578L164.819 22.642H161.208L160.449 26H157.505L161.622 9.9H164.428L168.545 26ZM164.198 19.951L163.761 18.042C163.408 16.4933 163.155 15.19 163.002 14.132C162.864 15.144 162.619 16.432 162.266 17.996L161.829 19.951H164.198ZM180.14 26H177.012L174.505 19.882H173.562V26H170.687V9.9H174.965C176.56 9.9 177.809 10.3293 178.714 11.188C179.634 12.0313 180.094 13.2733 180.094 14.914C180.094 16.984 179.189 18.4483 177.38 19.307L180.14 26ZM177.219 14.96C177.219 13.4573 176.422 12.706 174.827 12.706H173.562V17.191H174.988C176.475 17.191 177.219 16.4473 177.219 14.96ZM80.2725 38.0215V37.9531C80.2725 36.9596 80.3704 36.0618 80.5664 35.2598C80.7669 34.4531 81.0199 33.7467 81.3252 33.1406C81.6305 32.5345 81.9473 32.0332 82.2754 31.6367C82.6035 31.2357 82.8997 30.9463 83.1641 30.7686L83.4102 31.6025C83.196 31.8076 82.9749 32.0902 82.7471 32.4502C82.5238 32.8102 82.3164 33.2523 82.125 33.7764C81.9336 34.3005 81.7786 34.9089 81.6602 35.6016C81.5417 36.2943 81.4824 37.0736 81.4824 37.9395V38.0352C81.4824 38.901 81.5417 39.6826 81.6602 40.3799C81.7786 41.0726 81.9336 41.6833 82.125 42.2119C82.3164 42.7406 82.5238 43.1895 82.7471 43.5586C82.9749 43.9323 83.196 44.2285 83.4102 44.4473L83.1641 45.2129C82.8997 45.0352 82.6035 44.7458 82.2754 44.3447C81.9473 43.9482 81.6305 43.4469 81.3252 42.8408C81.0199 42.2393 80.7669 41.5352 80.5664 40.7285C80.3704 39.9219 80.2725 39.0195 80.2725 38.0215ZM87.1152 42H85.4199L85.4336 40.9268H87.1152C87.7122 40.9268 88.1976 40.8128 88.5713 40.585C88.945 40.3525 89.2207 40.0107 89.3984 39.5596C89.5762 39.1038 89.665 38.541 89.665 37.8711V36.1689C89.665 35.6403 89.6149 35.1846 89.5146 34.8018C89.4144 34.4189 89.264 34.1045 89.0635 33.8584C88.863 33.6123 88.61 33.43 88.3047 33.3115C87.9993 33.1885 87.6416 33.127 87.2314 33.127H85.3857V32.0469H87.2314C87.792 32.0469 88.2979 32.1357 88.749 32.3135C89.2002 32.4867 89.5876 32.7487 89.9111 33.0996C90.2347 33.446 90.4808 33.8766 90.6494 34.3916C90.8226 34.9066 90.9092 35.5036 90.9092 36.1826V37.8711C90.9092 38.5501 90.8226 39.1471 90.6494 39.6621C90.4808 40.1771 90.2324 40.6077 89.9043 40.9541C89.5762 41.3005 89.1774 41.5625 88.708 41.7402C88.2432 41.9134 87.7122 42 87.1152 42ZM86.1172 32.0469V42H84.8594V32.0469H86.1172ZM95.3389 42.1367C94.8968 42.1367 94.498 42.0706 94.1426 41.9385C93.7871 41.8063 93.484 41.6058 93.2334 41.3369C92.9827 41.0635 92.7913 40.7194 92.6592 40.3047C92.527 39.89 92.4609 39.4001 92.4609 38.835V38.001C92.4609 37.3493 92.5361 36.7979 92.6865 36.3467C92.8415 35.8955 93.0488 35.5332 93.3086 35.2598C93.5684 34.9818 93.8623 34.7812 94.1904 34.6582C94.5186 34.5306 94.8558 34.4668 95.2021 34.4668C95.667 34.4668 96.0635 34.542 96.3916 34.6924C96.7197 34.8428 96.9863 35.0661 97.1914 35.3623C97.3965 35.6585 97.5469 36.0231 97.6426 36.4561C97.7428 36.889 97.793 37.388 97.793 37.9531V38.6572H93.1719V37.625H96.583V37.4541C96.5648 37.0713 96.5124 36.734 96.4258 36.4424C96.3438 36.1507 96.207 35.9229 96.0156 35.7588C95.8242 35.5902 95.5531 35.5059 95.2021 35.5059C94.9788 35.5059 94.7715 35.5446 94.5801 35.6221C94.3932 35.695 94.2314 35.8249 94.0947 36.0117C93.9626 36.194 93.8577 36.4469 93.7803 36.7705C93.7074 37.0941 93.6709 37.5042 93.6709 38.001V38.835C93.6709 39.2314 93.7074 39.5732 93.7803 39.8604C93.8577 40.1429 93.9694 40.3776 94.1152 40.5645C94.2656 40.7467 94.4479 40.8835 94.6621 40.9746C94.8809 41.0612 95.1292 41.1045 95.4072 41.1045C95.8128 41.1045 96.1478 41.027 96.4121 40.8721C96.6764 40.7126 96.9066 40.5098 97.1025 40.2637L97.7383 41.0225C97.6061 41.2093 97.4329 41.3893 97.2188 41.5625C97.0091 41.7311 96.7493 41.8701 96.4395 41.9795C96.1341 42.0843 95.7673 42.1367 95.3389 42.1367ZM100.555 31.5V42H99.3516V31.5H100.555ZM105.114 42.1367C104.672 42.1367 104.273 42.0706 103.918 41.9385C103.562 41.8063 103.259 41.6058 103.009 41.3369C102.758 41.0635 102.567 40.7194 102.435 40.3047C102.302 39.89 102.236 39.4001 102.236 38.835V38.001C102.236 37.3493 102.312 36.7979 102.462 36.3467C102.617 35.8955 102.824 35.5332 103.084 35.2598C103.344 34.9818 103.638 34.7812 103.966 34.6582C104.294 34.5306 104.631 34.4668 104.978 34.4668C105.442 34.4668 105.839 34.542 106.167 34.6924C106.495 34.8428 106.762 35.0661 106.967 35.3623C107.172 35.6585 107.322 36.0231 107.418 36.4561C107.518 36.889 107.568 37.388 107.568 37.9531V38.6572H102.947V37.625H106.358V37.4541C106.34 37.0713 106.288 36.734 106.201 36.4424C106.119 36.1507 105.982 35.9229 105.791 35.7588C105.6 35.5902 105.328 35.5059 104.978 35.5059C104.754 35.5059 104.547 35.5446 104.355 35.6221C104.169 35.695 104.007 35.8249 103.87 36.0117C103.738 36.194 103.633 36.4469 103.556 36.7705C103.483 37.0941 103.446 37.5042 103.446 38.001V38.835C103.446 39.2314 103.483 39.5732 103.556 39.8604C103.633 40.1429 103.745 40.3776 103.891 40.5645C104.041 40.7467 104.223 40.8835 104.438 40.9746C104.656 41.0612 104.905 41.1045 105.183 41.1045C105.588 41.1045 105.923 41.027 106.188 40.8721C106.452 40.7126 106.682 40.5098 106.878 40.2637L107.514 41.0225C107.382 41.2093 107.208 41.3893 106.994 41.5625C106.785 41.7311 106.525 41.8701 106.215 41.9795C105.91 42.0843 105.543 42.1367 105.114 42.1367ZM111.731 34.6035V35.5742H108.279V34.6035H111.731ZM109.407 32.8057H110.617V40.168C110.617 40.4186 110.647 40.6077 110.706 40.7354C110.77 40.863 110.85 40.9473 110.945 40.9883C111.041 41.0293 111.144 41.0498 111.253 41.0498C111.335 41.0498 111.426 41.0407 111.526 41.0225C111.627 40.9997 111.695 40.9814 111.731 40.9678L111.725 42C111.643 42.0319 111.533 42.0615 111.396 42.0889C111.26 42.1208 111.087 42.1367 110.877 42.1367C110.617 42.1367 110.376 42.0752 110.152 41.9521C109.929 41.8291 109.749 41.624 109.612 41.3369C109.476 41.0452 109.407 40.6533 109.407 40.1611V32.8057ZM115.819 42.1367C115.377 42.1367 114.979 42.0706 114.623 41.9385C114.268 41.8063 113.965 41.6058 113.714 41.3369C113.463 41.0635 113.272 40.7194 113.14 40.3047C113.007 39.89 112.941 39.4001 112.941 38.835V38.001C112.941 37.3493 113.017 36.7979 113.167 36.3467C113.322 35.8955 113.529 35.5332 113.789 35.2598C114.049 34.9818 114.343 34.7812 114.671 34.6582C114.999 34.5306 115.336 34.4668 115.683 34.4668C116.147 34.4668 116.544 34.542 116.872 34.6924C117.2 34.8428 117.467 35.0661 117.672 35.3623C117.877 35.6585 118.027 36.0231 118.123 36.4561C118.223 36.889 118.273 37.388 118.273 37.9531V38.6572H113.652V37.625H117.063V37.4541C117.045 37.0713 116.993 36.734 116.906 36.4424C116.824 36.1507 116.688 35.9229 116.496 35.7588C116.305 35.5902 116.034 35.5059 115.683 35.5059C115.459 35.5059 115.252 35.5446 115.061 35.6221C114.874 35.695 114.712 35.8249 114.575 36.0117C114.443 36.194 114.338 36.4469 114.261 36.7705C114.188 37.0941 114.151 37.5042 114.151 38.001V38.835C114.151 39.2314 114.188 39.5732 114.261 39.8604C114.338 40.1429 114.45 40.3776 114.596 40.5645C114.746 40.7467 114.928 40.8835 115.143 40.9746C115.361 41.0612 115.61 41.1045 115.888 41.1045C116.293 41.1045 116.628 41.027 116.893 40.8721C117.157 40.7126 117.387 40.5098 117.583 40.2637L118.219 41.0225C118.087 41.2093 117.913 41.3893 117.699 41.5625C117.49 41.7311 117.23 41.8701 116.92 41.9795C116.615 42.0843 116.248 42.1367 115.819 42.1367ZM124.159 36.0732V42H122.956V34.6035H124.091L124.159 36.0732ZM123.913 38.0215L123.353 38.001C123.348 37.4951 123.398 37.028 123.503 36.5996C123.608 36.1667 123.765 35.7907 123.975 35.4717C124.189 35.1527 124.455 34.9066 124.774 34.7334C125.098 34.5557 125.474 34.4668 125.902 34.4668C126.185 34.4668 126.447 34.5169 126.688 34.6172C126.935 34.7129 127.149 34.8656 127.331 35.0752C127.513 35.2848 127.655 35.5537 127.755 35.8818C127.86 36.21 127.912 36.6064 127.912 37.0713V42H126.702V37.1328C126.702 36.7454 126.65 36.4355 126.545 36.2031C126.445 35.9707 126.301 35.8021 126.114 35.6973C125.927 35.5879 125.704 35.5332 125.444 35.5332C125.148 35.5332 124.9 35.5993 124.699 35.7314C124.503 35.8636 124.346 36.0459 124.228 36.2783C124.114 36.5107 124.032 36.7773 123.981 37.0781C123.936 37.3743 123.913 37.6888 123.913 38.0215ZM127.898 37.3242L127.092 37.584C127.087 37.1784 127.137 36.7887 127.242 36.415C127.347 36.0413 127.502 35.7087 127.707 35.417C127.917 35.1253 128.176 34.8952 128.486 34.7266C128.796 34.5534 129.156 34.4668 129.566 34.4668C129.904 34.4668 130.202 34.5192 130.462 34.624C130.722 34.7288 130.94 34.8906 131.118 35.1094C131.3 35.3236 131.437 35.5993 131.528 35.9365C131.619 36.2738 131.665 36.6748 131.665 37.1396V42H130.455V37.126C130.455 36.7113 130.403 36.39 130.298 36.1621C130.198 35.9297 130.054 35.7679 129.867 35.6768C129.68 35.5811 129.457 35.5332 129.197 35.5332C128.988 35.5332 128.801 35.5811 128.637 35.6768C128.477 35.7725 128.343 35.9046 128.233 36.0732C128.124 36.2373 128.04 36.4264 127.98 36.6406C127.926 36.8548 127.898 37.0827 127.898 37.3242ZM135.206 41.2344L136.854 34.6035H138.139L135.698 43.1416C135.639 43.3239 135.559 43.5199 135.459 43.7295C135.363 43.9437 135.24 44.1465 135.09 44.3379C134.939 44.5293 134.759 44.6842 134.55 44.8027C134.34 44.9258 134.094 44.9873 133.812 44.9873C133.725 44.9873 133.613 44.9736 133.477 44.9463C133.344 44.9189 133.249 44.8962 133.189 44.8779V43.8525C133.217 43.8571 133.26 43.8617 133.319 43.8662C133.379 43.8753 133.422 43.8799 133.449 43.8799C133.686 43.8799 133.887 43.8411 134.051 43.7637C134.219 43.6908 134.363 43.5654 134.481 43.3877C134.6 43.2145 134.7 42.9753 134.782 42.6699L135.206 41.2344ZM134.14 34.6035L135.609 40.3457L135.924 41.6787L135.062 42.1436L132.82 34.6035H134.14ZM146.417 40.5645V31.5H147.62V42H146.52L146.417 40.5645ZM142.281 38.6572V37.9668C142.281 37.3561 142.34 36.832 142.459 36.3945C142.577 35.9525 142.746 35.5902 142.965 35.3076C143.184 35.0205 143.446 34.8086 143.751 34.6719C144.056 34.5352 144.394 34.4668 144.763 34.4668C145.146 34.4668 145.474 34.5443 145.747 34.6992C146.025 34.8542 146.257 35.0798 146.444 35.376C146.631 35.6676 146.777 36.0231 146.882 36.4424C146.991 36.8571 147.064 37.3265 147.101 37.8506V38.7734C147.06 39.293 146.984 39.7601 146.875 40.1748C146.77 40.5895 146.624 40.9427 146.438 41.2344C146.251 41.526 146.018 41.7493 145.74 41.9043C145.462 42.0592 145.132 42.1367 144.749 42.1367C144.384 42.1367 144.052 42.0661 143.751 41.9248C143.45 41.779 143.188 41.5625 142.965 41.2754C142.746 40.9837 142.577 40.6214 142.459 40.1885C142.34 39.751 142.281 39.2406 142.281 38.6572ZM143.491 37.9668V38.6572C143.491 39.0674 143.521 39.4251 143.58 39.7305C143.639 40.0312 143.733 40.2819 143.86 40.4824C143.988 40.6784 144.15 40.8242 144.346 40.9199C144.546 41.0156 144.785 41.0635 145.063 41.0635C145.401 41.0635 145.676 40.9814 145.891 40.8174C146.105 40.6533 146.276 40.4368 146.403 40.168C146.535 39.8945 146.64 39.6006 146.718 39.2861V37.3447C146.672 37.1123 146.606 36.889 146.52 36.6748C146.433 36.4561 146.324 36.2624 146.191 36.0938C146.064 35.9206 145.907 35.7839 145.72 35.6836C145.537 35.5833 145.323 35.5332 145.077 35.5332C144.799 35.5332 144.558 35.5833 144.353 35.6836C144.152 35.7839 143.988 35.9342 143.86 36.1348C143.737 36.3353 143.644 36.5882 143.58 36.8936C143.521 37.1989 143.491 37.5566 143.491 37.9668ZM153.109 40.7354V36.7227C153.109 36.431 153.064 36.1963 152.973 36.0186C152.886 35.8408 152.754 35.7109 152.576 35.6289C152.403 35.5469 152.184 35.5059 151.92 35.5059C151.665 35.5059 151.444 35.5583 151.257 35.6631C151.075 35.7679 150.933 35.9069 150.833 36.0801C150.737 36.2533 150.689 36.4447 150.689 36.6543H149.479C149.479 36.39 149.536 36.1279 149.65 35.8682C149.769 35.6084 149.938 35.3737 150.156 35.1641C150.375 34.9499 150.637 34.7812 150.942 34.6582C151.252 34.5306 151.599 34.4668 151.981 34.4668C152.437 34.4668 152.84 34.542 153.191 34.6924C153.542 34.8382 153.818 35.0775 154.019 35.4102C154.219 35.7428 154.319 36.1849 154.319 36.7363V40.3867C154.319 40.6328 154.338 40.8949 154.374 41.1729C154.415 41.4508 154.472 41.6901 154.545 41.8906V42H153.294C153.235 41.8542 153.189 41.6605 153.157 41.4189C153.125 41.1729 153.109 40.945 153.109 40.7354ZM153.301 37.5156L153.314 38.4043H152.474C152.187 38.4043 151.924 38.4362 151.688 38.5C151.455 38.5638 151.255 38.6572 151.086 38.7803C150.917 38.8988 150.787 39.0469 150.696 39.2246C150.61 39.4023 150.566 39.6051 150.566 39.833C150.566 40.1292 150.607 40.3662 150.689 40.5439C150.771 40.7171 150.895 40.8424 151.059 40.9199C151.223 40.9974 151.43 41.0361 151.681 41.0361C151.986 41.0361 152.255 40.9655 152.487 40.8242C152.72 40.6829 152.9 40.512 153.027 40.3115C153.16 40.111 153.221 39.9242 153.212 39.751L153.479 40.3184C153.46 40.4961 153.401 40.6898 153.301 40.8994C153.205 41.1045 153.071 41.3027 152.897 41.4941C152.724 41.681 152.519 41.8359 152.282 41.959C152.05 42.0775 151.788 42.1367 151.496 42.1367C151.068 42.1367 150.692 42.0547 150.368 41.8906C150.049 41.7266 149.801 41.485 149.623 41.166C149.445 40.847 149.356 40.4528 149.356 39.9834C149.356 39.6279 149.418 39.2998 149.541 38.999C149.664 38.6982 149.846 38.4385 150.088 38.2197C150.329 37.9964 150.632 37.8232 150.997 37.7002C151.366 37.5771 151.792 37.5156 152.275 37.5156H153.301ZM158.899 34.6035V35.5742H155.447V34.6035H158.899ZM156.575 32.8057H157.785V40.168C157.785 40.4186 157.815 40.6077 157.874 40.7354C157.938 40.863 158.018 40.9473 158.113 40.9883C158.209 41.0293 158.312 41.0498 158.421 41.0498C158.503 41.0498 158.594 41.0407 158.694 41.0225C158.795 40.9997 158.863 40.9814 158.899 40.9678L158.893 42C158.811 42.0319 158.701 42.0615 158.564 42.0889C158.428 42.1208 158.255 42.1367 158.045 42.1367C157.785 42.1367 157.544 42.0752 157.32 41.9521C157.097 41.8291 156.917 41.624 156.78 41.3369C156.644 41.0452 156.575 40.6533 156.575 40.1611V32.8057ZM163.965 40.7354V36.7227C163.965 36.431 163.919 36.1963 163.828 36.0186C163.742 35.8408 163.609 35.7109 163.432 35.6289C163.258 35.5469 163.04 35.5059 162.775 35.5059C162.52 35.5059 162.299 35.5583 162.112 35.6631C161.93 35.7679 161.789 35.9069 161.688 36.0801C161.593 36.2533 161.545 36.4447 161.545 36.6543H160.335C160.335 36.39 160.392 36.1279 160.506 35.8682C160.624 35.6084 160.793 35.3737 161.012 35.1641C161.23 34.9499 161.493 34.7812 161.798 34.6582C162.108 34.5306 162.454 34.4668 162.837 34.4668C163.293 34.4668 163.696 34.542 164.047 34.6924C164.398 34.8382 164.674 35.0775 164.874 35.4102C165.075 35.7428 165.175 36.1849 165.175 36.7363V40.3867C165.175 40.6328 165.193 40.8949 165.229 41.1729C165.271 41.4508 165.327 41.6901 165.4 41.8906V42H164.149C164.09 41.8542 164.045 41.6605 164.013 41.4189C163.981 41.1729 163.965 40.945 163.965 40.7354ZM164.156 37.5156L164.17 38.4043H163.329C163.042 38.4043 162.78 38.4362 162.543 38.5C162.311 38.5638 162.11 38.6572 161.941 38.7803C161.773 38.8988 161.643 39.0469 161.552 39.2246C161.465 39.4023 161.422 39.6051 161.422 39.833C161.422 40.1292 161.463 40.3662 161.545 40.5439C161.627 40.7171 161.75 40.8424 161.914 40.9199C162.078 40.9974 162.285 41.0361 162.536 41.0361C162.841 41.0361 163.11 40.9655 163.343 40.8242C163.575 40.6829 163.755 40.512 163.883 40.3115C164.015 40.111 164.076 39.9242 164.067 39.751L164.334 40.3184C164.316 40.4961 164.257 40.6898 164.156 40.8994C164.061 41.1045 163.926 41.3027 163.753 41.4941C163.58 41.681 163.375 41.8359 163.138 41.959C162.905 42.0775 162.643 42.1367 162.352 42.1367C161.923 42.1367 161.547 42.0547 161.224 41.8906C160.905 41.7266 160.656 41.485 160.479 41.166C160.301 40.847 160.212 40.4528 160.212 39.9834C160.212 39.6279 160.273 39.2998 160.396 38.999C160.52 38.6982 160.702 38.4385 160.943 38.2197C161.185 37.9964 161.488 37.8232 161.853 37.7002C162.222 37.5771 162.648 37.5156 163.131 37.5156H164.156ZM169.652 37.9531V38.0215C169.652 39.0195 169.552 39.9219 169.352 40.7285C169.156 41.5352 168.905 42.2393 168.6 42.8408C168.294 43.4469 167.978 43.9482 167.649 44.3447C167.321 44.7458 167.025 45.0352 166.761 45.2129L166.515 44.4473C166.729 44.2422 166.948 43.9551 167.171 43.5859C167.399 43.2214 167.608 42.7702 167.8 42.2324C167.996 41.6992 168.153 41.084 168.271 40.3867C168.39 39.6849 168.449 38.901 168.449 38.0352V37.9395C168.449 37.0736 168.385 36.292 168.258 35.5947C168.13 34.8929 167.966 34.2754 167.766 33.7422C167.565 33.209 167.353 32.7601 167.13 32.3955C166.911 32.0264 166.706 31.7415 166.515 31.541L166.761 30.7686C167.025 30.9463 167.321 31.2357 167.649 31.6367C167.978 32.0332 168.294 32.5345 168.6 33.1406C168.905 33.7467 169.156 34.4531 169.352 35.2598C169.552 36.0618 169.652 36.9596 169.652 37.9531Z" fill="#9FA3A7"/>
</svg>
