<svg width="36" height="34" viewBox="0 0 36 34" fill="none" xmlns="http://www.w3.org/2000/svg">
<path fill-rule="evenodd" clip-rule="evenodd" d="M1.67517 0.0646218C2.50088 -0.0215406 13.5227 -0.0215406 15.7829 0.0646218C18.3228 0.161536 25.9592 0.708733 28.2584 0.958357C29.9572 1.14303 30.4667 1.25665 30.3078 1.41329C30.1726 1.54725 28.5043 1.62208 23.9371 1.70011C19.1684 1.78031 17.1816 1.85296 14.5798 2.03909C11.0676 2.29104 9.60636 2.46816 8.64308 2.76021C6.13458 3.52085 4.88032 5.47701 4.75889 8.81671C4.69392 10.6035 4.95204 12.1086 5.52197 13.2672C5.96196 14.1624 6.51575 14.6346 7.56761 15.0131C8.47427 15.3401 9.20612 15.4194 11.8742 15.4823C15.7081 15.5724 17.9721 15.4316 19.1532 15.029C20.5869 14.5393 21.7655 13.3557 22.3208 11.8468C22.7081 10.7948 22.7731 10.2327 22.8471 7.28948C22.9129 4.65448 22.9495 4.22991 23.1381 3.87959C23.3833 3.42553 24.2313 3.30901 26.9453 3.35579C28.4913 3.38311 29.0298 3.41638 29.2003 3.49731L29.4233 3.60411L29.4103 11.8263C29.3996 18.6388 29.3798 20.0668 29.2957 20.1508C29.2391 20.206 28.9962 20.2878 28.7548 20.3317C27.9536 20.4784 4.2639 20.3105 1.65376 20.1394C0.747096 20.0796 0.413147 19.9828 0.183327 19.7118L0 19.4962L0.000734026 10.6919C0.000734026 4.89741 0.0281587 1.72277 0.0802237 1.40573C0.123782 1.13998 0.226006 0.815381 0.307843 0.684467C0.507157 0.364373 1.01666 0.133494 1.67517 0.0646218ZM23.0962 20.9235C23.3536 20.8205 23.4864 20.8357 23.9983 21.0271C25.908 21.7392 28.997 23.6917 32.3404 26.2979C33.7177 27.3711 35.2608 28.7477 35.5465 29.1555C36.1743 30.0523 36.1476 31.3881 35.483 32.3446C35.1294 32.8553 34.357 33.5168 33.8216 33.7681C33.4068 33.9625 33.2449 33.9981 32.7675 33.9957C32.2985 33.9936 32.1221 33.9549 31.7157 33.7657C31.0434 33.4517 30.0893 32.7199 29.46 32.0365C28.8703 31.3956 25.5566 26.8239 24.5788 25.3028C22.89 22.6739 22.3926 21.2049 23.0962 20.9235Z" fill="#DAE0E5" fill-opacity="0.5"/>
</svg>
