<svg width="18" height="18" viewBox="0 0 18 18" fill="none" xmlns="http://www.w3.org/2000/svg">
<path fill-rule="evenodd" clip-rule="evenodd" d="M15.8287 0H1.24147C0.543143 0 0 0.543552 0 1.32005V16.1513C0 16.7725 0.543143 17.4713 1.24147 17.4713H15.8287C16.5271 17.4713 17.0702 16.9278 17.0702 16.1513V1.2424C17.1478 0.543551 16.6047 0 15.8287 0ZM5.04347 14.7535H2.48294V6.44497H5.04347V14.7535ZM3.802 5.35787C3.02608 5.35787 2.32776 4.73667 2.32776 3.88251C2.32776 3.10601 2.94849 2.40716 3.802 2.40716C4.57792 2.40716 5.27625 3.02836 5.27625 3.88251C5.27625 4.73667 4.65551 5.35787 3.802 5.35787ZM14.5873 14.7535H12.0267V10.7157C12.0267 9.78393 12.0267 8.46388 10.7077 8.46388C9.38862 8.46388 9.15584 9.55098 9.15584 10.6381V14.6759H6.6729V6.44497H9.07825V7.60972H9.15584C9.5438 6.98852 10.3197 6.28967 11.5612 6.28967C14.1217 6.28967 14.5873 7.99798 14.5873 10.2498V14.7535Z" fill="#DAE0E5" fill-opacity="0.3"/>
</svg>
