<svg width="66" height="40" viewBox="0 0 66 40" fill="none" xmlns="http://www.w3.org/2000/svg">
<path fill-rule="evenodd" clip-rule="evenodd" d="M24.7895 18.2638C24.7895 17.5661 25.3919 17 26.136 17H43.6522C44.3963 17 45 17.5661 45 18.2638C45 18.9614 44.3963 19.5263 43.6522 19.5263H26.136C25.3919 19.5263 24.7895 18.9614 24.7895 18.2638Z" fill="#BCFAF9"/>
<path fill-rule="evenodd" clip-rule="evenodd" d="M24.7895 23.3158C24.7895 22.6184 25.3919 22.0526 26.136 22.0526H43.6522C44.3963 22.0526 45 22.6184 45 23.3158C45 24.0131 44.3963 24.5789 43.6522 24.5789H26.136C25.3919 24.5789 24.7895 24.0131 24.7895 23.3158Z" fill="#BCFAF9"/>
<path fill-rule="evenodd" clip-rule="evenodd" d="M24.7895 28.3678C24.7895 27.6701 25.3919 27.1053 26.136 27.1053H43.6522C44.3963 27.1053 45 27.6701 45 28.3678C45 29.0655 44.3963 29.6316 43.6522 29.6316H26.136C25.3919 29.6316 24.7895 29.0655 24.7895 28.3678Z" fill="#BCFAF9"/>
<path fill-rule="evenodd" clip-rule="evenodd" d="M24.7895 33.4204C24.7895 32.7228 25.3919 32.1579 26.136 32.1579H43.6522C44.3963 32.1579 45 32.7228 45 33.4204C45 34.1181 44.3963 34.6842 43.6522 34.6842H26.136C25.3919 34.6842 24.7895 34.1181 24.7895 33.4204Z" fill="#BCFAF9"/>
<path fill-rule="evenodd" clip-rule="evenodd" d="M24.7895 38.4731C24.7895 37.7754 25.3919 37.2105 26.136 37.2105H43.6522C44.3963 37.2105 45 37.7754 45 38.4731C45 39.1708 44.3963 39.7368 43.6522 39.7368H26.136C25.3919 39.7368 24.7895 39.1708 24.7895 38.4731Z" fill="#BCFAF9"/>
<path d="M23.5263 18.2638C23.5263 18.9614 22.9605 19.5263 22.2632 19.5263C21.5658 19.5263 21 18.9614 21 18.2638C21 17.5661 21.5658 17 22.2632 17C22.9605 17 23.5263 17.5661 23.5263 18.2638Z" fill="#BCFAF9"/>
<path d="M23.5263 23.3158C23.5263 24.0131 22.9605 24.5789 22.2632 24.5789C21.5658 24.5789 21 24.0131 21 23.3158C21 22.6184 21.5658 22.0526 22.2632 22.0526C22.9605 22.0526 23.5263 22.6184 23.5263 23.3158Z" fill="#BCFAF9"/>
<path d="M23.5263 28.3672C23.5263 29.0646 22.9605 29.6304 22.2632 29.6304C21.5658 29.6304 21 29.0646 21 28.3672C21 27.6699 21.5658 27.1053 22.2632 27.1053C22.9605 27.1053 23.5263 27.6699 23.5263 28.3672Z" fill="#BCFAF9"/>
<path d="M23.5263 33.4198C23.5263 34.1172 22.9605 34.683 22.2632 34.683C21.5658 34.683 21 34.1172 21 33.4198C21 32.7225 21.5658 32.1579 22.2632 32.1579C22.9605 32.1579 23.5263 32.7225 23.5263 33.4198Z" fill="#BCFAF9"/>
<path d="M23.5263 38.4725C23.5263 39.1698 22.9605 39.7356 22.2632 39.7356C21.5658 39.7356 21 39.1698 21 38.4725C21 37.7751 21.5658 37.2105 22.2632 37.2105C22.9605 37.2105 23.5263 37.7751 23.5263 38.4725Z" fill="#BCFAF9"/>
<path d="M4.47656 2.46875V11H2.87109V2.46875H4.47656ZM7.125 2.46875V3.74023H0.251953V2.46875H7.125ZM13.8516 9.73438V11H9.31641V9.73438H13.8516ZM9.80859 2.46875V11H8.19727V2.46875H9.80859ZM13.2598 5.99023V7.22656H9.31641V5.99023H13.2598ZM13.834 2.46875V3.74023H9.31641V2.46875H13.834ZM16.2539 2.46875L17.959 5.50977L19.6699 2.46875H21.5215L18.9902 6.69922L21.5859 11H19.7168L17.959 7.90039L16.207 11H14.332L16.9277 6.69922L14.3965 2.46875H16.2539ZM26.2383 2.46875V11H24.6328V2.46875H26.2383ZM28.8867 2.46875V3.74023H22.0137V2.46875H28.8867ZM33.3574 2.46875H34.752L37.084 8.89062L39.4102 2.46875H40.8105L37.6406 11H36.5215L33.3574 2.46875ZM32.6543 2.46875H34.0195L34.2656 8.36914V11H32.6543V2.46875ZM40.1426 2.46875H41.5137V11H39.9023V8.36914L40.1426 2.46875ZM50.0625 6.51758V6.95703C50.0625 7.60156 49.9766 8.18164 49.8047 8.69727C49.6328 9.20898 49.3887 9.64453 49.0723 10.0039C48.7559 10.3633 48.3789 10.6387 47.9414 10.8301C47.5039 11.0215 47.0176 11.1172 46.4824 11.1172C45.9551 11.1172 45.4707 11.0215 45.0293 10.8301C44.5918 10.6387 44.2129 10.3633 43.8926 10.0039C43.5723 9.64453 43.3242 9.20898 43.1484 8.69727C42.9727 8.18164 42.8848 7.60156 42.8848 6.95703V6.51758C42.8848 5.86914 42.9727 5.28906 43.1484 4.77734C43.3242 4.26562 43.5703 3.83008 43.8867 3.4707C44.2031 3.10742 44.5801 2.83008 45.0176 2.63867C45.459 2.44727 45.9434 2.35156 46.4707 2.35156C47.0059 2.35156 47.4922 2.44727 47.9297 2.63867C48.3672 2.83008 48.7441 3.10742 49.0605 3.4707C49.3809 3.83008 49.627 4.26562 49.7988 4.77734C49.9746 5.28906 50.0625 5.86914 50.0625 6.51758ZM48.4336 6.95703V6.50586C48.4336 6.04102 48.3906 5.63281 48.3047 5.28125C48.2188 4.92578 48.0918 4.62695 47.9238 4.38477C47.7559 4.14258 47.5488 3.96094 47.3027 3.83984C47.0566 3.71484 46.7793 3.65234 46.4707 3.65234C46.1582 3.65234 45.8809 3.71484 45.6387 3.83984C45.4004 3.96094 45.1973 4.14258 45.0293 4.38477C44.8613 4.62695 44.7324 4.92578 44.6426 5.28125C44.5566 5.63281 44.5137 6.04102 44.5137 6.50586V6.95703C44.5137 7.41797 44.5566 7.82617 44.6426 8.18164C44.7324 8.53711 44.8613 8.83789 45.0293 9.08398C45.2012 9.32617 45.4082 9.50977 45.6504 9.63477C45.8926 9.75977 46.1699 9.82227 46.4824 9.82227C46.7949 9.82227 47.0723 9.75977 47.3145 9.63477C47.5566 9.50977 47.7598 9.32617 47.9238 9.08398C48.0918 8.83789 48.2188 8.53711 48.3047 8.18164C48.3906 7.82617 48.4336 7.41797 48.4336 6.95703ZM53.9766 11H52.1367L52.1484 9.73438H53.9766C54.4727 9.73438 54.8887 9.625 55.2246 9.40625C55.5605 9.18359 55.8145 8.86523 55.9863 8.45117C56.1582 8.0332 56.2441 7.5332 56.2441 6.95117V6.51172C56.2441 6.0625 56.1953 5.66602 56.0977 5.32227C56 4.97852 55.8555 4.68945 55.6641 4.45508C55.4766 4.2207 55.2441 4.04297 54.9668 3.92188C54.6895 3.80078 54.3711 3.74023 54.0117 3.74023H52.1016V2.46875H54.0117C54.582 2.46875 55.1016 2.56445 55.5703 2.75586C56.043 2.94727 56.4512 3.22266 56.7949 3.58203C57.1426 3.9375 57.4082 4.36328 57.5918 4.85938C57.7793 5.35547 57.873 5.91016 57.873 6.52344V6.95117C57.873 7.56055 57.7793 8.11523 57.5918 8.61523C57.4082 9.11133 57.1426 9.53711 56.7949 9.89258C56.4512 10.248 56.041 10.5215 55.5645 10.7129C55.0879 10.9043 54.5586 11 53.9766 11ZM53.0391 2.46875V11H51.4277V2.46875H53.0391ZM64.8984 9.73438V11H60.3633V9.73438H64.8984ZM60.8555 2.46875V11H59.2441V2.46875H60.8555ZM64.3066 5.99023V7.22656H60.3633V5.99023H64.3066ZM64.8809 2.46875V3.74023H60.3633V2.46875H64.8809Z" fill="#BCFAF9"/>
</svg>
