<svg width="296" height="244" viewBox="0 0 296 244" fill="none" xmlns="http://www.w3.org/2000/svg">
<rect x="52" y="53" width="191" height="191" rx="25" fill="#DAE0E5" fill-opacity="0.7"/>
<circle cx="147" cy="149" r="73" fill="#2E3A44"/>
<circle cx="147" cy="149" r="57" fill="white"/>
<circle cx="147" cy="149" r="48" fill="#950000"/>
<g filter="url(#filter0_d_42_1029)">
<path d="M16.976 23.624C15.888 27.4427 13.744 29.352 10.544 29.352C8.176 29.352 6.34133 28.232 5.04 25.992C3.86667 23.944 3.28 21.224 3.28 17.832C3.28 14.4187 3.87733 11.6773 5.072 9.608C6.37333 7.368 8.21867 6.248 10.608 6.248C13.8293 6.248 15.9413 8.136 16.944 11.912L13.2 13.128C12.9013 12.0613 12.56 11.3147 12.176 10.888C11.8133 10.4613 11.2693 10.248 10.544 10.248C8.432 10.248 7.376 12.7547 7.376 17.768C7.376 22.824 8.45333 25.352 10.608 25.352C11.2907 25.352 11.8453 25.128 12.272 24.68C12.6987 24.2107 13.1147 23.368 13.52 22.152L16.976 23.624ZM34.16 17.768C34.16 21.2027 33.5627 23.944 32.368 25.992C31.0667 28.232 29.1787 29.352 26.704 29.352C24.2293 29.352 22.3413 28.232 21.04 25.992C19.8667 23.9867 19.28 21.2667 19.28 17.832C19.28 14.3973 19.8773 11.656 21.072 9.608C22.3733 7.368 24.272 6.248 26.768 6.248C29.2427 6.248 31.12 7.368 32.4 9.608C33.5733 11.6133 34.16 14.3333 34.16 17.768ZM30.064 17.832C30.064 12.776 28.944 10.248 26.704 10.248C24.4853 10.248 23.376 12.7547 23.376 17.768C23.376 22.824 24.5067 25.352 26.768 25.352C28.9653 25.352 30.064 22.8453 30.064 17.832ZM50.7655 29H46.9255L42.7975 19.016C42.0722 17.2453 41.5068 15.7307 41.1015 14.472C41.1442 16.3067 41.1655 18.0027 41.1655 19.56V29H37.5175V6.6H41.5495L45.4855 16.424C46.2962 18.4293 46.8828 19.9867 47.2455 21.096C47.1602 17.4267 47.1175 15.688 47.1175 15.88V6.6H50.7655V29ZM66.7318 10.472H58.9238V15.432H64.1718V19.304H58.9238V29H54.9238V6.6H66.7318V10.472ZM73.9275 29H69.9275V6.6H73.9275V29ZM91.3883 29H87.0363L83.5483 20.488H82.2363V29H78.2363V6.6H84.1883C86.4069 6.6 88.1456 7.19733 89.4043 8.392C90.6843 9.56533 91.3243 11.2933 91.3243 13.576C91.3243 16.456 90.0656 18.4933 87.5483 19.688L91.3883 29ZM87.3243 13.64C87.3243 11.5493 86.2149 10.504 83.9963 10.504H82.2363V16.744H84.2203C86.2896 16.744 87.3243 15.7093 87.3243 13.64ZM110.869 29H107.221V21.768C107.221 19.464 107.242 17.2027 107.285 14.984C106.645 17.2453 105.973 19.464 105.269 21.64L102.677 29.576L100.085 21.64C99.3808 19.464 98.7088 17.2453 98.0688 14.984C98.1114 17.2027 98.1328 19.464 98.1328 21.768V29H94.5488V6.6H98.5808L101.237 14.888C101.685 16.2107 102.186 17.896 102.741 19.944C102.869 19.304 103.37 17.6187 104.245 14.888L106.901 6.6H110.869V29ZM119.53 14.504C119.53 15.2293 119.263 15.8587 118.73 16.392C118.218 16.904 117.599 17.16 116.874 17.16C116.148 17.16 115.519 16.904 114.986 16.392C114.474 15.8587 114.218 15.2293 114.218 14.504C114.218 13.7787 114.474 13.16 114.986 12.648C115.519 12.1147 116.148 11.848 116.874 11.848C117.599 11.848 118.218 12.1147 118.73 12.648C119.263 13.16 119.53 13.7787 119.53 14.504ZM119.53 26.696C119.53 27.4213 119.263 28.0507 118.73 28.584C118.218 29.096 117.599 29.352 116.874 29.352C116.148 29.352 115.519 29.096 114.986 28.584C114.474 28.0507 114.218 27.4213 114.218 26.696C114.218 25.9707 114.474 25.352 114.986 24.84C115.519 24.3067 116.148 24.04 116.874 24.04C117.599 24.04 118.218 24.3067 118.73 24.84C119.263 25.352 119.53 25.9707 119.53 26.696ZM143.996 20.904C143.996 23.6133 143.388 25.704 142.172 27.176C140.977 28.6267 139.217 29.352 136.892 29.352C134.417 29.352 132.529 28.232 131.228 25.992C130.054 23.9867 129.468 21.2667 129.468 17.832C129.468 14.3973 130.065 11.656 131.26 9.608C132.561 7.368 134.46 6.248 136.956 6.248C140.561 6.248 142.833 8.136 143.772 11.912L140.028 13.128C139.494 11.208 138.449 10.248 136.892 10.248C134.673 10.248 133.564 12.7547 133.564 17.768C133.564 22.824 134.694 25.352 136.956 25.352C138.15 25.352 138.972 25.0213 139.42 24.36C139.889 23.6773 140.124 22.4933 140.124 20.808H136.924V17.064H143.996V20.904ZM161.566 17.768C161.566 21.2027 160.969 23.944 159.774 25.992C158.473 28.232 156.585 29.352 154.11 29.352C151.636 29.352 149.748 28.232 148.446 25.992C147.273 23.9867 146.686 21.2667 146.686 17.832C146.686 14.3973 147.284 11.656 148.478 9.608C149.78 7.368 151.678 6.248 154.174 6.248C156.649 6.248 158.526 7.368 159.806 9.608C160.98 11.6133 161.566 14.3333 161.566 17.768ZM157.47 17.832C157.47 12.776 156.35 10.248 154.11 10.248C151.892 10.248 150.782 12.7547 150.782 17.768C150.782 22.824 151.913 25.352 154.174 25.352C156.372 25.352 157.47 22.8453 157.47 17.832ZM185.547 29H181.707L177.579 19.016C176.853 17.2453 176.288 15.7307 175.883 14.472C175.925 16.3067 175.947 18.0027 175.947 19.56V29H172.299V6.6H176.331L180.267 16.424C181.077 18.4293 181.664 19.9867 182.027 21.096C181.941 17.4267 181.899 15.688 181.899 15.88V6.6H185.547V29ZM202.921 20.04C202.921 23.0907 202.43 25.3733 201.449 26.888C200.361 28.5307 198.633 29.352 196.265 29.352C191.828 29.352 189.609 26.2693 189.609 20.104V6.6H193.609V20.104C193.609 22.0027 193.822 23.3573 194.249 24.168C194.676 24.9787 195.358 25.384 196.297 25.384C197.236 25.384 197.908 24.9893 198.313 24.2C198.718 23.3893 198.921 22.024 198.921 20.104V6.6H202.921V20.04ZM219.882 23.624C218.794 27.4427 216.65 29.352 213.45 29.352C211.082 29.352 209.248 28.232 207.946 25.992C206.773 23.944 206.186 21.224 206.186 17.832C206.186 14.4187 206.784 11.6773 207.978 9.608C209.28 7.368 211.125 6.248 213.514 6.248C216.736 6.248 218.848 8.136 219.85 11.912L216.106 13.128C215.808 12.0613 215.466 11.3147 215.082 10.888C214.72 10.4613 214.176 10.248 213.45 10.248C211.338 10.248 210.282 12.7547 210.282 17.768C210.282 22.824 211.36 25.352 213.514 25.352C214.197 25.352 214.752 25.128 215.178 24.68C215.605 24.2107 216.021 23.368 216.426 22.152L219.882 23.624ZM233.994 29H222.986V6.6H226.986V25.096H233.994V29ZM248.95 29H237.174V6.6H248.662V10.44H241.174V15.176H246.198V18.952H241.174V25.16H248.95V29ZM266.569 29H262.441L261.385 24.328H256.361L255.305 29H251.209L256.937 6.6H260.841L266.569 29ZM260.521 20.584L259.913 17.928C259.422 15.7733 259.07 13.96 258.857 12.488C258.665 13.896 258.323 15.688 257.833 17.864L257.225 20.584H260.521ZM282.701 29H278.349L274.861 20.488H273.549V29H269.549V6.6H275.501C277.719 6.6 279.458 7.19733 280.717 8.392C281.997 9.56533 282.637 11.2933 282.637 13.576C282.637 16.456 281.378 18.4933 278.861 19.688L282.701 29ZM278.637 13.64C278.637 11.5493 277.527 10.504 275.309 10.504H273.549V16.744H275.533C277.602 16.744 278.637 15.7093 278.637 13.64ZM290.021 17.352L289.413 22.28H286.629L286.021 17.352V6.6H290.021V17.352ZM290.597 26.76C290.597 27.464 290.341 28.072 289.829 28.584C289.317 29.096 288.709 29.352 288.005 29.352C287.301 29.352 286.693 29.096 286.181 28.584C285.669 28.072 285.413 27.464 285.413 26.76C285.413 26.056 285.669 25.448 286.181 24.936C286.693 24.424 287.301 24.168 288.005 24.168C288.709 24.168 289.317 24.424 289.829 24.936C290.341 25.448 290.597 26.056 290.597 26.76Z" fill="#BCFAF9"/>
</g>
<defs>
<filter id="filter0_d_42_1029" x="0.279785" y="3.24609" width="295.317" height="31.3281" filterUnits="userSpaceOnUse" color-interpolation-filters="sRGB">
<feFlood flood-opacity="0" result="BackgroundImageFix"/>
<feColorMatrix in="SourceAlpha" type="matrix" values="0 0 0 0 0 0 0 0 0 0 0 0 0 0 0 0 0 0 127 0" result="hardAlpha"/>
<feOffset dx="1" dy="1"/>
<feGaussianBlur stdDeviation="2"/>
<feComposite in2="hardAlpha" operator="out"/>
<feColorMatrix type="matrix" values="0 0 0 0 0.180392 0 0 0 0 0.227451 0 0 0 0 0.266667 0 0 0 1 0"/>
<feBlend mode="normal" in2="BackgroundImageFix" result="effect1_dropShadow_42_1029"/>
<feBlend mode="normal" in="SourceGraphic" in2="effect1_dropShadow_42_1029" result="shape"/>
</filter>
</defs>
</svg>
