<svg width="278" height="129" viewBox="0 0 278 129" fill="none" xmlns="http://www.w3.org/2000/svg">
<path d="M1.69696 120.995C2.34335 121.32 3.12084 121.687 4.02794 122.101C4.9335 122.514 5.92701 122.896 7.0038 123.246C8.0806 123.596 9.22988 123.893 10.4517 124.135C11.6735 124.377 12.9292 124.499 14.2236 124.499C17.6175 124.499 20.1444 123.911 21.8058 122.733C23.4673 121.557 24.2973 119.872 24.2973 117.68C24.2973 116.567 24.0366 115.627 23.5167 114.864C22.9952 114.1 22.2764 113.453 21.3615 112.922C20.4452 112.393 19.3638 111.953 18.1157 111.603C16.8677 111.252 15.507 110.942 14.0338 110.672C13.1899 110.547 12.2875 110.394 11.3279 110.215C10.3668 110.034 9.41501 109.797 8.47243 109.5C7.52831 109.204 6.62274 108.835 5.75113 108.395C4.87951 107.955 4.11741 107.415 3.46177 106.777C2.80613 106.14 2.28007 105.385 1.88514 104.513C1.49021 103.642 1.29274 102.622 1.29274 101.455C1.29274 99.9624 1.53959 98.5531 2.03325 97.2225C2.52845 95.8934 3.32754 94.7249 4.43056 93.7185C5.53512 92.7121 6.97291 91.9171 8.74083 91.3337C10.5103 90.7502 12.6608 90.4569 15.1924 90.4569C16.5391 90.4569 17.8242 90.5696 19.0445 90.7949C20.2663 91.0188 21.4279 91.3059 22.5324 91.6562C23.637 92.0066 24.6752 92.3987 25.644 92.8294C26.6144 93.2601 27.5122 93.6738 28.3376 94.069L26.8828 98.0854C26.3444 97.7983 25.6348 97.4571 24.7555 97.0604C23.8761 96.6653 22.8965 96.2933 21.8197 95.9429C20.7414 95.5925 19.5967 95.2961 18.3842 95.0538C17.1732 94.8099 15.9745 94.6895 14.7882 94.6895C13.1005 94.6895 11.6951 94.8731 10.5736 95.242C9.4505 95.6094 8.55727 96.0957 7.89237 96.6977C7.22748 97.2997 6.7616 97.9819 6.49163 98.746C6.2232 99.5086 6.08741 100.277 6.08741 101.051C6.08741 102.057 6.33426 102.901 6.82792 103.584C7.32312 104.266 8.01424 104.828 8.90283 105.268C9.79142 105.709 10.8559 106.063 12.0946 106.333C13.3334 106.603 14.6894 106.827 16.1627 107.007C17.7254 107.276 19.2774 107.626 20.8231 108.059C22.3674 108.489 23.7589 109.101 24.9976 109.891C26.2364 110.681 27.2376 111.711 28.0013 112.976C28.7649 114.244 29.146 115.857 29.146 117.816C29.146 119.54 28.7958 121.076 28.0954 122.423C27.395 123.772 26.3845 124.913 25.0655 125.847C23.745 126.781 22.1468 127.496 20.2709 127.989C18.3934 128.483 16.2876 128.73 13.9536 128.73C12.5343 128.73 11.1613 128.632 9.83151 128.434C8.50326 128.236 7.24597 127.972 6.06119 127.639C4.87641 127.307 3.77187 126.921 2.74753 126.48C1.72473 126.04 0.808367 125.569 0 125.066L1.69696 120.995Z" fill="#DAE0E5"/>
<path d="M40.0018 116.252C40.2347 117.491 40.6575 118.627 41.2684 119.662C41.8777 120.694 42.6321 121.583 43.5299 122.329C44.4277 123.075 45.4428 123.66 46.5752 124.081C47.7059 124.504 48.8908 124.715 50.1295 124.715C51.0644 124.715 51.9252 124.634 52.7166 124.473C53.5065 124.311 54.2377 124.076 54.9119 123.772C55.5845 123.467 56.2046 123.107 56.7708 122.693C57.3354 122.28 57.8707 121.813 58.3736 121.292L61.0672 124.069C60.4917 124.697 59.8191 125.294 59.0462 125.861C58.2749 126.426 57.4218 126.924 56.4869 127.357C55.5536 127.787 54.5478 128.128 53.471 128.38C52.3926 128.632 51.2619 128.758 50.0755 128.758C47.9744 128.758 46.0229 128.375 44.218 127.613C42.413 126.849 40.8503 125.807 39.5297 124.485C38.2107 123.166 37.1741 121.624 36.4197 119.864C35.6653 118.103 35.2874 116.224 35.2874 114.23C35.2874 112.235 35.6653 110.358 36.4197 108.597C37.1741 106.836 38.2107 105.295 39.5297 103.974C40.8503 102.654 42.413 101.608 44.218 100.834C46.0229 100.061 47.9744 99.6752 50.0755 99.6752C52.0872 99.6752 53.8613 99.9176 55.3963 100.404C56.9312 100.889 58.224 101.54 59.2746 102.358C60.3252 103.175 61.1212 104.118 61.6596 105.187C62.198 106.257 62.4679 107.375 62.4679 108.543C62.4679 109.604 62.3013 110.601 61.9696 111.535C61.6364 112.469 61.1026 113.287 60.3668 113.987C59.6294 114.688 58.6776 115.241 57.5113 115.645C56.3435 116.05 54.9335 116.252 53.2812 116.252H40.0018ZM52.8246 112.397C54.5663 112.343 55.8637 111.948 56.7168 111.212C57.5699 110.474 57.9957 109.54 57.9957 108.409C57.9957 107.852 57.8337 107.285 57.5113 106.711C57.1873 106.135 56.7029 105.618 56.0565 105.161C55.4102 104.703 54.6018 104.329 53.6314 104.042C52.6626 103.755 51.5226 103.611 50.2113 103.611C48.9355 103.611 47.7245 103.831 46.5752 104.27C45.4259 104.712 44.3969 105.322 43.4898 106.104C42.5827 106.885 41.8206 107.815 41.2005 108.894C40.5803 109.971 40.1638 111.139 39.9478 112.397H52.8246Z" fill="#DAE0E5"/>
<path d="M88.9727 124.069C88.2723 124.769 87.4655 125.402 86.5492 125.969C85.6328 126.534 84.664 127.011 83.6397 127.397C82.6169 127.783 81.557 128.074 80.4617 128.273C79.3664 128.471 78.2789 128.57 77.2021 128.57C75.8908 128.57 74.652 128.403 73.4842 128.071C72.3179 127.738 71.2982 127.222 70.4266 126.521C69.5565 125.821 68.8654 124.913 68.3532 123.798C67.841 122.684 67.585 121.337 67.585 119.756C67.585 118.246 67.9583 117.007 68.7034 116.036C69.4485 115.066 70.4451 114.293 71.6931 113.717C72.9412 113.143 74.3743 112.743 75.9895 112.518C77.6062 112.294 79.2754 112.181 81.0001 112.181C81.503 112.181 82.0769 112.191 82.7233 112.209C83.3712 112.226 84.0392 112.245 84.7303 112.263C85.423 112.28 86.1002 112.303 86.7651 112.33C87.4285 112.357 88.0394 112.37 88.5963 112.37V108.948C88.5608 108.247 88.3726 107.572 88.0302 106.925C87.6892 106.279 87.1817 105.709 86.5091 105.214C85.8349 104.72 84.9957 104.324 83.9899 104.028C82.984 103.732 81.8085 103.584 80.4617 103.584C79.4374 103.584 78.464 103.713 77.5384 103.974C76.6143 104.235 75.8013 104.581 75.1009 105.011C74.4006 105.444 73.8436 105.947 73.4302 106.521C73.0183 107.097 72.8116 107.69 72.8116 108.301H68.0709C68.1064 106.97 68.4566 105.775 69.1215 104.715C69.7848 103.656 70.6734 102.753 71.7872 102.008C72.9011 101.26 74.1938 100.686 75.6671 100.282C77.1388 99.8774 78.7108 99.6752 80.38 99.6752C82.5351 99.6752 84.4218 99.9176 86.037 100.404C87.6538 100.889 89.0005 101.545 90.0773 102.37C91.1556 103.198 91.9594 104.159 92.4885 105.255C93.0192 106.351 93.283 107.501 93.283 108.705V127.949H89.4047L88.9727 124.069ZM78.737 124.822C79.7614 124.822 80.8027 124.692 81.8625 124.431C82.9223 124.172 83.9004 123.808 84.7982 123.34C85.6961 122.872 86.486 122.317 87.1694 121.67C87.8512 121.022 88.3264 120.313 88.5963 119.54V115.739C88.0934 115.739 87.5411 115.73 86.9395 115.713C86.3378 115.695 85.7192 115.676 85.0806 115.659C84.4434 115.641 83.8233 115.622 83.2232 115.605C82.6215 115.587 82.0692 115.577 81.5663 115.577C80.488 115.577 79.4065 115.636 78.3205 115.753C77.2329 115.869 76.2502 116.085 75.3709 116.4C74.49 116.715 73.7727 117.155 73.2158 117.72C72.6588 118.286 72.3796 119.02 72.3796 119.918C72.3796 120.833 72.5462 121.602 72.8779 122.221C73.2111 122.841 73.66 123.349 74.2247 123.744C74.7908 124.14 75.4604 124.419 76.2317 124.58C77.0046 124.742 77.8392 124.822 78.737 124.822Z" fill="#DAE0E5"/>
<path d="M118.739 104.609H115.721C114.321 104.609 113.042 104.814 111.883 105.228C110.725 105.641 109.737 106.262 108.921 107.088C108.104 107.913 107.467 108.934 107.008 110.147C106.55 111.36 106.322 112.774 106.322 114.392V127.949H101.661V100.458H105.513L105.998 104.715C106.465 104.105 107.018 103.539 107.655 103.017C108.292 102.497 109.011 102.048 109.81 101.67C110.609 101.293 111.484 100.997 112.436 100.78C113.387 100.564 114.412 100.458 115.507 100.458H118.739V104.609Z" fill="#DAE0E5"/>
<path d="M148.397 124.904C146.87 126.251 145.219 127.235 143.44 127.855C141.663 128.474 139.868 128.767 138.053 128.73C135.917 128.695 133.936 128.295 132.114 127.531C130.291 126.768 128.711 125.73 127.372 124.419C126.034 123.107 124.988 121.579 124.234 119.836C123.48 118.093 123.103 116.216 123.103 114.203C123.103 112.191 123.48 110.3 124.234 108.529C124.988 106.76 126.034 105.218 127.372 103.908C128.711 102.596 130.291 101.561 132.114 100.808C133.936 100.053 135.917 99.6752 138.053 99.6752C139.849 99.6752 141.636 99.9808 143.414 100.592C145.191 101.203 146.844 102.173 148.369 103.503L145.488 106.521C144.554 105.641 143.454 104.962 142.188 104.487C140.921 104.011 139.562 103.772 138.107 103.772C136.742 103.772 135.435 104.014 134.187 104.501C132.939 104.985 131.839 105.681 130.888 106.589C129.936 107.497 129.177 108.593 128.612 109.877C128.046 111.163 127.764 112.604 127.764 114.203C127.764 115.803 128.051 117.244 128.625 118.529C129.2 119.814 129.964 120.906 130.915 121.804C131.867 122.703 132.967 123.394 134.215 123.879C135.463 124.365 136.761 124.607 138.107 124.607C141.177 124.607 143.647 123.7 145.515 121.884L148.397 124.904Z" fill="#DAE0E5"/>
<path d="M182.015 127.949H177.327V112.99C177.327 111.302 177.139 109.872 176.762 108.705C176.384 107.537 175.832 106.589 175.106 105.862C174.377 105.133 173.48 104.604 172.412 104.271C171.343 103.939 170.118 103.772 168.734 103.772C167.514 103.772 166.365 103.983 165.286 104.406C164.21 104.828 163.267 105.43 162.459 106.212C161.65 106.994 161.013 107.941 160.546 109.056C160.078 110.169 159.845 111.417 159.845 112.802V127.976H155.185V90H159.819L159.791 103.962C160.33 103.351 160.95 102.784 161.65 102.262C162.351 101.742 163.119 101.288 163.953 100.902C164.788 100.515 165.677 100.214 166.619 99.9995C167.563 99.7834 168.546 99.6753 169.569 99.6753C173.79 99.6753 176.918 100.771 178.958 102.963C180.996 105.157 182.015 108.463 182.015 112.882V127.949Z" fill="#DAE0E5"/>
<path d="M189.988 125.605C189.988 125.21 190.06 124.831 190.204 124.473C190.347 124.114 190.554 123.799 190.822 123.528C191.092 123.26 191.416 123.044 191.793 122.882C192.169 122.721 192.583 122.639 193.031 122.639C193.48 122.639 193.889 122.721 194.258 122.882C194.625 123.044 194.944 123.26 195.214 123.528C195.483 123.799 195.694 124.114 195.847 124.473C196 124.831 196.075 125.21 196.075 125.605C196.075 126.018 196 126.4 195.847 126.75C195.694 127.1 195.483 127.406 195.214 127.667C194.944 127.926 194.62 128.133 194.244 128.286C193.866 128.439 193.454 128.516 193.005 128.516C192.556 128.516 192.147 128.439 191.779 128.286C191.412 128.133 191.092 127.923 190.822 127.653C190.554 127.383 190.347 127.074 190.204 126.724C190.06 126.373 189.988 126 189.988 125.605Z" fill="#DAE0E5"/>
<path d="M209.41 91.2936H204.642V127.949H209.41V91.2936Z" fill="#DAE0E5"/>
<path d="M245.72 127.949H241.034V113.125C241.034 111.471 240.846 110.057 240.468 108.88C240.091 107.703 239.548 106.737 238.839 105.982C238.129 105.227 237.254 104.67 236.213 104.312C235.17 103.953 233.985 103.772 232.657 103.772C231.381 103.772 230.192 104.007 229.087 104.473C227.983 104.94 227.017 105.596 226.192 106.441C225.365 107.285 224.718 108.301 224.252 109.486C223.785 110.672 223.552 111.975 223.552 113.395V127.949H218.892V100.458H222.744L223.148 104.204C223.705 103.574 224.351 102.982 225.087 102.424C225.823 101.867 226.627 101.387 227.498 100.983C228.368 100.578 229.294 100.26 230.272 100.026C231.252 99.7925 232.253 99.6752 233.276 99.6752C237.496 99.6752 240.625 100.799 242.664 103.045C244.702 105.291 245.72 108.623 245.72 113.044V127.949Z" fill="#DAE0E5"/>
<path d="M277.696 124.904C276.168 126.251 274.516 127.235 272.739 127.855C270.962 128.474 269.165 128.767 267.352 128.73C265.214 128.695 263.235 128.295 261.413 127.531C259.589 126.768 258.01 125.73 256.671 124.419C255.333 123.107 254.287 121.579 253.533 119.836C252.778 118.093 252.402 116.216 252.402 114.203C252.402 112.191 252.778 110.3 253.533 108.529C254.287 106.76 255.333 105.218 256.671 103.908C258.01 102.596 259.589 101.561 261.413 100.808C263.235 100.053 265.214 99.6752 267.352 99.6752C269.148 99.6752 270.934 99.9808 272.713 100.592C274.49 101.203 276.142 102.173 277.668 103.503L274.786 106.521C273.853 105.641 272.753 104.962 271.486 104.487C270.22 104.011 268.861 103.772 267.406 103.772C266.041 103.772 264.734 104.014 263.486 104.501C262.238 104.985 261.138 105.681 260.186 106.589C259.234 107.497 258.475 108.593 257.911 109.877C257.345 111.163 257.062 112.604 257.062 114.203C257.062 115.803 257.349 117.244 257.923 118.529C258.499 119.814 259.262 120.906 260.213 121.804C261.164 122.703 262.264 123.394 263.512 123.879C264.762 124.365 266.059 124.607 267.406 124.607C270.476 124.607 272.946 123.7 274.813 121.884L277.696 124.904Z" fill="#DAE0E5"/>
<path fill-rule="evenodd" clip-rule="evenodd" d="M129.534 67.1585C111 67.1585 95.9718 52.1273 95.9718 33.5822C95.9718 15.0371 111 0 129.534 0C148.068 0 163.097 15.0371 163.097 33.5822C163.097 39.7351 161.437 45.5055 158.548 50.4671C157.805 51.7375 157.942 53.3684 158.983 54.4102L176.826 72.2637C179.206 74.6448 179.206 78.5147 176.826 80.8959C174.44 83.2829 170.58 83.2829 168.194 80.8959L150.351 63.0483C149.31 62.0064 147.686 61.8687 146.409 62.6131C141.456 65.5042 135.689 67.1585 129.534 67.1585ZM129.534 54.9495C117.738 54.9495 108.179 45.3853 108.179 33.5822C108.179 21.779 117.738 12.209 129.534 12.209C141.33 12.209 150.889 21.779 150.889 33.5822C150.889 45.3853 141.33 54.9495 129.534 54.9495Z" fill="#DAE0E5"/>
<path d="M129.35 40.6537C129.406 40.2722 129.711 39.9612 130.095 39.9612C130.479 39.9612 130.784 40.2722 130.846 40.6537C131.172 42.6931 132.901 44.3036 134.963 44.6063C135.344 44.6589 135.658 44.9669 135.658 45.3515C135.658 45.7361 135.344 46.041 134.963 46.0936C132.831 46.3986 131.145 48.0857 130.84 50.2219C130.787 50.6005 130.479 50.9145 130.095 50.9145C129.711 50.9145 129.406 50.6005 129.35 50.2219C129.052 48.1593 127.441 46.4256 125.4 46.0996C125.022 46.041 124.708 45.7361 124.708 45.3515C124.708 44.9669 125.022 44.6619 125.403 44.6033C127.438 44.3036 129.049 42.6901 129.35 40.6537Z" fill="#DAE0E5"/>
<path d="M139.316 28.8905C139.383 28.4274 139.753 28.05 140.22 28.05C140.686 28.05 141.056 28.4274 141.131 28.8905C141.526 31.3655 143.625 33.3199 146.128 33.6873C146.59 33.7511 146.97 34.1249 146.97 34.5916C146.97 35.0584 146.59 35.4285 146.128 35.4923C143.54 35.8624 141.494 37.9098 141.123 40.5024C141.06 40.9618 140.686 41.3428 140.22 41.3428C139.753 41.3428 139.383 40.9618 139.316 40.5024C138.953 37.9991 136.999 35.8952 134.522 35.4996C134.063 35.4285 133.682 35.0584 133.682 34.5916C133.682 34.1249 134.063 33.7548 134.526 33.6837C136.995 33.3199 138.95 31.3619 139.316 28.8905Z" fill="#DAE0E5"/>
<path d="M120.548 18.7616C120.627 18.128 121.139 17.6039 121.78 17.6039C122.42 17.6039 122.932 18.128 123.011 18.7616C123.534 22.9631 126.862 26.2932 131.061 26.8164C131.698 26.8985 132.218 27.4071 132.218 28.0489C132.218 28.6897 131.698 29.202 131.061 29.2804C126.862 29.8037 123.534 33.1337 123.011 37.3352C122.932 37.9724 122.42 38.4957 121.78 38.4957C121.139 38.4957 120.627 37.9724 120.548 37.3352C120.025 33.1337 116.697 29.8037 112.498 29.2804C111.861 29.202 111.342 28.6897 111.342 28.0489C111.342 27.4071 111.861 26.8985 112.498 26.8164C116.698 26.2932 120.025 22.9631 120.548 18.7616Z" fill="#DAE0E5"/>
</svg>
