<svg width="431" height="136" viewBox="0 0 431 136" fill="none" xmlns="http://www.w3.org/2000/svg">
<path d="M161.386 123.395L163.545 120.43L160.301 119.463L160.806 117.852L164.05 119.044L163.953 115.349H165.586L165.479 119.108L168.68 117.916L169.174 119.56L165.876 120.537L167.992 123.448L166.66 124.447L164.673 121.354L162.729 124.372L161.386 123.395ZM177.08 116.745L171.902 131H169.786L175.748 115.359H177.112L177.08 116.745ZM181.42 131L176.231 116.745L176.199 115.359H177.563L183.547 131H181.42ZM181.151 125.21V126.907H172.364V125.21H181.151ZM189.992 129.582C190.465 129.582 190.902 129.485 191.303 129.292C191.704 129.099 192.033 128.834 192.291 128.497C192.549 128.153 192.696 127.763 192.731 127.326H194.622C194.586 128.014 194.354 128.655 193.924 129.249C193.501 129.836 192.946 130.312 192.259 130.678C191.571 131.036 190.816 131.215 189.992 131.215C189.118 131.215 188.356 131.061 187.704 130.753C187.06 130.445 186.522 130.022 186.093 129.485C185.67 128.948 185.352 128.332 185.137 127.638C184.929 126.936 184.825 126.195 184.825 125.414V124.963C184.825 124.182 184.929 123.445 185.137 122.75C185.352 122.048 185.67 121.429 186.093 120.892C186.522 120.354 187.06 119.932 187.704 119.624C188.356 119.316 189.118 119.162 189.992 119.162C190.902 119.162 191.697 119.348 192.377 119.721C193.057 120.086 193.591 120.587 193.978 121.225C194.371 121.855 194.586 122.571 194.622 123.373H192.731C192.696 122.893 192.56 122.46 192.323 122.073C192.094 121.687 191.779 121.379 191.378 121.149C190.984 120.913 190.522 120.795 189.992 120.795C189.383 120.795 188.871 120.917 188.456 121.16C188.048 121.396 187.722 121.719 187.479 122.127C187.242 122.528 187.07 122.976 186.963 123.47C186.863 123.957 186.812 124.454 186.812 124.963V125.414C186.812 125.923 186.863 126.424 186.963 126.918C187.063 127.412 187.231 127.86 187.468 128.261C187.711 128.662 188.037 128.984 188.445 129.228C188.861 129.464 189.376 129.582 189.992 129.582ZM201.723 119.377V120.902H195.438V119.377H201.723ZM197.565 116.552H199.553V128.121C199.553 128.515 199.614 128.812 199.735 129.013C199.857 129.213 200.015 129.346 200.208 129.41C200.401 129.475 200.609 129.507 200.831 129.507C200.996 129.507 201.168 129.493 201.347 129.464C201.533 129.428 201.673 129.399 201.766 129.378L201.776 131C201.619 131.05 201.411 131.097 201.153 131.14C200.903 131.19 200.598 131.215 200.24 131.215C199.753 131.215 199.306 131.118 198.897 130.925C198.489 130.731 198.163 130.409 197.92 129.958C197.684 129.5 197.565 128.884 197.565 128.11V116.552ZM211.165 128.314V119.377H213.163V131H211.262L211.165 128.314ZM211.541 125.865L212.368 125.844C212.368 126.617 212.286 127.333 212.121 127.992C211.964 128.644 211.706 129.21 211.348 129.689C210.99 130.169 210.521 130.545 209.94 130.817C209.36 131.082 208.655 131.215 207.824 131.215C207.258 131.215 206.739 131.132 206.267 130.968C205.801 130.803 205.4 130.549 205.063 130.205C204.727 129.861 204.465 129.414 204.279 128.862C204.1 128.311 204.011 127.648 204.011 126.875V119.377H205.998V126.896C205.998 127.419 206.055 127.853 206.17 128.196C206.292 128.533 206.453 128.801 206.653 129.002C206.861 129.195 207.09 129.331 207.341 129.41C207.599 129.489 207.864 129.528 208.136 129.528C208.981 129.528 209.65 129.367 210.145 129.045C210.639 128.715 210.993 128.275 211.208 127.724C211.43 127.165 211.541 126.546 211.541 125.865ZM223.046 129.013V123.029C223.046 122.571 222.953 122.174 222.767 121.837C222.588 121.493 222.315 121.228 221.95 121.042C221.585 120.856 221.134 120.763 220.597 120.763C220.095 120.763 219.655 120.849 219.275 121.021C218.903 121.192 218.609 121.418 218.395 121.697C218.187 121.977 218.083 122.277 218.083 122.6H216.096C216.096 122.184 216.203 121.772 216.418 121.364C216.633 120.956 216.941 120.587 217.342 120.258C217.75 119.921 218.237 119.656 218.803 119.463C219.376 119.262 220.013 119.162 220.715 119.162C221.56 119.162 222.305 119.305 222.949 119.592C223.601 119.878 224.109 120.312 224.475 120.892C224.847 121.465 225.033 122.184 225.033 123.051V128.465C225.033 128.852 225.065 129.263 225.13 129.7C225.201 130.137 225.305 130.513 225.441 130.828V131H223.368C223.268 130.771 223.189 130.466 223.132 130.087C223.075 129.7 223.046 129.342 223.046 129.013ZM223.39 123.953L223.411 125.35H221.402C220.837 125.35 220.332 125.396 219.888 125.489C219.444 125.575 219.071 125.708 218.771 125.887C218.47 126.066 218.241 126.291 218.083 126.563C217.925 126.828 217.847 127.14 217.847 127.498C217.847 127.863 217.929 128.196 218.094 128.497C218.258 128.798 218.506 129.038 218.835 129.217C219.172 129.389 219.583 129.475 220.07 129.475C220.679 129.475 221.216 129.346 221.682 129.088C222.147 128.83 222.516 128.515 222.788 128.143C223.067 127.77 223.218 127.409 223.239 127.058L224.088 128.014C224.038 128.314 223.902 128.647 223.68 129.013C223.458 129.378 223.16 129.729 222.788 130.065C222.423 130.395 221.986 130.671 221.478 130.893C220.976 131.107 220.41 131.215 219.78 131.215C218.993 131.215 218.301 131.061 217.707 130.753C217.12 130.445 216.661 130.033 216.332 129.518C216.01 128.995 215.849 128.411 215.849 127.767C215.849 127.144 215.97 126.596 216.214 126.123C216.457 125.643 216.808 125.246 217.267 124.931C217.725 124.608 218.276 124.365 218.921 124.2C219.565 124.035 220.285 123.953 221.08 123.953H223.39ZM230.318 114.5V131H228.32V114.5H230.318ZM235.668 114.5V131H233.67V114.5H235.668ZM242.124 129.797L245.357 119.377H247.484L242.822 132.794C242.715 133.08 242.572 133.388 242.393 133.718C242.221 134.054 241.999 134.373 241.727 134.674C241.454 134.975 241.125 135.218 240.738 135.404C240.359 135.598 239.904 135.694 239.374 135.694C239.216 135.694 239.016 135.673 238.772 135.63C238.529 135.587 238.357 135.551 238.257 135.522L238.246 133.911C238.303 133.918 238.393 133.925 238.515 133.933C238.644 133.947 238.733 133.954 238.783 133.954C239.234 133.954 239.618 133.893 239.933 133.771C240.248 133.657 240.513 133.46 240.728 133.181C240.95 132.909 241.139 132.533 241.297 132.053L242.124 129.797ZM239.75 119.377L242.769 128.4L243.284 130.495L241.855 131.226L237.58 119.377H239.75ZM256.723 121.858V131H254.735V119.377H256.615L256.723 121.858ZM256.25 124.748L255.423 124.716C255.43 123.921 255.548 123.187 255.777 122.514C256.007 121.833 256.329 121.243 256.744 120.741C257.16 120.24 257.654 119.853 258.227 119.581C258.807 119.302 259.448 119.162 260.149 119.162C260.722 119.162 261.238 119.241 261.696 119.398C262.155 119.549 262.545 119.792 262.867 120.129C263.197 120.465 263.447 120.902 263.619 121.439C263.791 121.969 263.877 122.618 263.877 123.384V131H261.879V123.362C261.879 122.754 261.789 122.267 261.61 121.901C261.431 121.529 261.17 121.26 260.826 121.096C260.482 120.924 260.06 120.838 259.559 120.838C259.064 120.838 258.613 120.942 258.205 121.149C257.804 121.357 257.457 121.644 257.163 122.009C256.877 122.374 256.651 122.793 256.486 123.266C256.329 123.731 256.25 124.225 256.25 124.748ZM266.369 125.317V125.07C266.369 124.232 266.491 123.455 266.734 122.739C266.978 122.016 267.329 121.389 267.787 120.859C268.245 120.322 268.8 119.907 269.452 119.613C270.104 119.312 270.834 119.162 271.644 119.162C272.46 119.162 273.194 119.312 273.846 119.613C274.505 119.907 275.063 120.322 275.521 120.859C275.987 121.389 276.341 122.016 276.585 122.739C276.828 123.455 276.95 124.232 276.95 125.07V125.317C276.95 126.155 276.828 126.932 276.585 127.648C276.341 128.365 275.987 128.991 275.521 129.528C275.063 130.058 274.508 130.474 273.856 130.774C273.212 131.068 272.481 131.215 271.665 131.215C270.849 131.215 270.115 131.068 269.463 130.774C268.811 130.474 268.253 130.058 267.787 129.528C267.329 128.991 266.978 128.365 266.734 127.648C266.491 126.932 266.369 126.155 266.369 125.317ZM268.356 125.07V125.317C268.356 125.897 268.424 126.445 268.561 126.961C268.697 127.469 268.901 127.921 269.173 128.314C269.452 128.708 269.799 129.02 270.215 129.249C270.63 129.471 271.114 129.582 271.665 129.582C272.209 129.582 272.686 129.471 273.094 129.249C273.509 129.02 273.853 128.708 274.125 128.314C274.397 127.921 274.601 127.469 274.737 126.961C274.881 126.445 274.952 125.897 274.952 125.317V125.07C274.952 124.497 274.881 123.957 274.737 123.448C274.601 122.933 274.394 122.478 274.114 122.084C273.842 121.683 273.498 121.368 273.083 121.139C272.675 120.91 272.195 120.795 271.644 120.795C271.099 120.795 270.619 120.91 270.204 121.139C269.796 121.368 269.452 121.683 269.173 122.084C268.901 122.478 268.697 122.933 268.561 123.448C268.424 123.957 268.356 124.497 268.356 125.07ZM284.309 119.377V120.902H278.024V119.377H284.309ZM280.151 116.552H282.139V128.121C282.139 128.515 282.2 128.812 282.321 129.013C282.443 129.213 282.601 129.346 282.794 129.41C282.987 129.475 283.195 129.507 283.417 129.507C283.582 129.507 283.754 129.493 283.933 129.464C284.119 129.428 284.258 129.399 284.352 129.378L284.362 131C284.205 131.05 283.997 131.097 283.739 131.14C283.489 131.19 283.184 131.215 282.826 131.215C282.339 131.215 281.892 131.118 281.483 130.925C281.075 130.731 280.749 130.409 280.506 129.958C280.27 129.5 280.151 128.884 280.151 128.11V116.552ZM296.92 131.215C296.111 131.215 295.377 131.079 294.718 130.807C294.066 130.527 293.504 130.137 293.031 129.636C292.566 129.134 292.208 128.54 291.957 127.853C291.706 127.165 291.581 126.413 291.581 125.597V125.146C291.581 124.2 291.721 123.359 292 122.621C292.279 121.876 292.659 121.246 293.139 120.73C293.618 120.215 294.163 119.825 294.771 119.56C295.38 119.295 296.01 119.162 296.662 119.162C297.493 119.162 298.209 119.305 298.811 119.592C299.419 119.878 299.917 120.279 300.304 120.795C300.69 121.303 300.977 121.905 301.163 122.6C301.349 123.287 301.442 124.039 301.442 124.855V125.747H292.763V124.125H299.455V123.975C299.426 123.459 299.319 122.958 299.133 122.471C298.954 121.984 298.667 121.583 298.273 121.268C297.88 120.952 297.342 120.795 296.662 120.795C296.211 120.795 295.796 120.892 295.416 121.085C295.036 121.271 294.711 121.55 294.438 121.923C294.166 122.295 293.955 122.75 293.805 123.287C293.654 123.824 293.579 124.444 293.579 125.146V125.597C293.579 126.148 293.654 126.667 293.805 127.154C293.962 127.634 294.188 128.057 294.481 128.422C294.782 128.787 295.144 129.074 295.566 129.281C295.996 129.489 296.483 129.593 297.027 129.593C297.729 129.593 298.324 129.45 298.811 129.163C299.298 128.877 299.724 128.493 300.089 128.014L301.292 128.97C301.041 129.349 300.723 129.711 300.336 130.055C299.949 130.398 299.473 130.678 298.907 130.893C298.349 131.107 297.686 131.215 296.92 131.215ZM307.146 129.206L310.326 119.377H312.356L308.178 131H306.846L307.146 129.206ZM304.493 119.377L307.77 129.26L307.995 131H306.663L302.452 119.377H304.493ZM316.428 119.377V131H314.43V119.377H316.428ZM314.279 116.294C314.279 115.972 314.376 115.7 314.569 115.478C314.77 115.256 315.063 115.145 315.45 115.145C315.83 115.145 316.12 115.256 316.32 115.478C316.528 115.7 316.632 115.972 316.632 116.294C316.632 116.602 316.528 116.867 316.32 117.089C316.12 117.304 315.83 117.411 315.45 117.411C315.063 117.411 314.77 117.304 314.569 117.089C314.376 116.867 314.279 116.602 314.279 116.294ZM321.777 114.5V131H319.779V114.5H321.777ZM325 129.947C325 129.611 325.104 129.328 325.312 129.099C325.526 128.862 325.834 128.744 326.235 128.744C326.636 128.744 326.941 128.862 327.148 129.099C327.363 129.328 327.471 129.611 327.471 129.947C327.471 130.277 327.363 130.556 327.148 130.785C326.941 131.014 326.636 131.129 326.235 131.129C325.834 131.129 325.526 131.014 325.312 130.785C325.104 130.556 325 130.277 325 129.947Z" fill="#88B8D5"/>
<path fill-rule="evenodd" clip-rule="evenodd" d="M72.2057 89.9868C73.0467 90.4043 74.0548 90.878 75.2352 91.4127C76.413 91.945 77.704 92.4383 79.1031 92.89C80.5047 93.3417 81.9998 93.7249 83.5858 94.0375C85.1743 94.35 86.8071 94.5063 88.489 94.5063C92.9004 94.5063 96.1881 93.747 98.3471 92.2283C100.506 90.712 101.586 88.5364 101.586 85.709C101.586 84.2733 101.246 83.0623 100.57 82.0759C99.8938 81.0919 98.9594 80.2568 97.7692 79.5732C96.5791 78.8895 95.1725 78.3206 93.5496 77.8689C91.9267 77.4172 90.1587 77.0168 88.2432 76.6701C87.1465 76.5065 85.9735 76.3088 84.7244 76.0792C83.4752 75.8473 82.2383 75.5397 81.0138 75.1563C79.7867 74.773 78.6089 74.2993 77.4753 73.7304C76.3442 73.164 75.3507 72.4681 74.4999 71.6453C73.6466 70.8224 72.9631 69.8481 72.4516 68.725C71.9377 67.5994 71.6794 66.2833 71.6794 64.7768C71.6794 62.8528 72.0016 61.0339 72.6434 59.3174C73.2851 57.6034 74.3229 56.0968 75.759 54.7979C77.195 53.4989 79.0638 52.4734 81.3629 51.7214C83.6621 50.9669 86.4579 50.5909 89.7505 50.5909C91.5013 50.5909 93.1685 50.735 94.757 51.0256C96.3455 51.3162 97.8553 51.6873 99.2913 52.139C100.727 52.5907 102.075 53.0935 103.336 53.6502C104.598 54.2069 105.763 54.7393 106.838 55.2496L104.947 60.4308C104.246 60.0596 103.324 59.6201 102.181 59.1098C101.037 58.5995 99.7635 58.1185 98.3643 57.6668C96.9627 57.2151 95.475 56.8318 93.8988 56.5193C92.3226 56.2068 90.766 56.0505 89.2243 56.0505C87.0309 56.0505 85.2038 56.2873 83.7432 56.7634C82.285 57.2371 81.1244 57.8645 80.2588 58.641C79.3957 59.4174 78.7884 60.2989 78.4392 61.2829C78.0876 62.2693 77.913 63.2582 77.913 64.2569C77.913 65.5534 78.2351 66.6422 78.8769 67.5237C79.5187 68.4051 80.4162 69.1303 81.5719 69.6968C82.7277 70.2657 84.112 70.7222 85.7227 71.0714C87.3333 71.4181 89.0964 71.7087 91.0095 71.9406C93.0406 72.2874 95.0594 72.739 97.0684 73.2957C99.0749 73.8524 100.885 74.6411 102.495 75.6617C104.106 76.6798 105.409 78.0081 106.4 79.6416C107.394 81.2775 107.888 83.3578 107.888 85.8825C107.888 88.1092 107.433 90.0918 106.523 91.8302C105.613 93.5687 104.3 95.041 102.584 96.2447C100.868 97.4509 98.7897 98.3714 96.3504 99.0087C93.9111 99.6459 91.1742 99.9659 88.1398 99.9659C86.2956 99.9659 84.508 99.8388 82.7818 99.5824C81.0531 99.3285 79.4204 98.9867 77.8786 98.557C76.3368 98.1297 74.9007 97.6292 73.5704 97.0627C72.2401 96.4938 71.05 95.8859 70 95.2364L72.2057 89.9868ZM122 83.8656C122.305 85.4673 122.853 86.9323 123.647 88.2654C124.442 89.5985 125.42 90.7462 126.588 91.7082C127.756 92.6702 129.074 93.4222 130.545 93.9667C132.015 94.5136 133.557 94.7847 135.168 94.7847C136.383 94.7847 137.501 94.6797 138.529 94.4722C139.557 94.2622 140.509 93.9619 141.384 93.5688C142.26 93.1732 143.064 92.7093 143.799 92.177C144.534 91.6448 145.23 91.0415 145.884 90.3701L149.386 93.9495C148.638 94.7626 147.763 95.5318 146.759 96.2618C145.756 96.9919 144.647 97.6365 143.432 98.1932C142.218 98.7499 140.912 99.1894 139.51 99.5142C138.109 99.8389 136.638 100 135.099 100C132.367 100 129.827 99.5068 127.481 98.5229C125.135 97.5364 123.104 96.1934 121.388 94.4892C119.671 92.7849 118.324 90.7975 117.343 88.5268C116.364 86.2536 115.872 83.8314 115.872 81.2579C115.872 78.6868 116.364 76.2624 117.343 73.9917C118.324 71.721 119.671 69.7334 121.388 68.0292C123.104 66.3249 125.135 64.9747 127.481 63.9785C129.827 62.9799 132.367 62.4817 135.099 62.4817C137.713 62.4817 140.017 62.7942 142.014 63.4217C144.01 64.0468 145.69 64.8868 147.057 65.9416C148.422 66.9964 149.454 68.2147 150.155 69.5942C150.856 70.9713 151.205 72.4144 151.205 73.9233C151.205 75.2906 150.991 76.5774 150.559 77.7811C150.126 78.9873 149.432 80.042 148.476 80.9454C147.517 81.8488 146.28 82.5618 144.763 83.0844C143.246 83.6069 141.414 83.8656 139.264 83.8656H122ZM138.669 78.8945C140.934 78.8261 142.621 78.3158 143.73 77.3636C144.839 76.4138 145.392 75.2075 145.392 73.7474C145.392 73.0296 145.183 72.2996 144.763 71.5574C144.342 70.8151 143.713 70.1484 142.872 69.5576C142.031 68.9667 140.981 68.4857 139.719 68.1146C138.46 67.7434 136.978 67.5579 135.274 67.5579C133.616 67.5579 132.04 67.8436 130.545 68.4101C129.052 68.979 127.715 69.7676 126.537 70.776C125.357 71.7844 124.366 72.9832 123.559 74.375C122.755 75.7643 122.211 77.2708 121.931 78.8945H138.669ZM185.663 93.9495C184.753 94.8554 183.703 95.671 182.513 96.401C181.32 97.1311 180.061 97.7464 178.731 98.2445C177.401 98.7426 176.021 99.1186 174.597 99.375C173.174 99.6289 171.762 99.7583 170.361 99.7583C168.657 99.7583 167.046 99.5435 165.529 99.1137C164.012 98.684 162.686 98.0174 161.555 97.114C160.422 96.2106 159.524 95.041 158.858 93.6029C158.191 92.1648 157.859 90.4264 157.859 88.3876C157.859 86.4392 158.344 84.8398 159.312 83.5897C160.281 82.3371 161.577 81.341 163.2 80.5988C164.823 79.8565 166.685 79.3412 168.785 79.0507C170.887 78.7601 173.058 78.6161 175.298 78.6161C175.952 78.6161 176.7 78.6283 177.538 78.6502C178.379 78.6747 179.25 78.6966 180.147 78.721C181.047 78.743 181.928 78.7724 182.793 78.8066C183.656 78.8432 184.451 78.8602 185.174 78.8602V74.4434C185.127 73.54 184.881 72.6708 184.438 71.8357C183.996 71.0007 183.334 70.2656 182.459 69.6284C181.584 68.9911 180.492 68.4809 179.186 68.0976C177.878 67.7167 176.348 67.5237 174.597 67.5237C173.267 67.5237 172.001 67.6922 170.798 68.0292C169.596 68.3637 168.541 68.8104 167.629 69.3671C166.719 69.9238 165.996 70.5734 165.458 71.3156C164.921 72.0554 164.653 72.822 164.653 73.6082H158.489C158.535 71.8942 158.993 70.3536 159.856 68.9838C160.719 67.6165 161.875 66.4519 163.323 65.4899C164.769 64.5279 166.451 63.7856 168.364 63.2655C170.28 62.743 172.323 62.4817 174.494 62.4817C177.295 62.4817 179.747 62.7942 181.847 63.4217C183.949 64.0468 185.7 64.894 187.099 65.9586C188.501 67.0256 189.546 68.2659 190.234 69.6796C190.923 71.0933 191.267 72.5778 191.267 74.1307V98.9574H186.224L185.663 93.9495ZM172.357 94.9239C173.688 94.9239 175.043 94.7554 176.42 94.4209C177.797 94.084 179.068 93.6151 180.236 93.012C181.404 92.4089 182.429 91.6911 183.317 90.8561C184.205 90.021 184.824 89.1054 185.174 88.1092V83.2064C184.519 83.2064 183.801 83.1941 183.02 83.1721C182.238 83.1477 181.433 83.1258 180.605 83.1013C179.776 83.0794 178.97 83.0551 178.188 83.0331C177.406 83.0087 176.688 82.9964 176.034 82.9964C174.632 82.9964 173.225 83.0722 171.814 83.2235C170.403 83.3749 169.124 83.6532 167.98 84.0585C166.837 84.4639 165.903 85.0328 165.177 85.7628C164.454 86.4929 164.093 87.4377 164.093 88.595C164.093 89.7768 164.309 90.7681 164.739 91.569C165.172 92.3674 165.755 93.0243 166.49 93.5321C167.228 94.0424 168.096 94.4012 169.099 94.6112C170.105 94.8188 171.189 94.9239 172.357 94.9239ZM224.36 68.8446H220.438C218.616 68.8446 216.953 69.1132 215.446 69.6455C213.941 70.1778 212.658 70.9787 211.595 72.0457C210.533 73.1103 209.704 74.4262 209.109 75.9913C208.514 77.5564 208.214 79.3803 208.214 81.4679V98.9574H202.158V63.4901H207.164L207.796 68.9838C208.401 68.1976 209.119 67.4676 209.948 66.7937C210.776 66.1223 211.711 65.5435 212.751 65.0552C213.789 64.5693 214.927 64.186 216.164 63.9077C217.401 63.6294 218.731 63.4901 220.157 63.4901H224.36V68.8446ZM262.914 95.0288C260.93 96.7672 258.781 98.0369 256.469 98.8354C254.16 99.6362 251.824 100.012 249.466 99.9659C246.687 99.9195 244.115 99.4042 241.745 98.4178C239.374 97.4338 237.321 96.0957 235.583 94.4012C233.842 92.7092 232.482 90.7389 231.503 88.4901C230.522 86.2438 230.033 83.8192 230.033 81.2238C230.033 78.6283 230.522 76.1891 231.503 73.9038C232.482 71.6208 233.842 69.6333 235.583 67.9412C237.321 66.2492 239.374 64.916 241.745 63.9418C244.115 62.9701 246.687 62.4817 249.466 62.4817C251.802 62.4817 254.123 62.8773 256.435 63.666C258.746 64.4522 260.895 65.7047 262.877 67.4211L259.132 71.3156C257.918 70.1778 256.489 69.3037 254.841 68.6885C253.196 68.0756 251.428 67.7679 249.537 67.7679C247.762 67.7679 246.063 68.0804 244.442 68.7054C242.819 69.3329 241.388 70.2315 240.151 71.401C238.915 72.573 237.929 73.9867 237.193 75.6422C236.458 77.3 236.089 79.1606 236.089 81.2238C236.089 83.287 236.463 85.1475 237.21 86.8054C237.958 88.4633 238.949 89.8696 240.186 91.0294C241.425 92.1892 242.854 93.0803 244.477 93.7078C246.1 94.3329 247.786 94.6455 249.537 94.6455C253.528 94.6455 256.74 93.476 259.167 91.1344L262.914 95.0288ZM306.615 98.9574H300.522V79.6587C300.522 77.4808 300.278 75.6372 299.786 74.1307C299.297 72.6242 298.579 71.4011 297.635 70.4635C296.688 69.5235 295.52 68.8398 294.131 68.4101C292.744 67.9828 291.151 67.7679 289.353 67.7679C287.765 67.7679 286.27 68.0388 284.87 68.5858C283.469 69.1303 282.244 69.9068 281.192 70.9152C280.142 71.9236 279.313 73.1469 278.706 74.5826C278.101 76.0207 277.796 77.6321 277.796 79.417V98.9915H271.737V50H277.761L277.727 68.012C278.425 67.2234 279.232 66.4933 280.142 65.8194C281.052 65.148 282.05 64.562 283.137 64.0639C284.221 63.5658 285.377 63.1776 286.604 62.8992C287.829 62.6209 289.107 62.4817 290.437 62.4817C295.923 62.4817 299.991 63.8955 302.641 66.7253C305.292 69.5528 306.615 73.8183 306.615 79.5195V98.9574ZM316.982 95.9322C316.982 95.4219 317.076 94.9361 317.263 94.4722C317.449 94.0083 317.717 93.6029 318.067 93.2537C318.418 92.907 318.836 92.6287 319.328 92.4211C319.817 92.2112 320.356 92.1086 320.939 92.1086C321.521 92.1086 322.052 92.2112 322.532 92.4211C323.009 92.6287 323.425 92.907 323.774 93.2537C324.125 93.6029 324.398 94.0083 324.598 94.4722C324.797 94.9361 324.895 95.4219 324.895 95.9322C324.895 96.4645 324.797 96.9578 324.598 97.4095C324.398 97.8612 324.125 98.2566 323.774 98.5911C323.425 98.9281 323.004 99.1942 322.515 99.392C322.023 99.5897 321.487 99.6875 320.904 99.6875C320.319 99.6875 319.788 99.5897 319.311 99.392C318.831 99.1942 318.418 98.9233 318.067 98.5741C317.717 98.2274 317.449 97.8269 317.263 97.3752C317.076 96.9235 316.982 96.4425 316.982 95.9322ZM336.032 51.6677H342.228V98.9574H336.032V51.6677ZM389.433 98.9574H383.34V79.8346C383.34 77.7006 383.094 75.8741 382.605 74.3578C382.116 72.8391 381.407 71.5915 380.485 70.6197C379.563 69.6455 378.427 68.9276 377.072 68.4637C375.717 67.9998 374.178 67.7679 372.449 67.7679C370.792 67.7679 369.245 68.0682 367.809 68.6713C366.373 69.2744 365.119 70.1216 364.044 71.2106C362.972 72.2995 362.132 73.6083 361.524 75.1392C360.917 76.6701 360.614 78.35 360.614 80.1812V98.9574H354.555V63.4901H359.564L360.088 68.3245C360.811 67.5139 361.652 66.7472 362.608 66.0294C363.567 65.3115 364.612 64.6915 365.744 64.1689C366.877 63.6464 368.077 63.2361 369.351 62.9334C370.622 62.633 371.926 62.4817 373.256 62.4817C378.742 62.4817 382.809 63.9321 385.46 66.8279C388.108 69.7261 389.433 74.0258 389.433 79.7295V98.9574ZM431 95.0288C429.016 96.7672 426.869 98.0369 424.557 98.8354C422.246 99.6362 419.91 100.012 417.552 99.9659C414.776 99.9195 412.201 99.4042 409.831 98.4178C407.463 97.4338 405.407 96.0957 403.668 94.4012C401.93 92.7092 400.57 90.7389 399.589 88.4901C398.608 86.2438 398.119 83.8192 398.119 81.2238C398.119 78.6283 398.608 76.1891 399.589 73.9038C400.57 71.6208 401.93 69.6333 403.668 67.9412C405.407 66.2492 407.463 64.916 409.831 63.9418C412.201 62.9701 414.776 62.4817 417.552 62.4817C419.888 62.4817 422.209 62.8773 424.521 63.666C426.832 64.4522 428.981 65.7047 430.966 67.4211L427.218 71.3156C426.003 70.1778 424.575 69.3037 422.927 68.6885C421.282 68.0756 419.514 67.7679 417.623 67.7679C415.848 67.7679 414.151 68.0804 412.528 68.7054C410.905 69.3329 409.477 70.2315 408.237 71.401C407 72.573 406.014 73.9867 405.279 75.6422C404.544 77.3 404.175 79.1606 404.175 81.2238C404.175 83.287 404.549 85.1475 405.296 86.8054C406.044 88.4633 407.035 89.8696 408.274 91.0294C409.511 92.1892 410.94 93.0803 412.563 93.7078C414.186 94.3329 415.872 94.6455 417.623 94.6455C421.614 94.6455 424.826 93.476 427.253 91.1344L431 95.0288Z" fill="#BCFAF9"/>
</svg>
