<svg width="60" height="90" viewBox="0 0 60 90" fill="none" xmlns="http://www.w3.org/2000/svg">
<path d="M14.5176 65.4688H15.9121L18.2441 71.8906L20.5703 65.4688H21.9707L18.8008 74H17.6816L14.5176 65.4688ZM13.8145 65.4688H15.1797L15.4258 71.3691V74H13.8145V65.4688ZM21.3027 65.4688H22.6738V74H21.0625V71.3691L21.3027 65.4688ZM29.9688 72.7344V74H25.4336V72.7344H29.9688ZM25.9258 65.4688V74H24.3145V65.4688H25.9258ZM29.377 68.9902V70.2266H25.4336V68.9902H29.377ZM29.9512 65.4688V66.7402H25.4336V65.4688H29.9512ZM37.9434 65.4688V74H36.3262L32.6992 68.082V74H31.0879V65.4688H32.6992L36.3379 71.3926V65.4688H37.9434ZM44.3301 65.4688H45.9414V71.1348C45.9414 71.7871 45.8008 72.3359 45.5195 72.7812C45.2383 73.2227 44.8555 73.5566 44.3711 73.7832C43.8867 74.0059 43.3359 74.1172 42.7188 74.1172C42.0938 74.1172 41.5371 74.0059 41.0488 73.7832C40.5605 73.5566 40.1777 73.2227 39.9004 72.7812C39.623 72.3359 39.4844 71.7871 39.4844 71.1348V65.4688H41.0957V71.1348C41.0957 71.5332 41.1621 71.8594 41.2949 72.1133C41.4277 72.3633 41.6152 72.5488 41.8574 72.6699C42.0996 72.791 42.3867 72.8516 42.7188 72.8516C43.0547 72.8516 43.3418 72.791 43.5801 72.6699C43.8223 72.5488 44.0078 72.3633 44.1367 72.1133C44.2656 71.8594 44.3301 71.5332 44.3301 71.1348V65.4688Z" fill="#BCFAF9"/>
<path fill-rule="evenodd" clip-rule="evenodd" d="M59.9999 5.39993V54.5999C59.9999 57.5784 57.5799 59.9999 54.5999 59.9999H5.39999C2.42 59.9999 0 57.5784 0 54.5999V5.39993C0 2.42137 2.42 -6.10352e-05 5.39999 -6.10352e-05H54.5999C57.5799 -6.10352e-05 59.9999 2.42137 59.9999 5.39993ZM56.4999 44.0013C56.4999 42.0685 54.9333 40.4999 52.9999 40.4999H6.99999C5.06666 40.4999 3.5 42.0685 3.5 44.0013C3.5 45.9299 5.06666 47.4985 6.99999 47.4985H52.9999C54.9333 47.4985 56.4999 45.9299 56.4999 44.0013ZM56.4999 29.9999C56.4999 28.0671 54.9333 26.4985 52.9999 26.4985H6.99999C5.06666 26.4985 3.5 28.0671 3.5 29.9999C3.5 31.9328 5.06666 33.5013 6.99999 33.5013H52.9999C54.9333 33.5013 56.4999 31.9328 56.4999 29.9999ZM56.4999 15.9985C56.4999 14.0699 54.9333 12.5014 52.9999 12.5014H6.99999C5.06666 12.5014 3.5 14.0699 3.5 15.9985C3.5 17.9313 5.06666 19.4999 6.99999 19.4999H52.9999C54.9333 19.4999 56.4999 17.9313 56.4999 15.9985Z" fill="#BCFAF9"/>
</svg>
