<svg width="60" height="60" viewBox="0 0 60 60" fill="none" xmlns="http://www.w3.org/2000/svg">
<path fill-rule="evenodd" clip-rule="evenodd" d="M59.9999 5.4V54.5999C59.9999 57.5785 57.5799 59.9999 54.5999 59.9999H5.39999C2.42 59.9999 0 57.5785 0 54.5999V5.4C0 2.42143 2.42 0 5.39999 0H54.5999C57.5799 0 59.9999 2.42143 59.9999 5.4ZM56.4999 44.0014C56.4999 42.0685 54.9333 40.5 52.9999 40.5H6.99999C5.06666 40.5 3.5 42.0685 3.5 44.0014C3.5 45.93 5.06666 47.4985 6.99999 47.4985H52.9999C54.9333 47.4985 56.4999 45.93 56.4999 44.0014ZM56.4999 30C56.4999 28.0671 54.9333 26.4985 52.9999 26.4985H6.99999C5.06666 26.4985 3.5 28.0671 3.5 30C3.5 31.9328 5.06666 33.5014 6.99999 33.5014H52.9999C54.9333 33.5014 56.4999 31.9328 56.4999 30ZM56.4999 15.9986C56.4999 14.07 54.9333 12.5014 52.9999 12.5014H6.99999C5.06666 12.5014 3.5 14.07 3.5 15.9986C3.5 17.9314 5.06666 19.5 6.99999 19.5H52.9999C54.9333 19.5 56.4999 17.9314 56.4999 15.9986Z" fill="white" fill-opacity="0.5"/>
</svg>
