<svg width="56" height="25" viewBox="0 0 56 25" fill="none" xmlns="http://www.w3.org/2000/svg">
<path d="M16.3407 13.7729C16.2108 14.5747 16.0211 15.3895 15.7713 16.2172C15.5316 17.045 15.2218 17.8468 14.8522 18.6226C14.4826 19.3984 14.0431 20.1302 13.5436 20.8171C13.0441 21.5049 12.4746 22.0987 11.8353 22.5986C11.1959 23.0985 10.4866 23.4883 9.6974 23.7703C8.91819 24.0512 8.04911 24.1812 7.12005 24.1602C6.22096 24.1392 5.43177 23.9702 4.75245 23.6523C4.07314 23.3354 3.48373 22.9155 2.99422 22.3956C2.50472 21.8748 2.10517 21.2709 1.79549 20.5831C1.4858 19.8963 1.24597 19.1725 1.09612 18.4117C0.936281 17.6519 0.846362 16.8761 0.836372 16.0843C0.816393 15.2925 0.866347 14.5277 0.966246 13.7879L1.37587 11.1946C1.50573 10.3928 1.69561 9.57796 1.94536 8.75018C2.18512 7.92239 2.49472 7.12059 2.86435 6.34479C3.23398 5.56899 3.67359 4.83718 4.17308 4.15035C4.68257 3.46253 5.25196 2.8667 5.89132 2.36183C6.53067 1.85596 7.23997 1.46306 8.02917 1.18213C8.81837 0.901201 9.67747 0.770244 10.6165 0.791239C11.5156 0.812233 12.3148 0.981185 12.9941 1.2991C13.6734 1.61702 14.2628 2.03591 14.7523 2.55677C15.2419 3.07764 15.6414 3.68149 15.9411 4.36832C16.2508 5.05614 16.4806 5.78194 16.6305 6.54774C16.7803 7.31355 16.8702 8.09434 16.8802 8.89113C16.9002 9.68793 16.8502 10.4557 16.7503 11.1946L16.3407 13.7729ZM13.9531 11.1326C14.013 10.6537 14.063 10.1328 14.103 9.56997C14.1429 9.00812 14.1329 8.44326 14.083 7.8754C14.043 7.30755 13.9432 6.75569 13.7934 6.21983C13.6535 5.68297 13.4337 5.2071 13.154 4.7902C12.8643 4.37431 12.5047 4.03538 12.0551 3.77545C11.6156 3.51452 11.0661 3.37457 10.4268 3.35358C9.74745 3.33258 9.13798 3.43356 8.58854 3.6575C8.04908 3.88144 7.55962 4.19435 7.13005 4.59525C6.6905 4.99614 6.31086 5.45901 5.98119 5.98588C5.66151 6.51174 5.37183 7.06862 5.13207 7.65647C4.89232 8.24531 4.70254 8.84116 4.54271 9.445C4.38287 10.0498 4.26298 10.6227 4.16308 11.1636L3.73347 13.8039C3.66354 14.2727 3.62356 14.7876 3.59359 15.3505C3.55363 15.9123 3.56365 16.4802 3.62359 17.053C3.67354 17.6259 3.77348 18.1827 3.91334 18.7246C4.06319 19.2654 4.28288 19.7473 4.57258 20.1692C4.86229 20.5911 5.23201 20.935 5.67157 21.2C6.11112 21.4659 6.66057 21.6088 7.29993 21.6298C7.97924 21.6508 8.59859 21.5489 9.14803 21.3249C9.69748 21.101 10.187 20.7891 10.6165 20.3882C11.0361 19.9873 11.4157 19.5214 11.7354 18.9895C12.0551 18.4587 12.3347 17.8988 12.5745 17.3109C12.8043 16.7221 13.0041 16.1263 13.154 15.5224C13.3138 14.9176 13.4437 14.3397 13.5336 13.7879L13.9531 11.1326Z" fill="#DAE0E5"/>
<path d="M33.0141 13.8032H23.8334L22.0851 23.8476H19.248L23.184 1.10352H36.7404L36.3107 3.57088H25.6116L24.253 11.3508H33.4336L33.0141 13.8032Z" fill="#DAE0E5"/>
<path d="M51.7748 13.8032H42.5941L40.8459 23.8476H38.0088L41.9447 1.10352H55.5011L55.0715 3.57088H44.3723L43.0137 11.3508H52.1944L51.7748 13.8032Z" fill="#DAE0E5"/>
</svg>
