<svg width="37" height="25" viewBox="0 0 37 25" fill="none" xmlns="http://www.w3.org/2000/svg">
<path d="M16.351 13.7709C16.2211 14.5727 16.0313 15.3875 15.7816 16.2153C15.5418 17.0431 15.2321 17.8449 14.8625 18.6207C14.4928 19.3965 14.0534 20.1283 13.5539 20.8151C13.0544 21.5029 12.4849 22.0968 11.8455 22.5966C11.2062 23.0965 10.4969 23.4864 9.70766 23.7683C8.92844 24.0492 8.05937 24.1792 7.13031 24.1582C6.23122 24.1372 5.44202 23.9683 4.76271 23.6504C4.0834 23.3335 3.49398 22.9135 3.00448 22.3937C2.51497 21.8728 2.11543 21.269 1.80574 20.5812C1.49605 19.8943 1.25622 19.1705 1.10637 18.4097C0.946535 17.6499 0.856616 16.8741 0.846626 16.0823C0.826647 15.2905 0.876601 14.5257 0.9765 13.7859L1.38612 11.1926C1.51599 10.3908 1.70586 9.57601 1.95561 8.74822C2.19537 7.92044 2.50498 7.11864 2.8746 6.34284C3.24423 5.56704 3.68384 4.83522 4.18334 4.1484C4.69282 3.46058 5.26222 2.86475 5.90157 2.35988C6.54092 1.85401 7.25022 1.4611 8.03942 1.18018C8.82862 0.899248 9.68772 0.768291 10.6268 0.789286C11.5259 0.81028 12.3251 0.979232 13.0044 1.29715C13.6837 1.61507 14.2731 2.03395 14.7626 2.55482C15.2521 3.07569 15.6516 3.67954 15.9513 4.36636C16.261 5.05418 16.4909 5.77999 16.6407 6.54579C16.7906 7.31159 16.8805 8.09239 16.8905 8.88918C16.9104 9.68597 16.8605 10.4538 16.7606 11.1926L16.351 13.7709ZM13.9634 11.1306C14.0233 10.6517 14.0733 10.1309 14.1132 9.56802C14.1532 9.00616 14.1432 8.4413 14.0932 7.87345C14.0533 7.3056 13.9535 6.75373 13.8036 6.21787C13.6638 5.68101 13.444 5.20514 13.1642 4.78825C12.8745 4.37236 12.5149 4.03343 12.0654 3.7735C11.6258 3.51257 11.0764 3.37262 10.437 3.35163C9.75771 3.33063 9.14824 3.43161 8.59879 3.65555C8.05934 3.87949 7.56987 4.1924 7.14031 4.59329C6.70075 4.99419 6.32111 5.45706 5.99145 5.98392C5.67177 6.50979 5.38209 7.06667 5.14233 7.65451C4.90257 8.24336 4.7128 8.83921 4.55296 9.44305C4.39312 10.0479 4.27324 10.6207 4.17334 11.1616L3.74372 13.8019C3.67379 14.2708 3.63382 14.7857 3.60385 15.3485C3.56389 15.9104 3.57391 16.4782 3.63385 17.0511C3.68379 17.6239 3.78373 18.1808 3.92359 18.7226C4.07344 19.2635 4.29313 19.7454 4.58284 20.1673C4.87254 20.5892 5.24227 20.9331 5.68182 21.198C6.12138 21.4639 6.67083 21.6069 7.31018 21.6279C7.98949 21.6489 8.60884 21.5469 9.15829 21.323C9.70773 21.099 10.1972 20.7871 10.6268 20.3862C11.0463 19.9853 11.426 19.5194 11.7456 18.9876C12.0653 18.4567 12.345 17.8968 12.5848 17.309C12.8145 16.7201 13.0144 16.1243 13.1642 15.5205C13.3241 14.9156 13.454 14.3378 13.5439 13.7859L13.9634 11.1306Z" fill="#DAE0E5"/>
<path d="M32.8245 23.8457H30.0374L24.3931 6.72509L21.3761 23.8457H18.519L22.475 1.10156H25.2522L30.8965 18.1901L33.9135 1.10156H36.7706L32.8245 23.8457Z" fill="#DAE0E5"/>
</svg>
