<svg width="113" height="24" viewBox="0 0 113 24" fill="none" xmlns="http://www.w3.org/2000/svg">
<path d="M0.92627 23.1621L4.86223 0.417969L9.7873 0.432964C11.2858 0.464956 12.5844 0.768879 13.6833 1.34673C14.7821 1.92558 15.6713 2.69038 16.3606 3.64313C17.0399 4.59589 17.5095 5.70258 17.7592 6.96326C18.019 8.22293 18.0489 9.55558 17.8791 10.9622L17.6393 12.6328C17.4196 14.1324 16.99 15.5231 16.3606 16.8037C15.7213 18.0854 14.922 19.1971 13.943 20.1389C12.964 21.0816 11.8252 21.8214 10.5265 22.3573C9.22786 22.8931 7.78925 23.1621 6.22084 23.1621H0.92627ZM7.3297 2.79234L4.20286 20.8027L6.28084 20.8187C7.4996 20.8087 8.58841 20.5897 9.55743 20.1628C10.5264 19.736 11.3656 19.1551 12.0849 18.4213C12.8042 17.6865 13.3936 16.8227 13.8531 15.828C14.3027 14.8332 14.6323 13.7685 14.8221 12.6328L15.0719 10.9152C15.2017 9.91549 15.2118 8.93876 15.1119 7.986C14.992 7.03325 14.7322 6.17946 14.3226 5.42465C13.9031 4.66885 13.3236 4.05501 12.5744 3.58114C11.8351 3.10726 10.8861 2.84934 9.7473 2.80735L7.3297 2.79234Z" fill="#DAE0E5"/>
<path d="M33.9427 12.6488H24.742L23.3434 20.7097H34.0825L33.643 23.1621H20.0967L24.0426 0.417969H37.4691L37.0295 2.88533H26.4302L25.1715 10.1964H34.3723L33.9427 12.6488Z" fill="#DAE0E5"/>
<path d="M42.3541 20.7097H53.1431L52.7037 23.1621H39.1074L43.0434 0.417969H45.8606L42.3541 20.7097Z" fill="#DAE0E5"/>
<path d="M71.4651 12.6488H62.2743L60.8659 20.7097H71.605L71.1654 23.1621H57.6191L61.5651 0.417969H74.9915L74.552 2.88533H63.9527L62.694 10.1964H71.9046L71.4651 12.6488Z" fill="#DAE0E5"/>
<path d="M94.6615 2.88533H87.8584L84.342 23.1621H81.5948L85.1111 2.88533H78.2881L78.7177 0.417969H95.101L94.6615 2.88533Z" fill="#DAE0E5"/>
<path d="M108.987 12.6488H99.7964L98.3878 20.7097H109.127L108.687 23.1621H95.1411L99.0971 0.417969H112.514L112.084 2.88533H101.485L100.216 10.1964H109.427L108.987 12.6488Z" fill="#DAE0E5"/>
</svg>
