<svg width="149" height="47" viewBox="0 0 149 47" fill="none" xmlns="http://www.w3.org/2000/svg">
<path d="M125.499 46.0039C137.925 46.0039 147.999 35.9305 147.999 23.5043C147.999 11.0782 137.925 1.00488 125.499 1.00488C113.073 1.00488 103 11.0782 103 23.5043C103 35.9305 113.073 46.0039 125.499 46.0039Z" stroke="#BCFAF9" stroke-width="1.32828" stroke-miterlimit="1.5" stroke-linecap="round" stroke-linejoin="round"/>
<path fill-rule="evenodd" clip-rule="evenodd" d="M117.373 24.2963H118.066C118.439 24.2963 118.813 24.3552 119.168 24.4709L120.927 25.0456C123.896 26.0142 127.096 26.0142 130.065 25.0456L131.823 24.4709C132.179 24.3552 132.552 24.2963 132.926 24.2963H133.619C137.824 24.2963 141.234 27.7057 141.234 31.9112V34.3237C141.234 35.8527 140.125 37.1585 138.616 37.4042C129.927 38.8236 121.065 38.8236 112.376 37.4042C110.867 37.1585 109.758 35.8527 109.758 34.3237V31.9112C109.758 27.7057 113.168 24.2963 117.373 24.2963Z" fill="#BCFAF9"/>
<path fill-rule="evenodd" clip-rule="evenodd" d="M125.496 5.005C129.701 5.005 133.111 8.41448 133.111 12.62C133.111 16.8255 129.701 20.235 125.496 20.235C121.29 20.235 117.881 16.8255 117.881 12.62C117.881 8.41448 121.29 5.005 125.496 5.005Z" fill="#BCFAF9"/>
<path d="M12.3672 27.5449C12.3672 27.2402 12.3203 26.9668 12.2266 26.7246C12.1406 26.4746 11.9766 26.248 11.7344 26.0449C11.4922 25.834 11.1523 25.627 10.7148 25.4238C10.2773 25.2207 9.71094 25.0098 9.01562 24.791C8.24219 24.541 7.50781 24.2598 6.8125 23.9473C6.125 23.6348 5.51562 23.2715 4.98438 22.8574C4.46094 22.4355 4.04688 21.9473 3.74219 21.3926C3.44531 20.8379 3.29688 20.1934 3.29688 19.459C3.29688 18.748 3.45312 18.1035 3.76562 17.5254C4.07812 16.9395 4.51562 16.4395 5.07812 16.0254C5.64062 15.6035 6.30469 15.2793 7.07031 15.0527C7.84375 14.8262 8.69141 14.7129 9.61328 14.7129C10.8711 14.7129 11.9688 14.9395 12.9062 15.3926C13.8438 15.8457 14.5703 16.4668 15.0859 17.2559C15.6094 18.0449 15.8711 18.9473 15.8711 19.9629H12.3789C12.3789 19.4629 12.2734 19.0254 12.0625 18.6504C11.8594 18.2676 11.5469 17.9668 11.125 17.748C10.7109 17.5293 10.1875 17.4199 9.55469 17.4199C8.94531 17.4199 8.4375 17.5137 8.03125 17.7012C7.625 17.8809 7.32031 18.127 7.11719 18.4395C6.91406 18.7441 6.8125 19.0879 6.8125 19.4707C6.8125 19.7598 6.88281 20.0215 7.02344 20.2559C7.17188 20.4902 7.39062 20.709 7.67969 20.9121C7.96875 21.1152 8.32422 21.3066 8.74609 21.4863C9.16797 21.666 9.65625 21.8418 10.2109 22.0137C11.1406 22.2949 11.957 22.6113 12.6602 22.9629C13.3711 23.3145 13.9648 23.709 14.4414 24.1465C14.918 24.584 15.2773 25.0801 15.5195 25.6348C15.7617 26.1895 15.8828 26.8184 15.8828 27.5215C15.8828 28.2637 15.7383 28.9277 15.4492 29.5137C15.1602 30.0996 14.7422 30.5957 14.1953 31.002C13.6484 31.4082 12.9961 31.7168 12.2383 31.9277C11.4805 32.1387 10.6328 32.2441 9.69531 32.2441C8.85156 32.2441 8.01953 32.1348 7.19922 31.916C6.37891 31.6895 5.63281 31.3496 4.96094 30.8965C4.29688 30.4434 3.76562 29.8652 3.36719 29.1621C2.96875 28.459 2.76953 27.627 2.76953 26.666H6.29688C6.29688 27.1973 6.37891 27.6465 6.54297 28.0137C6.70703 28.3809 6.9375 28.6777 7.23438 28.9043C7.53906 29.1309 7.89844 29.2949 8.3125 29.3965C8.73438 29.498 9.19531 29.5488 9.69531 29.5488C10.3047 29.5488 10.8047 29.4629 11.1953 29.291C11.5938 29.1191 11.8867 28.8809 12.0742 28.5762C12.2695 28.2715 12.3672 27.9277 12.3672 27.5449ZM22.0117 14.9473V32.0098H18.5078V14.9473H22.0117ZM38.8281 23.0918V29.8535C38.5625 30.1738 38.1523 30.5215 37.5977 30.8965C37.043 31.2637 36.3281 31.5801 35.4531 31.8457C34.5781 32.1113 33.5195 32.2441 32.2773 32.2441C31.1758 32.2441 30.1719 32.0645 29.2656 31.7051C28.3594 31.3379 27.5781 30.8027 26.9219 30.0996C26.2734 29.3965 25.7734 28.5371 25.4219 27.5215C25.0703 26.498 24.8945 25.3301 24.8945 24.0176V22.9512C24.8945 21.6387 25.0625 20.4707 25.3984 19.4473C25.7422 18.4238 26.2305 17.5605 26.8633 16.8574C27.4961 16.1543 28.25 15.6191 29.125 15.252C30 14.8848 30.9727 14.7012 32.043 14.7012C33.5273 14.7012 34.7461 14.9434 35.6992 15.4277C36.6523 15.9043 37.3789 16.5684 37.8789 17.4199C38.3867 18.2637 38.6992 19.2324 38.8164 20.3262H35.4062C35.3203 19.748 35.1562 19.2441 34.9141 18.8145C34.6719 18.3848 34.3242 18.0488 33.8711 17.8066C33.4258 17.5645 32.8477 17.4434 32.1367 17.4434C31.5508 17.4434 31.0273 17.5645 30.5664 17.8066C30.1133 18.041 29.7305 18.3887 29.418 18.8496C29.1055 19.3105 28.8672 19.8809 28.7031 20.5605C28.5391 21.2402 28.457 22.0293 28.457 22.9277V24.0176C28.457 24.9082 28.543 25.6973 28.7148 26.3848C28.8867 27.0645 29.1406 27.6387 29.4766 28.1074C29.8203 28.5684 30.2422 28.916 30.7422 29.1504C31.2422 29.3848 31.8242 29.502 32.4883 29.502C33.043 29.502 33.5039 29.4551 33.8711 29.3613C34.2461 29.2676 34.5469 29.1543 34.7734 29.0215C35.0078 28.8809 35.1875 28.748 35.3125 28.623V25.5996H32.1016V23.0918H38.8281ZM55.5508 14.9473V32.0098H52.0352L45.1797 20.5723V32.0098H41.6641V14.9473H45.1797L52.0469 26.3965V14.9473H55.5508ZM68.3242 14.9473V32.0098H64.8203V14.9473H68.3242ZM85.5039 14.9473V32.0098H81.9883L75.1328 20.5723V32.0098H71.6172V14.9473H75.1328L82 26.3965V14.9473H85.5039Z" fill="#BCFAF9"/>
</svg>
