<svg width="149" height="47" viewBox="0 0 149 47" fill="none" xmlns="http://www.w3.org/2000/svg">
<path d="M125.499 45.999C137.925 45.999 147.999 35.9256 147.999 23.4995C147.999 11.0733 137.925 1 125.499 1C113.073 1 103 11.0733 103 23.4995C103 35.9256 113.073 45.999 125.499 45.999Z" stroke="#DAE0E5" stroke-width="1.32828" stroke-miterlimit="1.5" stroke-linecap="round" stroke-linejoin="round"/>
<path fill-rule="evenodd" clip-rule="evenodd" d="M117.373 24.2915H118.066C118.439 24.2915 118.813 24.3504 119.168 24.4661L120.927 25.0408C123.896 26.0094 127.096 26.0094 130.065 25.0408L131.823 24.4661C132.179 24.3504 132.552 24.2915 132.926 24.2915H133.619C137.824 24.2915 141.234 27.701 141.234 31.9065V34.3189C141.234 35.848 140.125 37.1537 138.616 37.3994C129.927 38.8188 121.065 38.8188 112.376 37.3994C110.867 37.1537 109.758 35.848 109.758 34.3189V31.9065C109.758 27.701 113.168 24.2915 117.373 24.2915Z" fill="#DAE0E5"/>
<path fill-rule="evenodd" clip-rule="evenodd" d="M125.496 5C129.701 5 133.111 8.40948 133.111 12.615C133.111 16.8205 129.701 20.2299 125.496 20.2299C121.29 20.2299 117.881 16.8205 117.881 12.615C117.881 8.40948 121.29 5 125.496 5Z" fill="#DAE0E5"/>
<path d="M12.3672 28.54C12.3672 28.2354 12.3203 27.9619 12.2266 27.7197C12.1406 27.4697 11.9766 27.2432 11.7344 27.04C11.4922 26.8291 11.1523 26.6221 10.7148 26.4189C10.2773 26.2158 9.71094 26.0049 9.01562 25.7861C8.24219 25.5361 7.50781 25.2549 6.8125 24.9424C6.125 24.6299 5.51562 24.2666 4.98438 23.8525C4.46094 23.4307 4.04688 22.9424 3.74219 22.3877C3.44531 21.833 3.29688 21.1885 3.29688 20.4541C3.29688 19.7432 3.45312 19.0986 3.76562 18.5205C4.07812 17.9346 4.51562 17.4346 5.07812 17.0205C5.64062 16.5986 6.30469 16.2744 7.07031 16.0479C7.84375 15.8213 8.69141 15.708 9.61328 15.708C10.8711 15.708 11.9688 15.9346 12.9062 16.3877C13.8438 16.8408 14.5703 17.4619 15.0859 18.251C15.6094 19.04 15.8711 19.9424 15.8711 20.958H12.3789C12.3789 20.458 12.2734 20.0205 12.0625 19.6455C11.8594 19.2627 11.5469 18.9619 11.125 18.7432C10.7109 18.5244 10.1875 18.415 9.55469 18.415C8.94531 18.415 8.4375 18.5088 8.03125 18.6963C7.625 18.876 7.32031 19.1221 7.11719 19.4346C6.91406 19.7393 6.8125 20.083 6.8125 20.4658C6.8125 20.7549 6.88281 21.0166 7.02344 21.251C7.17188 21.4854 7.39062 21.7041 7.67969 21.9072C7.96875 22.1104 8.32422 22.3018 8.74609 22.4814C9.16797 22.6611 9.65625 22.8369 10.2109 23.0088C11.1406 23.29 11.957 23.6064 12.6602 23.958C13.3711 24.3096 13.9648 24.7041 14.4414 25.1416C14.918 25.5791 15.2773 26.0752 15.5195 26.6299C15.7617 27.1846 15.8828 27.8135 15.8828 28.5166C15.8828 29.2588 15.7383 29.9229 15.4492 30.5088C15.1602 31.0947 14.7422 31.5908 14.1953 31.9971C13.6484 32.4033 12.9961 32.7119 12.2383 32.9229C11.4805 33.1338 10.6328 33.2393 9.69531 33.2393C8.85156 33.2393 8.01953 33.1299 7.19922 32.9111C6.37891 32.6846 5.63281 32.3447 4.96094 31.8916C4.29688 31.4385 3.76562 30.8604 3.36719 30.1572C2.96875 29.4541 2.76953 28.6221 2.76953 27.6611H6.29688C6.29688 28.1924 6.37891 28.6416 6.54297 29.0088C6.70703 29.376 6.9375 29.6729 7.23438 29.8994C7.53906 30.126 7.89844 30.29 8.3125 30.3916C8.73438 30.4932 9.19531 30.5439 9.69531 30.5439C10.3047 30.5439 10.8047 30.458 11.1953 30.2861C11.5938 30.1143 11.8867 29.876 12.0742 29.5713C12.2695 29.2666 12.3672 28.9229 12.3672 28.54ZM22.0117 15.9424V33.0049H18.5078V15.9424H22.0117ZM38.8281 24.0869V30.8486C38.5625 31.1689 38.1523 31.5166 37.5977 31.8916C37.043 32.2588 36.3281 32.5752 35.4531 32.8408C34.5781 33.1064 33.5195 33.2393 32.2773 33.2393C31.1758 33.2393 30.1719 33.0596 29.2656 32.7002C28.3594 32.333 27.5781 31.7979 26.9219 31.0947C26.2734 30.3916 25.7734 29.5322 25.4219 28.5166C25.0703 27.4932 24.8945 26.3252 24.8945 25.0127V23.9463C24.8945 22.6338 25.0625 21.4658 25.3984 20.4424C25.7422 19.4189 26.2305 18.5557 26.8633 17.8525C27.4961 17.1494 28.25 16.6143 29.125 16.2471C30 15.8799 30.9727 15.6963 32.043 15.6963C33.5273 15.6963 34.7461 15.9385 35.6992 16.4229C36.6523 16.8994 37.3789 17.5635 37.8789 18.415C38.3867 19.2588 38.6992 20.2275 38.8164 21.3213H35.4062C35.3203 20.7432 35.1562 20.2393 34.9141 19.8096C34.6719 19.3799 34.3242 19.0439 33.8711 18.8018C33.4258 18.5596 32.8477 18.4385 32.1367 18.4385C31.5508 18.4385 31.0273 18.5596 30.5664 18.8018C30.1133 19.0361 29.7305 19.3838 29.418 19.8447C29.1055 20.3057 28.8672 20.876 28.7031 21.5557C28.5391 22.2354 28.457 23.0244 28.457 23.9229V25.0127C28.457 25.9033 28.543 26.6924 28.7148 27.3799C28.8867 28.0596 29.1406 28.6338 29.4766 29.1025C29.8203 29.5635 30.2422 29.9111 30.7422 30.1455C31.2422 30.3799 31.8242 30.4971 32.4883 30.4971C33.043 30.4971 33.5039 30.4502 33.8711 30.3564C34.2461 30.2627 34.5469 30.1494 34.7734 30.0166C35.0078 29.876 35.1875 29.7432 35.3125 29.6182V26.5947H32.1016V24.0869H38.8281ZM55.5508 15.9424V33.0049H52.0352L45.1797 21.5674V33.0049H41.6641V15.9424H45.1797L52.0469 27.3916V15.9424H55.5508ZM68.3242 15.9424V33.0049H64.8203V15.9424H68.3242ZM85.5039 15.9424V33.0049H81.9883L75.1328 21.5674V33.0049H71.6172V15.9424H75.1328L82 27.3916V15.9424H85.5039Z" fill="#DAE0E5"/>
</svg>
